<svg xmlns="http://www.w3.org/2000/svg" width="61.743" height="59.161" viewBox="0 0 61.743 59.161">
  <g id="Group_23" data-name="Group 23" transform="translate(0.589 -2)">
    <path id="Path_1315" data-name="Path 1315" d="M749.9,256.8q1.092.577,2.136,1.18" transform="translate(-708.739 -240.11)" fill="none" stroke="#2f2e41" stroke-miterlimit="10" stroke-width="1"/>
    <path id="Path_1316" data-name="Path 1316" d="M562.441,223.849A46.594,46.594,0,0,1,572.58,227.4a48.49,48.49,0,0,1,7.238,4.248" transform="translate(-534.83 -209.545)" fill="none" stroke="#2f2e41" stroke-miterlimit="10" stroke-width="1"/>
    <line id="Line_1" data-name="Line 1" x2="32.575" transform="translate(17.037 60.661)" fill="none" stroke="#3f3d56" stroke-miterlimit="10" stroke-width="1"/>
    <path id="Path_1317" data-name="Path 1317" d="M521.327,216.817c.955.117,1.948.287,2.973.508" transform="translate(-496.689 -203.021)" fill="none" stroke="#2f2e41" stroke-miterlimit="10" stroke-width="1"/>
    <path id="Path_1318" data-name="Path 1318" d="M367.98,224.306c-1.764-2.581-2.37-5.02-1.463-6.912,1-2.092,3.685-3.163,7.322-3.242" transform="translate(-352.684 -200.55)" fill="none" stroke="#2f2e41" stroke-miterlimit="10" stroke-width="1"/>
    <path id="Path_1319" data-name="Path 1319" d="M860.022,434.318c1.47,2.367,1.926,4.585,1.088,6.336-.738,1.54-2.387,2.527-4.656,2.972" transform="translate(-807.585 -404.796)" fill="none" stroke="#2f2e41" stroke-miterlimit="10" stroke-width="1"/>
    <path id="Path_1320" data-name="Path 1320" d="M802.78,331.65a36.019,36.019,0,0,1,4.166,3.453" transform="translate(-757.792 -309.552)" fill="none" stroke="#2f2e41" stroke-miterlimit="10" stroke-width="1"/>
    <path id="Path_1321" data-name="Path 1321" d="M378.6,167.159a28.109,28.109,0,0,1,10.953.318" transform="translate(-364.286 -156.581)" fill="none" stroke="#2f2e41" stroke-miterlimit="10" stroke-width="1"/>
    <path id="Path_1322" data-name="Path 1322" d="M967.943,434.314a12.8,12.8,0,0,1,2.327,5.455" transform="translate(-911.013 -404.793)" fill="none" stroke="#2f2e41" stroke-miterlimit="10" stroke-width="1"/>
    <path id="Path_1323" data-name="Path 1323" d="M779.444,273.12q1.972,1.14,3.752,2.358" transform="translate(-736.143 -255.253)" fill="none" stroke="#2f2e41" stroke-miterlimit="10" stroke-width="1"/>
    <path id="Path_1324" data-name="Path 1324" d="M783.712,663.141a1.813,1.813,0,0,0-1.562,1.092,2.576,2.576,0,0,0,.867,2.742,14.755,14.755,0,0,0,2.607,1.6,6.987,6.987,0,0,1,2.84,2.9,4.288,4.288,0,0,1-.041,3.955,7.1,7.1,0,0,1-2.942,2.361" transform="translate(-738.527 -617.075)" fill="none" stroke="#3f3d56" stroke-miterlimit="10" stroke-width="1"/>
    <ellipse id="Ellipse_81" data-name="Ellipse 81" cx="1.38" cy="0.67" rx="1.38" ry="0.67" transform="translate(44.8 45.478)" fill="#57b894"/>
    <ellipse id="Ellipse_82" data-name="Ellipse 82" cx="1.38" cy="0.67" rx="1.38" ry="0.67" transform="translate(45.904 49.895)" fill="#57b894"/>
    <ellipse id="Ellipse_83" data-name="Ellipse 83" cx="1.38" cy="0.67" rx="1.38" ry="0.67" transform="translate(43.38 50.604)" fill="#57b894"/>
    <ellipse id="Ellipse_84" data-name="Ellipse 84" cx="1.38" cy="0.67" rx="1.38" ry="0.67" transform="translate(47.324 54.312)" fill="#57b894"/>
    <ellipse id="Ellipse_85" data-name="Ellipse 85" cx="1.38" cy="0.67" rx="1.38" ry="0.67" transform="translate(50.084 54.312)" fill="#57b894"/>
    <path id="Path_1325" data-name="Path 1325" d="M687.124,303.075h.778s.713,5.508.194,6.026-1.944.842-2.138,0a26.136,26.136,0,0,1,0-3.953Z" transform="translate(-649.336 -283.043)" fill="#6c63ff"/>
    <ellipse id="Ellipse_86" data-name="Ellipse 86" cx="4.73" cy="5.54" rx="4.73" ry="5.54" transform="translate(27.971 9.697)" fill="#2f2e41"/>
    <path id="Path_1326" data-name="Path 1326" d="M608.776,242.78s.259,2.138-.518,2.592.907,3.046.907,3.046l2.009.518,1.361-1.879-.259-1.944s-1.555-1.555-.842-2.981Z" transform="translate(-577.144 -226.506)" fill="#ffc1c7"/>
    <path id="Path_1327" data-name="Path 1327" d="M608.776,242.78s.259,2.138-.518,2.592.907,3.046.907,3.046l2.009.518,1.361-1.879-.259-1.944s-1.555-1.555-.842-2.981Z" transform="translate(-577.144 -226.506)" opacity="0.1"/>
    <path id="Path_1328" data-name="Path 1328" d="M573.295,562.991s-.778,7.063,0,8.748,2.851,6.415,2.851,6.415l-.648,1.361,1.75-.389.713-1.361s-.842-3.3-.972-4.471a15.5,15.5,0,0,0-1.1-3.3l1.814-7.711Z" transform="translate(-544.578 -523.505)" fill="#ffc1c7"/>
    <path id="Path_1329" data-name="Path 1329" d="M662.869,544.167s.065,7.128.518,8.233l-.259,9.655,1.426.19s2.074-8.1,1.75-10.044.065-8.942.065-8.942Z" transform="translate(-627.997 -505.862)" fill="#ffc1c7"/>
    <circle id="Ellipse_87" data-name="Ellipse 87" cx="2.462" cy="2.462" r="2.462" transform="translate(30.239 12.224)" fill="#ffc1c7"/>
    <path id="Path_1330" data-name="Path 1330" d="M577,301.935s-1.75,1.166-2.462.324-9.461.518-10.562.259.583-4.406.583-6.545a24.816,24.816,0,0,1,.873-5.159c.1-.378.164-.608.164-.608a8.643,8.643,0,0,0,.54-2.677.675.675,0,0,0-.049-.173.354.354,0,0,0-.038-.065,33.759,33.759,0,0,1-1.545-4.73,5.863,5.863,0,0,1-.139-.583,10.037,10.037,0,0,1,3-.805c.6-.028.761.805.761.805a18.907,18.907,0,0,1,1.1,2.4l.842-2.138s-.065-.454-.13-.454.958-.612.958-.612,1.05.741,1.634.612,1.944,1.037,1.944,1.037-2.4,6.026-1.426,7.322S577,301.935,577,301.935Z" transform="translate(-535.903 -262.723)" fill="#6c63ff"/>
    <path id="Path_1331" data-name="Path 1331" d="M572.977,772.837a10.525,10.525,0,0,0-1.1,1.231l-.907-.389s-.389,1.426-.454,1.62a9.428,9.428,0,0,1-2.268,2.721c-1.1.778,0,1.75.972,1.555s3.434-2.4,3.434-2.4a2.617,2.617,0,0,0,2.268-1.3S573.365,772.708,572.977,772.837Z" transform="translate(-539.789 -718.837)" fill="#2f2e41"/>
    <path id="Path_1332" data-name="Path 1332" d="M659.254,791.5s-1.665-1.21-1.772-.086-.107,3.585-.107,3.585-.518,1.62,1.1,1.426,1.75-.648,1.75-.648l-.778-3.11V791.3Z" transform="translate(-622.827 -735.629)" fill="#2f2e41"/>
    <path id="Path_1333" data-name="Path 1333" d="M577.616,305.117a33.76,33.76,0,0,1-1.545-4.73h.314s.789,3.089,1.269,4.8a.357.357,0,0,0-.038-.065Z" transform="translate(-547.474 -280.549)" opacity="0.1"/>
    <path id="Path_1334" data-name="Path 1334" d="M593.8,373.146a20.785,20.785,0,0,1-4.212-.583,6.594,6.594,0,0,1-.682-.169c.1-.378.164-.608.164-.608a8.643,8.643,0,0,0,.54-2.677,5.683,5.683,0,0,0,.3.928c.13.065,4.277.778,4.86,1.037S593.8,373.146,593.8,373.146Z" transform="translate(-559.38 -344.301)" opacity="0.1"/>
    <path id="Path_1335" data-name="Path 1335" d="M672.727,306.634s1.787-.221,1.9.069.564,3.09.759,3.449.259,2.585-.518,2.657-1.814-.718-1.62-1.364A29.5,29.5,0,0,0,672.727,306.634Z" transform="translate(-637.142 -286.269)" opacity="0.1"/>
    <path id="Path_1336" data-name="Path 1336" d="M652.7,387.479s2.722.324,3.175,0,2.333-.324,1.944.583-3.758.972-3.758.972h-1.944Z" transform="translate(-618.019 -361.161)" fill="#ffc1c7"/>
    <path id="Path_1337" data-name="Path 1337" d="M564.336,294.112h-.454s-.907.194-.778,3.046-.778,4.73,2.527,5.378a20.789,20.789,0,0,0,4.212.583s1.555-1.814.972-2.074-4.73-.972-4.86-1.037S564.336,294.112,564.336,294.112Z" transform="translate(-535.426 -274.728)" fill="#6c63ff"/>
    <path id="Path_1338" data-name="Path 1338" d="M653.607,257.147s-1.135-4.26-2.043-4.26-1.944.194-1.166,1.037,1.75,1.75,1.814,2.2a6.1,6.1,0,0,0,.324,1.1Z" transform="translate(-616.174 -236.483)" fill="#ffc1c7"/>
    <path id="Path_1339" data-name="Path 1339" d="M676.312,306.634s1.787-.221,1.9.069.564,3.09.759,3.449.259,2.585-.518,2.657-1.814-.718-1.62-1.364A29.517,29.517,0,0,0,676.312,306.634Z" transform="translate(-640.468 -286.269)" fill="#6c63ff"/>
    <circle id="Ellipse_88" data-name="Ellipse 88" cx="2.333" cy="2.333" r="2.333" transform="translate(29.721 10.021)" fill="#2f2e41"/>
    <path id="Path_1340" data-name="Path 1340" d="M453.959,411.517a44.914,44.914,0,0,1-11.846-3.872,43.257,43.257,0,0,1-11.53-7.824" transform="translate(-412.505 -372.793)" fill="none" stroke="#2f2e41" stroke-miterlimit="10" stroke-width="1"/>
    <path id="Path_1341" data-name="Path 1341" d="M439.28,454.512a58.571,58.571,0,0,1-8.7-5.485" transform="translate(-412.504 -418.441)" fill="none" stroke="#2f2e41" stroke-miterlimit="10" stroke-width="1"/>
    <circle id="Ellipse_89" data-name="Ellipse 89" cx="3.883" cy="3.883" r="3.883" transform="translate(0 2.082)" fill="#6c63ff"/>
    <circle id="Ellipse_90" data-name="Ellipse 90" cx="3.883" cy="3.883" r="3.883" transform="translate(-0.089 2.5)" fill="none" stroke="#2f2e41" stroke-miterlimit="10" stroke-width="1"/>
    <circle id="Ellipse_91" data-name="Ellipse 91" cx="2.259" cy="2.259" r="2.259" transform="translate(55.606 17.73)" fill="#f2f2f2"/>
    <circle id="Ellipse_92" data-name="Ellipse 92" cx="2.259" cy="2.259" r="2.259" transform="translate(56.136 17.809)" fill="none" stroke="#2f2e41" stroke-miterlimit="10" stroke-width="1"/>
    <circle id="Ellipse_93" data-name="Ellipse 93" cx="3.247" cy="3.247" r="3.247" transform="translate(13.408 40.289)" fill="#f2f2f2"/>
    <circle id="Ellipse_94" data-name="Ellipse 94" cx="3.247" cy="3.247" r="3.247" transform="translate(13.17 39.966)" fill="none" stroke="#2f2e41" stroke-miterlimit="10" stroke-width="1"/>
  </g>
</svg>
