<svg xmlns="http://www.w3.org/2000/svg" width="22.81" height="15.207" viewBox="0 0 22.81 15.207">
  <path id="Icon_awesome-eye" data-name="Icon awesome-eye" d="M22.672,11.525A12.7,12.7,0,0,0,11.4,4.5,12.7,12.7,0,0,0,.138,11.526a1.281,1.281,0,0,0,0,1.156A12.7,12.7,0,0,0,11.4,19.707a12.7,12.7,0,0,0,11.267-7.026A1.281,1.281,0,0,0,22.672,11.525ZM11.4,17.806a5.7,5.7,0,1,1,5.7-5.7A5.7,5.7,0,0,1,11.4,17.806Zm0-9.5a3.774,3.774,0,0,0-1,.15A1.895,1.895,0,0,1,7.753,11.1,3.793,3.793,0,1,0,11.4,8.3Z" transform="translate(0 -4.5)" fill="#000640" opacity="0.7"/>
</svg>
