<svg xmlns="http://www.w3.org/2000/svg" width="22.81" height="18.248" viewBox="0 0 22.81 18.248">
  <path id="Icon_awesome-eye-slash" data-name="Icon awesome-eye-slash" d="M11.4,14.256A5.113,5.113,0,0,1,6.312,9.512L2.573,6.623A11.879,11.879,0,0,0,1.265,8.6a1.153,1.153,0,0,0,0,1.04A11.431,11.431,0,0,0,11.4,15.967a11.07,11.07,0,0,0,2.776-.373l-1.849-1.431a5.137,5.137,0,0,1-.927.093ZM22.59,16.327l-3.94-3.045a11.806,11.806,0,0,0,2.9-3.638,1.153,1.153,0,0,0,0-1.04A11.431,11.431,0,0,0,11.4,2.281,10.983,10.983,0,0,0,6.154,3.625L1.62.12a.57.57,0,0,0-.8.1l-.7.9a.57.57,0,0,0,.1.8L21.19,18.128a.57.57,0,0,0,.8-.1l.7-.9a.57.57,0,0,0-.1-.8Zm-6.548-5.061-1.4-1.083A3.377,3.377,0,0,0,10.5,5.838a1.7,1.7,0,0,1,.332,1.005,1.662,1.662,0,0,1-.055.356L8.156,5.172A5.072,5.072,0,0,1,11.4,3.992a5.129,5.129,0,0,1,5.132,5.132,5.01,5.01,0,0,1-.5,2.142Z" transform="translate(0 0)" fill="#000640" opacity="0.7"/>
</svg>
