<svg xmlns="http://www.w3.org/2000/svg" xmlns:xlink="http://www.w3.org/1999/xlink" width="72.921" height="60.782" viewBox="0 0 72.921 60.782">
  <defs>
    <linearGradient id="linear-gradient" x1="0.5" y1="1" x2="0.5" gradientUnits="objectBoundingBox">
      <stop offset="0" stop-color="gray" stop-opacity="0.251"/>
      <stop offset="0.54" stop-color="gray" stop-opacity="0.122"/>
      <stop offset="1" stop-color="gray" stop-opacity="0.102"/>
    </linearGradient>
  </defs>
  <g id="Group_38" data-name="Group 38" transform="translate(-0.004 0)">
    <ellipse id="Ellipse_172" data-name="Ellipse 172" cx="7.45" cy="0.734" rx="7.45" ry="0.734" transform="translate(44.382 59.313)" fill="#6c63ff" opacity="0.1"/>
    <path id="Path_1436" data-name="Path 1436" d="M129.971,37.038c3.281-1.22,7.276-.171,10.687,1.359,10.714,4.806,18.519,13.929,24.72,23.223,2.245,3.365,4.378,6.879,5.222,10.636a16.032,16.032,0,0,1-10.387,18.337,31.2,31.2,0,0,1-8.293,1.547,44.146,44.146,0,0,1-15.356-1.191,48.647,48.647,0,0,1-10.239-4.46c-9.092-5.05-17.4-11.608-23.375-19.618-2.622-3.514-4.841-7.475-4.9-11.529s2.578-8.128,6.925-8.817a17.714,17.714,0,0,1,5.553.317,35.364,35.364,0,0,0,8.2.726c2.789-.2,6.416-1.294,6.924-3.956C126.182,40.753,126.694,38.256,129.971,37.038Z" transform="translate(-98.04 -36.149)" fill="#6c63ff" opacity="0.1"/>
    <path id="Path_1437" data-name="Path 1437" d="M341.212,800.362s3.506-.211,3.092,2.245a.6.6,0,0,1-.312.631s-.006-.182-.36-.121a1.587,1.587,0,0,1-.381.019.794.794,0,0,1-.466-.193h0a2.779,2.779,0,0,1-1.369-2.018s-.284-.351-.272-.442l.591.253a1.062,1.062,0,0,0-.043.782s.019-.766.133-.748c.022,0,.307.145.307.145a1.748,1.748,0,0,0-.086,1.284s-.1-.916.194-1.23l.417.243a1.836,1.836,0,0,0-.131,1.394,2.6,2.6,0,0,1,.218-1.335l.378.291a1.8,1.8,0,0,0-.149,1.277s.03-1.119.23-1.2a2.263,2.263,0,0,1,.381.411s-.262.549-.1.839c0,0,.1-.745.182-.749a2.49,2.49,0,0,1,.363.832,1.8,1.8,0,0,0-.284-.88.992.992,0,0,1,.5.261s-.052-.349-.585-.38a2.286,2.286,0,0,0-.345-.4,2.159,2.159,0,0,1,.853.1.958.958,0,0,0-.95-.18l-.373-.3a3.067,3.067,0,0,1,1,.01,1.213,1.213,0,0,0-1.1-.079l-.405-.243a3.669,3.669,0,0,1,.951-.082,1.46,1.46,0,0,0-1.07.017l-.291-.13s.436-.086.564-.1.134-.049.134-.049a1.512,1.512,0,0,0-.82.091A3.364,3.364,0,0,1,341.212,800.362Z" transform="translate(-323.482 -744.516)" fill="#6c63ff"/>
    <ellipse id="Ellipse_173" data-name="Ellipse 173" cx="2.481" cy="0.419" rx="2.481" ry="0.419" transform="translate(17.663 58.517)" fill="#6c63ff" opacity="0.1"/>
    <path id="Path_1438" data-name="Path 1438" d="M276.917,777.637s1.977-.119,1.743,1.266a.336.336,0,0,1-.175.356s0-.1-.2-.068a.881.881,0,0,1-.214.01.44.44,0,0,1-.263-.108h0a1.576,1.576,0,0,1-.773-1.138s-.16-.2-.154-.249l.334.145a.6.6,0,0,0-.025.441s.011-.432.073-.422c.013,0,.174.084.174.084a.991.991,0,0,0-.048.726s-.057-.516.109-.694l.235.137a1.037,1.037,0,0,0-.073.786,1.475,1.475,0,0,1,.123-.753l.213.166a1,1,0,0,0-.084.72s.017-.631.13-.678a1.3,1.3,0,0,1,.214.232s-.145.309-.056.473c0,0,.056-.42.1-.422a1.389,1.389,0,0,1,.2.469,1.017,1.017,0,0,0-.16-.5.555.555,0,0,1,.284.145s-.028-.2-.33-.214a1.286,1.286,0,0,0-.194-.224,1.214,1.214,0,0,1,.481.055.541.541,0,0,0-.536-.1l-.21-.171a1.738,1.738,0,0,1,.561.006.683.683,0,0,0-.618-.044l-.228-.137a2.073,2.073,0,0,1,.535-.046.82.82,0,0,0-.6.009l-.163-.073s.246-.049.318-.056.076-.028.076-.028a.856.856,0,0,0-.463.052A1.913,1.913,0,0,1,276.917,777.637Z" transform="translate(-263.883 -723.444)" fill="#6c63ff"/>
    <ellipse id="Ellipse_174" data-name="Ellipse 174" cx="1.399" cy="0.237" rx="1.399" ry="0.237" transform="translate(12.996 55.698)" fill="#6c63ff" opacity="0.1"/>
    <path id="Path_1439" data-name="Path 1439" d="M946.26,795.959s2.386-.145,2.107,1.525a.41.41,0,0,1-.212.43s0-.124-.245-.082a1.073,1.073,0,0,1-.259.012.533.533,0,0,1-.317-.131h0a1.892,1.892,0,0,1-.932-1.374s-.193-.239-.185-.3l.4.171a.724.724,0,0,0-.029.532s.013-.522.09-.508c.016,0,.209.1.209.1a1.188,1.188,0,0,0-.058.872s-.068-.623.132-.837l.283.165a1.251,1.251,0,0,0-.089.949,1.8,1.8,0,0,1,.145-.909l.257.2a1.23,1.23,0,0,0-.1.872s.021-.761.158-.819a1.569,1.569,0,0,1,.259.28s-.178.374-.068.572c0,0,.068-.508.124-.508a1.687,1.687,0,0,1,.247.567,1.222,1.222,0,0,0-.193-.6.676.676,0,0,1,.343.177s-.035-.237-.4-.259a1.549,1.549,0,0,0-.234-.27,1.467,1.467,0,0,1,.581.067.654.654,0,0,0-.647-.122l-.254-.207a2.092,2.092,0,0,1,.678.007.825.825,0,0,0-.746-.054l-.276-.165a2.516,2.516,0,0,1,.647-.056.99.99,0,0,0-.726.012l-.2-.089s.3-.059.384-.068.091-.033.091-.033a1.031,1.031,0,0,0-.558.062A2.41,2.41,0,0,1,946.26,795.959Z" transform="translate(-884.602 -740.435)" fill="#6c63ff"/>
    <ellipse id="Ellipse_175" data-name="Ellipse 175" cx="1.689" cy="0.285" rx="1.689" ry="0.285" transform="translate(61.613 57.343)" fill="#6c63ff" opacity="0.1"/>
    <path id="Path_1440" data-name="Path 1440" d="M693.594,406.51a5.183,5.183,0,0,1-.079-.774c0-.312-.423-.588-.423-.588s-.262-.605-.436-.694a5.334,5.334,0,0,1-.713-.881.719.719,0,0,0-.162-.427,6.151,6.151,0,0,1-.441-.665h0c-.073-.089-.036-.151-.145-.668-.006-.027-.012-.053-.02-.078a.1.1,0,0,0-.012-.033.872.872,0,0,0,.206-.9.363.363,0,0,0-.1-.16c-.123-.1-.319-.059-.445-.154l.134-.594c.032-.145.049-.329-.078-.408a.661.661,0,0,0-.15-.05.705.705,0,0,1-.4-.524,1.8,1.8,0,0,1-.044-.654c.025-.211.086-.416.109-.627a1.722,1.722,0,0,0-.267-1.114.858.858,0,0,0-.352-.333c-.134-.06-.291-.073-.416-.145-.27-.172-.256-.581-.472-.816a.932.932,0,0,0-.912-.153,2.754,2.754,0,0,1-.95.184c-.208-.023-.4-.118-.611-.139a.645.645,0,0,0-.179.008v-.007a.388.388,0,0,0-.332.259.4.4,0,0,0-.01.106c0,.085.02.174.022.255a.242.242,0,0,1-.059.179c-.041.044-.1.068-.145.113a.181.181,0,0,0-.053.134c0,.129.161.243.269.3h0c-.029.029-.058.06-.085.091a1.913,1.913,0,0,0-.481,1.27,1.939,1.939,0,0,0,1.18,1.771l-.015.047a2.7,2.7,0,0,1-.107.275.544.544,0,0,0-.456.051,1.152,1.152,0,0,1-.722.107,9.806,9.806,0,0,0-1.326-.134c-.091.036-.27-.124-.387.089s-.171.329-.291.383-.325.222-.3.258-.3.249-.3.249a1.48,1.48,0,0,1-.442.329,2.593,2.593,0,0,0-.5.259l-.4.311s-.3.045-.207-.16-.163-.463-.163-.463a7.343,7.343,0,0,1-.5-1.235,6.283,6.283,0,0,0-.415-1.113l-.051-.005-.023-.066c-.076-.214-.175-.477-.251-.631-.145-.294-.235-.325-.235-.325s-1.749-1.313-2.885-.913,2.074,1.593,2.362,1.718a.545.545,0,0,1,.224.349,1.5,1.5,0,0,0-.621.559,11.873,11.873,0,0,1,.713,1.922,7.388,7.388,0,0,0,.478,1.453,1.013,1.013,0,0,0,1.1.747s1.281.235,1.56,0a2.215,2.215,0,0,1,.667-.447.527.527,0,0,0,.252-.178,19.059,19.059,0,0,1-.631,2.9c-.208.232-2.043,3.229-1.385,3.765a13.16,13.16,0,0,0,1.65,1.09c.056.028.224-.252.463-.45v.155a11.493,11.493,0,0,0,.34,3.051,3.38,3.38,0,0,1,.171,1.566,1.235,1.235,0,0,0,.487.117c.009.035.019.073.028.109a14.523,14.523,0,0,0,.548,1.777,7.224,7.224,0,0,1,.342,1.558,10.817,10.817,0,0,1,.073,1.326,7.8,7.8,0,0,0,.179,1.162h0c-.073.835-.211,2.444-.234,3.025h0v.042a.175.175,0,0,1,0,.02v.036h0a.544.544,0,0,0,0,.11.355.355,0,0,1-.012.166,2.888,2.888,0,0,1-.2.466,2.215,2.215,0,0,0-.087.225.407.407,0,0,0-.211.3c-.09.347-.225,1.308-.225,1.308a2.365,2.365,0,0,1-.162.721.744.744,0,0,0,.55,1.077,1.11,1.11,0,0,0,1.1-.407l-.027-2.33v0a.351.351,0,0,0,.04-.063v-.006c.005-.011.011-.022.016-.036l.007-.017.012-.028a.047.047,0,0,1,0-.01,1.539,1.539,0,0,0,.065-.694v-.1a.268.268,0,0,1,0-.048v-.009l0-.028v-.012a.053.053,0,0,1,.006-.029.029.029,0,0,1,0-.007c.007-.033.016-.073.025-.1V424.7l.011-.035h0c.011-.037.023-.073.036-.112v-.007a.1.1,0,0,1,.012-.034v0c.013-.036.027-.073.04-.1l0-.009.012-.029,0-.009.028-.065h0l.213.657a1.663,1.663,0,0,1,.054.605c-.063.116.073.6.162.605l-.083.605a9.25,9.25,0,0,0-.081,1.006c-.006.039-.012.073-.016.1a2.184,2.184,0,0,0,.081.791,1.063,1.063,0,0,0,1.56.065s.1-.445,0-.534-.055-.41-.055-.41.045-.793.054-1.371a1.811,1.811,0,0,0-.473-1.09l-.027.024a1.711,1.711,0,0,1-.167-.609c.036-.2-.1-2.367-.1-2.367a12.824,12.824,0,0,0,.032-1.743h0c.012-.1.023-.195.033-.291.054-.465.1-.862.116-1.071h0v-.025c0-.056.007-.1.006-.115,0-.073,0-.155.007-.246.017-.25.056-.528.056-.528l.189-1.148a3.59,3.59,0,0,1,.352-.872l.025-.039h0l.025-.045,0-.007c.008-.015.017-.031.025-.048l0-.007c.029-.057.06-.124.093-.2,0-.006.005-.011.007-.017l.025-.055a.058.058,0,0,1,.009-.022c0-.007.015-.037.023-.055a.2.2,0,0,0,.009-.023c.01-.022.02-.044.029-.068l.014-.033c.007-.017.014-.033.021-.05l.017-.044c.005-.011.009-.022.014-.033l.02-.05c0-.007.006-.015.009-.023.052-.129.1-.256.145-.371h0l.04-.1c.462.028.776.054.776.054a10.646,10.646,0,0,0,.1-1.726,6.41,6.41,0,0,1,.114-1.38c.007-.036.012-.068.018-.1l.012.01c.226.178.388-.41.388-.41s-.061-.548-.145-1.213l-.009-.066a3.416,3.416,0,0,0,.394.06s.073-.007.172-.019a4.766,4.766,0,0,0,.867.392l.48-.886a3.6,3.6,0,0,1,.316-.525,4.792,4.792,0,0,0,.649-.854,3.006,3.006,0,0,1,.352-1A2.2,2.2,0,0,0,693.594,406.51Zm-2,.676c-.19.08-.37.525-.378.659s-.208.721-.415.792a2.769,2.769,0,0,0-.614.455c-.06.005-.127.013-.2.025a6.924,6.924,0,0,0-.208-1.12c-.145-.267.159-1.122.159-1.122a2.715,2.715,0,0,1,.218-1.068c.188-.2.145-.721.145-.721s.045-.214.063-.311.268,0,.27,0h0a1.182,1.182,0,0,1,.559.667,3.826,3.826,0,0,0,.6,1.095s-.081.24,0,.363S691.782,407.107,691.592,407.187Z" transform="translate(-634.312 -368.621)" fill="url(#linear-gradient)"/>
    <path id="Path_1441" data-name="Path 1441" d="M707,448.9a1.453,1.453,0,0,1,1.453-.684v1.039h-.631l-.494-.125Z" transform="translate(-662.761 -417.938)" fill="#4c4981"/>
    <path id="Path_1442" data-name="Path 1442" d="M707,448.9a1.453,1.453,0,0,1,1.453-.684v1.039h-.631l-.494-.125Z" transform="translate(-662.761 -417.938)" opacity="0.1"/>
    <path id="Path_1443" data-name="Path 1443" d="M680.725,422.992l-.774.542s-.007-.108-.026-.256c-.038-.28-.125-.7-.312-.782-.284-.125-3.446-1.315-2.324-1.715s2.842.912,2.842.912.089.03.23.323c.073.154.172.416.247.63C680.678,422.839,680.725,422.992,680.725,422.992Z" transform="translate(-634.987 -392.441)" fill="#ae6e79"/>
    <path id="Path_1444" data-name="Path 1444" d="M711.991,431.551l.088-.041.247.282-.2.431-.344-.138.08-.344Z" transform="translate(-660.073 -400.166)" fill="#4c4981"/>
    <path id="Path_1445" data-name="Path 1445" d="M786.816,810.994s-.222-.026-.311.32-.222,1.307-.222,1.307a2.364,2.364,0,0,1-.16.72.745.745,0,0,0,.542,1.074,1.093,1.093,0,0,0,1.084-.406l-.027-2.329Z" transform="translate(-736.067 -754.38)" fill="#444053"/>
    <path id="Path_1446" data-name="Path 1446" d="M818.015,812.44a1.807,1.807,0,0,1,.466,1.085c-.009.577-.054,1.368-.054,1.368s-.044.32.054.409,0,.533,0,.533a1.038,1.038,0,0,1-1.537-.065,2.224,2.224,0,0,1-.08-.79c.057-.309.215-1.7.215-1.7Z" transform="translate(-764.632 -755.721)" fill="#444053"/>
    <path id="Path_1447" data-name="Path 1447" d="M792.966,659.969a14.821,14.821,0,0,1-.684,1.652,3.556,3.556,0,0,0-.346.872l-.187,1.146a6.411,6.411,0,0,0-.062.773c.009.258-.462,4.015-.462,4.015l-.746.951a2.438,2.438,0,0,0-.275.944,1.371,1.371,0,0,1-.145.853s-.017.872-.044,1.066.1.747,0,.844-1.4.054-1.439-.107a4.742,4.742,0,0,1,.16-.933l.115-.746s.231-.408.178-.542.1-.444.106-.471.249-.462.2-.63.28-3.753.28-3.753l.915-6.422Z" transform="translate(-738.407 -613.872)" fill="#ae6e79"/>
    <path id="Path_1448" data-name="Path 1448" d="M792.966,659.987s-.073.2-.172.467a9.028,9.028,0,0,1-.512,1.185,3.6,3.6,0,0,0-.346.872l-.187,1.146a6.448,6.448,0,0,0-.062.773c0,.1-.068.75-.155,1.5-.134,1.143-.307,2.517-.307,2.517l-.746.951s-.038.073-.085.187a1.744,1.744,0,0,0-.19.754,1.376,1.376,0,0,1-.145.853s-.018.872-.044,1.066.1.746,0,.844-1.4.054-1.439-.106a4.752,4.752,0,0,1,.16-.933l.115-.747s.231-.408.177-.542.1-.444.107-.471.249-.462.2-.631c-.034-.129.145-2.233.229-3.231.028-.314.047-.518.047-.518l.787-5.525.064-.445.064-.452Z" transform="translate(-738.407 -613.891)" opacity="0.1"/>
    <path id="Path_1449" data-name="Path 1449" d="M788.837,678.964a3.137,3.137,0,0,1-1.433.134c-.18-.107,0-1.43,0-1.43l.082-.6c-.088-.009-.222-.489-.16-.6a1.691,1.691,0,0,0-.053-.6l-.209-.654-.128-.4a17.777,17.777,0,0,1-.7-2.742,7.927,7.927,0,0,1-.176-1.158,10.972,10.972,0,0,0-.073-1.323,7.515,7.515,0,0,0-.337-1.554,14.653,14.653,0,0,1-.54-1.773c-.08-.307-.135-.528-.135-.528s1.342-.113,2.157-.152c.374-.018.637-.02.607.01a1.106,1.106,0,0,0-.037.429,11.2,11.2,0,0,0,.179,1.97,6.8,6.8,0,0,1,.2,1.714,5.406,5.406,0,0,0-.036.888,4,4,0,0,1,.157.964,13.018,13.018,0,0,1-.03,1.735s.133,2.159.1,2.363.284.844.284.968.089.968.089.968S788.831,678.866,788.837,678.964Z" transform="translate(-735.077 -619.508)" fill="#ae6e79"/>
    <path id="Path_1450" data-name="Path 1450" d="M805.2,444.914l-.153.165-.1.107-.581.625-1.5.169-.8-.214-.2-.053s0-.4.036-.882c.051-.617.172-1.366.462-1.57a1.154,1.154,0,0,0,.338-.428,2.406,2.406,0,0,0,.145-.359c.006-.016.01-.031.015-.047a4.008,4.008,0,0,0,.141-.659s.192-.106.458-.23c.7-.325,1.9-.773,1.478.23a3.928,3.928,0,0,0-.157.45c-.006.023-.012.045-.017.067a1.458,1.458,0,0,0,.057,1.083h0a.684.684,0,0,0,.06.092.484.484,0,0,0,.1.1l.173,1.1.015.091Z" transform="translate(-750.74 -411.405)" fill="#ae6e79"/>
    <path id="Path_1451" data-name="Path 1451" d="M817.473,442.506c-.079.19.039-.155,0,0-.317.225-1.063.867-1.482.867a1.164,1.164,0,0,1-.611-.161,3.961,3.961,0,0,0,.156-.705S818.05,441.12,817.473,442.506Z" transform="translate(-763.269 -412.088)" opacity="0.1"/>
    <path id="Path_1452" data-name="Path 1452" d="M803.553,409.577a1.938,1.938,0,0,1-1.734,1.926c-.067.007-.134.011-.2.011a1.937,1.937,0,1,1,1.937-1.937Z" transform="translate(-748.709 -380.326)" fill="#ae6e79"/>
    <path id="Path_1453" data-name="Path 1453" d="M795.584,491.33l-.276.72s-.224.009-.575.02c-1.182.038-3.786.086-3.9-.218a.775.775,0,0,1-.041-.239,4.686,4.686,0,0,1,.2-1.173s.124-1.422.124-1.483-.107-1.058-.107-1.058l.214-.8.595-.418s.267.409.426.444a1.106,1.106,0,0,1,.373.232s.524.32.693.142,1.483-.96,1.483-.96l.693.764Z" transform="translate(-740.464 -453.494)" opacity="0.1"/>
    <path id="Path_1454" data-name="Path 1454" d="M795.611,492.85l-.276.719s-.224.01-.575.021h-.034c-.151.005-.324.01-.508.014a21.883,21.883,0,0,1-2.909-.073c-.254-.036-.421-.089-.448-.16a.643.643,0,0,1-.032-.132c0-.033-.007-.073-.009-.107a4.68,4.68,0,0,1,.2-1.173s.124-1.422.124-1.483-.107-1.058-.107-1.058l.214-.8.409-.286.186-.131a2.8,2.8,0,0,0,.2.269.544.544,0,0,0,.222.175,1.112,1.112,0,0,1,.373.232s.524.32.693.142a13.46,13.46,0,0,1,1.3-.848c.113-.069.187-.112.187-.112l.093.1.6.661Z" transform="translate(-740.492 -454.904)" fill="#fff"/>
    <path id="Path_1455" data-name="Path 1455" d="M717.44,447.776l-.774.542s-.007-.108-.026-.256a1.566,1.566,0,0,0,.681-.632C717.393,447.623,717.44,447.776,717.44,447.776Z" transform="translate(-671.701 -417.225)" opacity="0.1"/>
    <path id="Path_1456" data-name="Path 1456" d="M711.163,450.525l-.169-.045a1.464,1.464,0,0,1-.436.329,2.543,2.543,0,0,0-.5.257l-.392.311s-.291.045-.2-.16-.16-.462-.16-.462a7.327,7.327,0,0,1-.5-1.235,6.208,6.208,0,0,0-.411-1.11,1.271,1.271,0,0,1-1.457.684,11.909,11.909,0,0,1,.7,1.918,7.376,7.376,0,0,0,.471,1.448,1,1,0,0,0,1.084.747s1.262.235,1.537,0a2.228,2.228,0,0,1,.654-.446.539.539,0,0,0,.248-.177v-1.056Z" transform="translate(-662.706 -418.134)" fill="#4c4981"/>
    <path id="Path_1457" data-name="Path 1457" d="M743.3,491.33s.222.827.08.915Z" transform="translate(-696.425 -457.936)" opacity="0.1"/>
    <path id="Path_1458" data-name="Path 1458" d="M794.743,558.307c-1.182.038-3.786.085-3.9-.218a.77.77,0,0,1-.041-.239l3.861.2Z" transform="translate(-740.474 -519.624)" opacity="0.1"/>
    <path id="Path_1459" data-name="Path 1459" d="M789.655,659.969s-.073.2-.172.467c-.49-.03-1.14-.061-1.757-.065-.218,0-.431,0-.633.007a4.771,4.771,0,0,0-1.035.115,2.744,2.744,0,0,1-.922.119c-.08-.307-.135-.528-.135-.528s1.342-.113,2.157-.152l.064-.452Z" transform="translate(-735.096 -613.872)" opacity="0.1"/>
    <path id="Path_1460" data-name="Path 1460" d="M779.5,563.7l-.151.32s-.021.1-.048.246a6.3,6.3,0,0,0-.112,1.38,10.919,10.919,0,0,1-.1,1.723,21.071,21.071,0,0,0-4.228,0,1.938,1.938,0,0,1-1.431,0,3.434,3.434,0,0,0-.169-1.563,11.567,11.567,0,0,1-.335-3.051,2.691,2.691,0,0,1,.086-.94,28.033,28.033,0,0,0,1.03-2.638l.19.01.508.027,2.891.152.454.024.048.145Z" transform="translate(-723.902 -520.858)" fill="#444053"/>
    <path id="Path_1461" data-name="Path 1461" d="M866.158,590.615l.027.285s-1.432-.466-1.359-1.039,0-.508,0-.508l1.151.1Z" transform="translate(-809.12 -548.836)" fill="#4c4981"/>
    <path id="Path_1462" data-name="Path 1462" d="M866.158,590.615l.027.285s-1.432-.466-1.359-1.039,0-.508,0-.508l1.151.1Z" transform="translate(-809.12 -548.836)" opacity="0.1"/>
    <path id="Path_1463" data-name="Path 1463" d="M753.677,491.541a1.276,1.276,0,0,0,.5.262.329.329,0,0,1-.145-.073c-.1-.073-.2-.152-.3-.229a.938.938,0,0,0-.278-.192A1.527,1.527,0,0,0,753.677,491.541Z" transform="translate(-705.847 -457.918)" opacity="0.1"/>
    <path id="Path_1464" data-name="Path 1464" d="M751.717,495.109a.639.639,0,0,1,.11.175,1.058,1.058,0,0,1-.008.55l-.229-.553c-.04-.094-.08-.189-.128-.279-.021-.038-.153-.2-.138-.232C751.365,494.675,751.674,495.056,751.717,495.109Z" transform="translate(-703.865 -461.112)" opacity="0.1"/>
    <path id="Path_1465" data-name="Path 1465" d="M833.18,539.345a.739.739,0,0,0,.418-.2c-.236.03-.46.123-.692.171a1.029,1.029,0,0,1-.645-.06A1.586,1.586,0,0,0,833.18,539.345Z" transform="translate(-778.923 -502.283)" opacity="0.1"/>
    <path id="Path_1466" data-name="Path 1466" d="M820.948,510.482a.162.162,0,0,1-.12-.03q-.266-.153-.524-.318a3.482,3.482,0,0,1-.513-.354A2.613,2.613,0,0,0,820.948,510.482Z" transform="translate(-767.358 -475.046)" opacity="0.1"/>
    <path id="Path_1467" data-name="Path 1467" d="M836.343,543.149a1.108,1.108,0,0,0,.277-.023.372.372,0,0,0,.228-.15.131.131,0,0,0-.1.015,1.629,1.629,0,0,1-.892.107A1.286,1.286,0,0,0,836.343,543.149Z" transform="translate(-782.261 -505.829)" opacity="0.1"/>
    <path id="Path_1468" data-name="Path 1468" d="M790.485,601.187a2.918,2.918,0,0,1-.567.111,3.432,3.432,0,0,1-.449-.009l-.726-.046-.363-.023c-.043,0-.218,0-.131-.086.044-.042.286-.015.349-.017q.181-.006.363-.007c.24,0,.482,0,.722.015C789.951,601.138,790.217,601.158,790.485,601.187Z" transform="translate(-738.086 -559.742)" opacity="0.1"/>
    <path id="Path_1469" data-name="Path 1469" d="M786.514,606.257a2.944,2.944,0,0,0-.41.084,2.718,2.718,0,0,1-.429.017,2.39,2.39,0,0,1-.826-.168C785.4,606.218,785.96,606.235,786.514,606.257Z" transform="translate(-734.956 -564.453)" opacity="0.1"/>
    <path id="Path_1470" data-name="Path 1470" d="M783.111,612.063a1.2,1.2,0,0,1,.158.044,1.858,1.858,0,0,0,.944-.067.554.554,0,0,1-.358.2,1.66,1.66,0,0,1-.7.025c-.073-.015-.255-.041-.291-.116C782.808,612.037,783.043,612.052,783.111,612.063Z" transform="translate(-733.109 -569.878)" opacity="0.1"/>
    <path id="Path_1471" data-name="Path 1471" d="M804.167,618.21a2.369,2.369,0,0,1,.272.073,2.3,2.3,0,0,0,1.05-.111,4.886,4.886,0,0,1,1.271-.118,1.257,1.257,0,0,0-.272.089c-.1.03-.2.057-.3.082-.2.048-.394.087-.594.115a6.1,6.1,0,0,1-1.218.053,1.765,1.765,0,0,1-.668-.085A.736.736,0,0,1,804.167,618.21Z" transform="translate(-752.446 -575.451)" opacity="0.1"/>
    <path id="Path_1472" data-name="Path 1472" d="M775.753,464.153a4.694,4.694,0,0,1-.115,1.191c-.042.116-.108.331-.179.571-.078.267-.163.565-.228.8l-.109.391s-.3,2.444-.378,3.608a.282.282,0,0,1,0,.061c0,.065-.012.134-.023.2a6.534,6.534,0,0,1-1.505,3.082,1,1,0,0,0-.282.194,2.691,2.691,0,0,1,.086-.94,28.047,28.047,0,0,0,1.03-2.638l.19.01c0-.033-.007-.073-.009-.107a4.68,4.68,0,0,1,.2-1.173s.124-1.422.124-1.483-.107-1.058-.107-1.058l.214-.8.409-.286c.051-.617.172-1.366.462-1.57a1.155,1.155,0,0,0,.338-.428c.057.008-.047-.043-.047-.043Z" transform="translate(-723.902 -432.351)" opacity="0.1"/>
    <path id="Path_1473" data-name="Path 1473" d="M747.6,462.757a.529.529,0,0,0-.45.051,1.124,1.124,0,0,1-.711.107,9.639,9.639,0,0,0-1.307-.134c-.091.036-.267-.124-.382.089s-.169.328-.284.381-.32.222-.291.258-.291.248-.291.248l.648,2.107a19.287,19.287,0,0,1-.622,2.9c-.2.231-2.016,3.224-1.368,3.758a12.906,12.906,0,0,0,1.626,1.09c.073.036.328-.444.683-.595a6.449,6.449,0,0,0,1.525-3.287c.068-1.137.382-3.668.382-3.668s.382-1.386.515-1.759a4.692,4.692,0,0,0,.116-1.191Z" transform="translate(-695.589 -431.412)" fill="#4c4981"/>
    <path id="Path_1474" data-name="Path 1474" d="M839.27,483.292l-.151.32s-.021.1-.048.246a.136.136,0,0,1-.073-.033,5.022,5.022,0,0,1-1.59-2.709c-.046-.878-.024-1.635-.009-1.972,0-.106.009-.17.009-.184h0s1.013-1.226.9-1.66-.382-2.76-.382-2.76l-.039-.305-.068-.516-.161-1.248.167.039a.484.484,0,0,0,.1.1l.173,1.1.6.661.1,4.024-.276.719s-.224.01-.575.021h-.034Z" transform="translate(-783.671 -440.446)" opacity="0.1"/>
    <path id="Path_1475" data-name="Path 1475" d="M841.071,475.972s-.248-.1-.266,0-.063.31-.063.31.044.516-.145.72a2.678,2.678,0,0,0-.218,1.066s-.3.853-.158,1.119a7.179,7.179,0,0,1,.211,1.162c.051.363.1.762.145,1.127.081.662.141,1.211.141,1.211s-.161.586-.383.408a5.017,5.017,0,0,1-1.589-2.709c-.044-.836-.026-1.562-.012-1.921.006-.152.012-.238.012-.238s1.013-1.226.9-1.661-.382-2.76-.382-2.76l-.047-.36-.05-.386-.012-.085-.161-1.235h0a5.524,5.524,0,0,1,1.156.363,3.974,3.974,0,0,0,.944.32.711.711,0,0,1,.5.517c.008.025.014.051.02.078.107.516.073.577.145.667A19.955,19.955,0,0,1,841.071,475.972Z" transform="translate(-784.913 -439.769)" fill="#4c4981"/>
    <path id="Path_1476" data-name="Path 1476" d="M853.027,591.377c-.363-.073-.9-.24-.89-.611.011-.346.428-.471.744-.516C852.932,590.612,852.982,591.012,853.027,591.377Z" transform="translate(-797.356 -549.671)" opacity="0.1"/>
    <path id="Path_1477" data-name="Path 1477" d="M854.831,590.189c-.015.031-.073.058-.155.082a4.194,4.194,0,0,1-.591.1s-1.235-.1-1.217-.658c.013-.4.571-.508.884-.532a2.031,2.031,0,0,1,.208-.009S854.884,590.075,854.831,590.189Z" transform="translate(-798.033 -548.668)" fill="#ae6e79"/>
    <path id="Path_1478" data-name="Path 1478" d="M865.266,590.189c-.015.031-.073.058-.155.082-.322-.431-.771-.983-.991-1.032l.067-.062a2.032,2.032,0,0,1,.208-.009S865.319,590.075,865.266,590.189Z" transform="translate(-808.468 -548.668)" opacity="0.1"/>
    <path id="Path_1479" data-name="Path 1479" d="M865.642,497.69l.363.054a6.317,6.317,0,0,0,.436.666.726.726,0,0,1,.16.426,5.458,5.458,0,0,0,.7.879c.169.089.426.693.426.693s.418.275.418.586a5.221,5.221,0,0,0,.08.773,2.191,2.191,0,0,1-.24.872,2.978,2.978,0,0,0-.346.994,4.7,4.7,0,0,1-.639.853,3.612,3.612,0,0,0-.311.524l-.471.888s-1-1.466-1.359-1.546a2.86,2.86,0,0,1,.612-.462c.2-.071.4-.654.409-.79s.187-.578.373-.654.285-.16.2-.285a.531.531,0,0,1,0-.363,3.834,3.834,0,0,1-.6-1.09,1.186,1.186,0,0,0-.551-.666l-.275-.676Z" transform="translate(-809.155 -463.834)" fill="#4c4981"/>
    <path id="Path_1480" data-name="Path 1480" d="M889.573,539.872a1.153,1.153,0,0,1,.717-.272.874.874,0,0,0-.469.184,1.1,1.1,0,0,0-.13.166c-.042.06-.385.5-.436.427C889.169,540.276,889.5,539.93,889.573,539.872Z" transform="translate(-831.764 -502.7)" opacity="0.1"/>
    <path id="Path_1481" data-name="Path 1481" d="M882.73,519.5a.307.307,0,0,0,.253-.179,1.007,1.007,0,0,0,.079-.315,4.7,4.7,0,0,1,.11-.54.25.25,0,0,0-.015-.218.734.734,0,0,0-.078-.161.968.968,0,0,0-.111.339c-.033.121-.064.242-.093.363C882.859,518.851,882.739,519.5,882.73,519.5Z" transform="translate(-825.727 -482.753)" opacity="0.1"/>
    <path id="Path_1482" data-name="Path 1482" d="M811.352,413.506a.747.747,0,0,1-.123.126c-.145.115-.338.213-.356.4a.427.427,0,0,1-.022.175c-.047.08-.161.073-.251.057a.436.436,0,0,1-.213-.078c-.1-.081-.1-.227-.177-.329a.448.448,0,0,0-.363-.161c-.136,0-.271.026-.407.032a1.118,1.118,0,0,1-.261-.017.829.829,0,0,1-.084-.017,1.081,1.081,0,0,1-.177-.06.784.784,0,0,1-.086-.041,1.147,1.147,0,0,1-.251-.174.623.623,0,0,1-.232-.471c.007-.111.057-.214.073-.323a1.013,1.013,0,0,0-.38-.835c-.09-.089-.186-.176-.276-.267a1.329,1.329,0,0,1-.325-.463,1.381,1.381,0,0,1-.058-.581,4,4,0,0,0,.017-.6,2.1,2.1,0,0,0-1.273-1.541l-.027-.014a1.936,1.936,0,1,1,2.6,2.833c-.006.023-.012.045-.017.067a1.457,1.457,0,0,0,.057,1.083h0a5.527,5.527,0,0,1,1.156.363,3.974,3.974,0,0,0,.944.32A.71.71,0,0,1,811.352,413.506Z" transform="translate(-754.663 -380.341)" opacity="0.1"/>
    <path id="Path_1483" data-name="Path 1483" d="M803.669,396.817c.04-.046.1-.069.141-.113.126-.137,0-.36.046-.54a.448.448,0,0,1,.5-.266c.2.021.4.115.6.139a2.647,2.647,0,0,0,.936-.183.9.9,0,0,1,.9.153c.214.238.2.642.465.814a2.643,2.643,0,0,0,.41.145.843.843,0,0,1,.347.332,1.74,1.74,0,0,1,.263,1.112c-.023.211-.084.415-.108.626a1.825,1.825,0,0,0,.044.654.7.7,0,0,0,.394.523.667.667,0,0,1,.145.05c.126.078.109.263.077.407l-.129.6c.124.094.317.054.436.153a.364.364,0,0,1,.1.16.872.872,0,0,1-.261.955c-.145.115-.338.213-.356.394a.409.409,0,0,1-.022.175c-.046.08-.161.073-.251.057a.436.436,0,0,1-.212-.078c-.1-.081-.1-.227-.177-.329a.45.45,0,0,0-.363-.161c-.137,0-.271.026-.407.033a1.2,1.2,0,0,1-.856-.309.625.625,0,0,1-.233-.472c.007-.11.057-.214.073-.323a1.016,1.016,0,0,0-.38-.835,2.214,2.214,0,0,1-.6-.73,4.55,4.55,0,0,1-.041-1.175,2.1,2.1,0,0,0-1.273-1.542C803.742,397.17,803.513,397,803.669,396.817Z" transform="translate(-752.36 -369.35)" fill="#444053"/>
    <path id="Path_1484" data-name="Path 1484" d="M808.347,404.128c-.1-.082-.1-.227-.176-.329a.451.451,0,0,0-.363-.161c-.137,0-.272.026-.407.033a1.2,1.2,0,0,1-.859-.31.623.623,0,0,1-.232-.471c.007-.111.057-.214.073-.323a1.015,1.015,0,0,0-.38-.835,2.223,2.223,0,0,1-.6-.73,4.742,4.742,0,0,1-.041-1.175,2.1,2.1,0,0,0-1.273-1.542c-.141-.069-.37-.244-.214-.422.039-.046.1-.069.14-.113.126-.136,0-.36.047-.539a.3.3,0,0,1,.046-.1.387.387,0,0,0-.328.259c-.044.18.08.4-.046.54-.041.044-.1.068-.141.113-.156.178.073.354.214.422a2.1,2.1,0,0,1,1.273,1.542,4.551,4.551,0,0,0,.041,1.175,2.192,2.192,0,0,0,.6.73,1.006,1.006,0,0,1,.38.835,2.776,2.776,0,0,0-.073.323.624.624,0,0,0,.233.471,1.2,1.2,0,0,0,.859.31c.137-.007.271-.036.407-.033a.452.452,0,0,1,.363.161c.073.1.081.248.177.329a.436.436,0,0,0,.212.078c.091.017.206.023.251-.057a.2.2,0,0,0,.02-.1A.417.417,0,0,1,808.347,404.128Z" transform="translate(-752.287 -370.561)" opacity="0.1"/>
    <path id="Path_1485" data-name="Path 1485" d="M567.594,60.861H562.57V55.91H567.6Zm-.073-7.465h-4.879c0-7.694,7.313-7.244,7.313-12.112a4.851,4.851,0,0,0-4.876-4.829,4.976,4.976,0,0,0-4.875,4.905H555.33a9.751,9.751,0,0,1,19.5-.076c0,6.086-7.313,6.779-7.313,12.112Z" transform="translate(-522.109 -31.61)" fill="#6c63ff"/>
    <path id="Path_1486" data-name="Path 1486" d="M338.858,317.559h-1.3v-1.28h1.3Zm-.02-1.925h-1.257c0-1.983,1.885-1.868,1.885-3.123a1.251,1.251,0,0,0-1.257-1.246,1.284,1.284,0,0,0-1.254,1.264H335.7a2.514,2.514,0,1,1,5.028-.02c0,1.569-1.889,1.748-1.889,3.122Z" transform="translate(-318.432 -289.783)" fill="#6c63ff" opacity="0.1"/>
    <path id="Path_1487" data-name="Path 1487" d="M473.864,440.006h-1.3V438.73h1.3Zm-.019-1.924h-1.257c0-1.984,1.885-1.867,1.885-3.123a1.25,1.25,0,0,0-1.257-1.245,1.284,1.284,0,0,0-1.26,1.265H470.7a2.514,2.514,0,1,1,5.028-.02C475.729,436.528,473.845,436.708,473.845,438.082Z" transform="translate(-443.626 -403.338)" fill="#6c63ff" opacity="0.1"/>
    <path id="Path_1488" data-name="Path 1488" d="M567.151,249.842h-.939v-.923h.939Zm-.014-1.4h-.911c0-1.437,1.366-1.353,1.366-2.263a.907.907,0,0,0-.911-.9.93.93,0,0,0-.911.917h-.911a1.822,1.822,0,1,1,3.644-.014C568.5,247.321,567.137,247.451,567.137,248.447Z" transform="translate(-530.946 -228.915)" fill="#6c63ff" opacity="0.1"/>
    <path id="Path_1489" data-name="Path 1489" d="M800.668,298.522h-.531V298h.531Zm-.008-.788h-.518c0-.812.772-.765.772-1.279a.509.509,0,0,0-.514-.508.526.526,0,0,0-.515.518h-.515a1.03,1.03,0,0,1,2.059-.008C801.432,297.1,800.66,297.171,800.66,297.734Z" transform="translate(-748.422 -276.292)" fill="#6c63ff" opacity="0.1"/>
    <path id="Path_1490" data-name="Path 1490" d="M912.465,625.993h-.531v-.523h.531Zm-.008-.788h-.515c0-.813.773-.765.773-1.279a.512.512,0,0,0-.515-.509.525.525,0,0,0-.515.518h-.515a1.03,1.03,0,0,1,2.059-.008c0,.641-.769.715-.769,1.278Z" transform="translate(-852.101 -579.976)" fill="#6c63ff" opacity="0.1"/>
  </g>
</svg>
