<svg xmlns="http://www.w3.org/2000/svg" width="70.152" height="47.837" viewBox="0 0 70.152 47.837">
  <g id="Group_12" data-name="Group 12" transform="translate(0.015 0)">
    <ellipse id="Ellipse_7" data-name="Ellipse 7" cx="12.688" cy="0.825" rx="12.688" ry="0.825" transform="translate(-0.015 43.32) rotate(-0.092)" fill="#e6e6e6"/>
    <ellipse id="Ellipse_8" data-name="Ellipse 8" cx="9.963" cy="0.647" rx="9.963" ry="0.647" transform="translate(29.549 32.864) rotate(-0.092)" fill="#e6e6e6"/>
    <ellipse id="Ellipse_9" data-name="Ellipse 9" cx="12.588" cy="2.224" rx="12.588" ry="2.224" transform="translate(44.954 40.922) rotate(-0.092)" fill="#e6e6e6"/>
    <path id="Path_989" data-name="Path 989" d="M294.31,386.141l1.429-.4s.56-.112.218-1.2-1.02-.787-1.02-.787l-1.267.368-.5.155.7.988.059.658Z" transform="translate(-279.753 -364.47)" fill="#3f3d56"/>
    <path id="Path_990" data-name="Path 990" d="M161.512,263.373l-.448,1.791,2.3,2.226.2.049.527-.148.448-1.79-.454-.477.464-.122-.99-.961-.517.108-.415-.412.28-.112.026-.105-.339-.267Z" transform="translate(-149.716 -244.59)" fill="#3f3d56"/>
    <path id="Path_991" data-name="Path 991" d="M175.977,284.807l-.3,1.185-1.369-1.294.343-1.2Z" transform="translate(-162.03 -263.498)" fill="#6c63ff"/>
    <path id="Path_992" data-name="Path 992" d="M166.59,263.373l-.063.251,2.284,2.222.2.049.51-.138h.028l.064-.256-.454-.477.464-.122-.99-.961-.517.108-.415-.412.28-.112.026-.105-.339-.267Z" transform="translate(-154.794 -244.59)" fill="none" stroke="#3f3d56" stroke-miterlimit="10" stroke-width="1"/>
    <ellipse id="Ellipse_10" data-name="Ellipse 10" cx="0.129" cy="0.19" rx="0.129" ry="0.19" transform="translate(12.635 18.839) rotate(-75.943)" fill="#6c63ff"/>
    <ellipse id="Ellipse_11" data-name="Ellipse 11" cx="0.129" cy="0.19" rx="0.129" ry="0.19" transform="translate(14.086 20.756) rotate(-75.943)" fill="#6c63ff"/>
    <path id="Path_993" data-name="Path 993" d="M303.923,407.726l-.312-1.059s.81-1.932-.125-2.119-1,1.807-1,1.807l.374,1.184Z" transform="translate(-288.417 -383.825)" fill="#ffb6b6"/>
    <circle id="Ellipse_12" data-name="Ellipse 12" cx="2.475" cy="2.475" r="2.475" transform="translate(7.246 16.891)" fill="#ffb6b6"/>
    <path id="Path_994" data-name="Path 994" d="M215.992,404.488s.146,1.82.51,1.966-3.254,1.165-3.254,1.165l1.092-1.238a6.84,6.84,0,0,0-.968-2.33Z" transform="translate(-205.47 -383.374)" fill="#ffb6b6"/>
    <path id="Path_995" data-name="Path 995" d="M301.606,440.169l1-.125s1.184.623,1.184,1.433a6.235,6.235,0,0,0,.685,2.119s.5,1.745-.623,1.869-2.119-1.869-2.119-1.869Z" transform="translate(-287.596 -416.828)" fill="#f90911"/>
    <path id="Path_996" data-name="Path 996" d="M197.715,559.363l2.01-1.385a1.947,1.947,0,0,1,2.179-.039.919.919,0,0,1,.485.739c0,.935-2.056,3.116-2.056,3.116s-1.558,3.427-3.053,3.552a25.83,25.83,0,0,0-2.929.436s.685,2.492.312,3.178a4.186,4.186,0,0,1-1.932,1.433,9.556,9.556,0,0,1-2.617-3.988c-.748-2.306-1.246-4.05-.561-4.175S197.715,559.363,197.715,559.363Z" transform="translate(-183.144 -526.115)" fill="#2f2e41"/>
    <path id="Path_997" data-name="Path 997" d="M334.241,569.885s.436-.062.374,1a37.953,37.953,0,0,1-.561,5.608,3.313,3.313,0,0,0-.249,1.932c.125.312.374.81-.062.872a13.273,13.273,0,0,1-2.43-.249c-.187-.062.748-2.492.623-2.617a27.419,27.419,0,0,1-.249-3.053Z" transform="translate(-315.184 -537.509)" fill="#2f2e41"/>
    <path id="Path_998" data-name="Path 998" d="M333.837,696.523s1.059-.312,1.184.374c0,0,.187,1.059-.623,1.433a10.01,10.01,0,0,0-1.5.872s-1.309.5-1.371-.125a23.187,23.187,0,0,1,.249-2.866Z" transform="translate(-315.402 -654.925)" fill="#2f2e41"/>
    <path id="Path_999" data-name="Path 999" d="M233.591,689.881l-1.994-1.62s.374,1.994-.125,2.368l-.228.666.638.522S233.84,691.5,233.591,689.881Z" transform="translate(-222.198 -647.535)" fill="#2f2e41"/>
    <path id="Path_1000" data-name="Path 1000" d="M194.431,672.181a1.55,1.55,0,0,1,1.122,1.682c-.187,1.309-.427,2.73-.427,2.73s-.072,3.5-1.007,3.75-1.184-.249-1.184-.249-1.062-2.736-.748-3.552c.381-.988.93-2.1.748-2.43S193.061,671.994,194.431,672.181Z" transform="translate(-185.842 -632.577)" fill="#2f2e41"/>
    <path id="Path_1001" data-name="Path 1001" d="M182.792,425.88s.5.062,1.309.187,1.371-.5,1.807-.374,4.05,1,4.05,1l-.313,2.4a8.039,8.039,0,0,1-.683,2.26c-.526,1.164.253,4.811,1,5.5.646.6,1.5.748.561,1.807s-2.555,1.994-5.857,1.682-3.739-.249-3.739-.748,1.175-7.041.8-7.415a1.708,1.708,0,0,1-.561-.935c0-.125-.39-1.531-.648-2.449a2.618,2.618,0,0,1,.2-1.942c.117-.219.251-.387.391-.407.436-.062.133-.374.445-.374a2.481,2.481,0,0,0,.685,0Z" transform="translate(-174.951 -403.474)" fill="#f90911"/>
    <path id="Path_1002" data-name="Path 1002" d="M202.769,335.456s-.056-3.059-3.059-1.611c0,0-2.309-.081-2.632,2.839l-.312,3.057.335-.252.224.346.611.062.179-.538.212.59,4.9-.23a4.708,4.708,0,0,1-2.723-3.247l.476.375Z" transform="translate(-190.152 -317.759)" fill="#2f2e41"/>
    <circle id="Ellipse_13" data-name="Ellipse 13" cx="1.227" cy="1.227" r="1.227" transform="translate(5.748 15.269)" fill="#2f2e41"/>
    <path id="Path_1003" data-name="Path 1003" d="M200.793,324.751a1.226,1.226,0,0,0-1.381-.956c.025-.007.049-.014.074-.02a1.227,1.227,0,0,1,.513,2.4c-.025.005-.051.008-.076.012A1.226,1.226,0,0,0,200.793,324.751Z" transform="translate(-192.611 -308.736)" fill="#2f2e41"/>
    <circle id="Ellipse_14" data-name="Ellipse 14" cx="2.023" cy="2.023" r="2.023" transform="translate(36.184 3.371)" fill="#2f2e41"/>
    <path id="Path_1004" data-name="Path 1004" d="M636.434,206.489s-.03,1.249.091,1.279a15.724,15.724,0,0,1-1.675.518l-.183-1.705Z" transform="translate(-597.163 -199.749)" fill="#ffb8b8"/>
    <path id="Path_1005" data-name="Path 1005" d="M436.47,355.422s-1.34,0-1.37-.152a8.339,8.339,0,0,0-.3,1.249l.548.183s1.035-.457,1.127-.457S436.47,355.422,436.47,355.422Z" transform="translate(-411.389 -338.024)" fill="#ffb8b8"/>
    <path id="Path_1006" data-name="Path 1006" d="M422.426,334.374s.244-.822.548-.853c0,0-1.035-.67-1.066-.883s-.4-.761-.548-.579a9.114,9.114,0,0,0,.122,3.38c.274.3,1.492-.428,1.492-.428S422.213,334.679,422.426,334.374Z" transform="translate(-398.807 -316.427)" fill="#2f2e41"/>
    <path id="Path_1007" data-name="Path 1007" d="M557.792,419.757l.244,1.309-1.127.183v-1.492Z" transform="translate(-517.638 -390.147)" fill="#ffb8b8"/>
    <path id="Path_1008" data-name="Path 1008" d="M654.152,540.545s.183-.579.3-.487a1.561,1.561,0,0,1,.274.822,6.4,6.4,0,0,0-.152,1.553c.091.213-.457,1.309-1.157,1.218a.656.656,0,0,1-.64-.7l.244-.944.091-1.492A2.416,2.416,0,0,1,654.152,540.545Z" transform="translate(-613.997 -509.778)" fill="#2f2e41"/>
    <circle id="Ellipse_15" data-name="Ellipse 15" cx="0.837" cy="0.837" r="0.837" transform="translate(38.077 2.428)" fill="#2f2e41"/>
    <path id="Path_1009" data-name="Path 1009" d="M660.581,139.767a.837.837,0,0,0-.75-.832.847.847,0,0,1,.087,0,.837.837,0,1,1-.087,1.669A.837.837,0,0,0,660.581,139.767Z" transform="translate(-620.551 -136.955)" fill="#2f2e41"/>
    <circle id="Ellipse_16" data-name="Ellipse 16" cx="1.279" cy="1.279" r="1.279" transform="translate(36.927 5.035)" fill="#ffb8b8"/>
    <path id="Path_1010" data-name="Path 1010" d="M467.771,324.415a12.262,12.262,0,0,1-.3,2.314,42.809,42.809,0,0,0-.939,6.857c.183.426,1.122,5.141.909,5.415s-1.218.183-1.218.183l-1.366-5.72s.269-6.309-1.984-6.461-5.938-.244-5.938-.244a16.72,16.72,0,0,1-3.441.67,3.791,3.791,0,0,0-1.675.274l-.183-1.249,4.72-1.035s4.324-1.492,6.7-1.1A18.283,18.283,0,0,0,467.771,324.415Z" transform="translate(-427.038 -309.209)" fill="#2f2e41"/>
    <path id="Path_1011" data-name="Path 1011" d="M614.123,217.76s.365-.213.457,0a.868.868,0,0,0,.974.213c.244-.183.853.061.853.061l.67,1.979s-.335,1.705-.64,2.649a8.846,8.846,0,0,0-.3,3.076c.122.183-2.436.914-3.685.457s-1.523-.974-1.523-.974,1.37-1.949.914-2.863a2.773,2.773,0,0,1-.091-1.949l-.183-1.035,1.035-.579s.061-.548.3-.548A6.251,6.251,0,0,0,614.123,217.76Z" transform="translate(-575.095 -210.136)" fill="#d0cde1"/>
    <path id="Path_1012" data-name="Path 1012" d="M616.181,242.32h-.457a1.022,1.022,0,0,0-.3.944c.122.579.671,2.5.671,2.5l.456-1.187Z" transform="translate(-579.254 -233.052)" fill="#d0cde1"/>
    <path id="Path_1013" data-name="Path 1013" d="M601.451,311.647s-.911.987-.241,1.5.835-1.188.835-1.188Z" transform="translate(-565.836 -297.489)" fill="#ffb8b8"/>
    <path id="Path_1014" data-name="Path 1014" d="M602.392,282.467l-.213.853-.365.67s-1.249.822-1.249,1.127a.787.787,0,0,1,1.249,0l.624-1.507Z" transform="translate(-565.465 -270.367)" fill="#d0cde1"/>
    <ellipse id="Ellipse_17" data-name="Ellipse 17" cx="1.395" cy="0.837" rx="1.395" ry="0.837" transform="translate(36.576 4.128)" fill="#2f2e41"/>
    <path id="Path_1015" data-name="Path 1015" d="M661.534,178.417s-.974-.548-1.37-.152,1.188,1,1.188,1Z" transform="translate(-620.801 -173.382)" fill="#ffb8b8"/>
    <path id="Path_1016" data-name="Path 1016" d="M671.564,182.445l.213-.152s.244-.365.457-.244,1.462-.457,1.462-.457-.457.213-.457-.152-.061-.3-.365-.3-.3.152-.426-.061-.061-.335-.274-.213a.427.427,0,0,1-.518-.061,6.066,6.066,0,0,0-1.157-.244,13.122,13.122,0,0,1,.518-1.34,19.27,19.27,0,0,1,2.436.944s2.954.822,2.193,1.766a16.224,16.224,0,0,1-3.5,2.375Z" transform="translate(-630.466 -174.396)" fill="#d0cde1"/>
    <path id="Path_1017" data-name="Path 1017" d="M766.407,110.933l5.494.034s9.043,4.811,2.7,14.775a7.082,7.082,0,0,0-5.46,1.5S767.465,111.308,766.407,110.933Z" transform="translate(-719.609 -110.933)" fill="#84e8a5"/>
    <path id="Path_1018" data-name="Path 1018" d="M768.041,111.506c.984,4.111,2.1,14.715,2.1,14.715a7.208,7.208,0,0,1,5.373-1.518,18.2,18.2,0,0,1-.914,1.6,7.082,7.082,0,0,0-5.46,1.5s-1.672-15.936-2.73-16.311Z" transform="translate(-719.609 -111.457)" opacity="0.2"/>
    <path id="Path_1019" data-name="Path 1019" d="M780.189,53.26l.478,2.32,6-1.091h0l.136-2.73h-1.16Z" transform="translate(-725.167 -48.108)" fill="#3f3d56"/>
    <path id="Path_1020" data-name="Path 1020" d="M858.959,51.759l.925,2.731h0l.136-2.73Z" transform="translate(-798.38 -48.108)" opacity="0.2"/>
    <ellipse id="Ellipse_18" data-name="Ellipse 18" cx="0.682" cy="1.57" rx="0.682" ry="1.57" transform="translate(54.544 4.606)" fill="#3f3d56"/>
    <path id="Path_1021" data-name="Path 1021" d="M933.448,228.912a.209.209,0,0,1-.209-.209V195.74a.209.209,0,0,1,.417,0V228.7a.209.209,0,0,1-.209.209Z" transform="translate(-874.672 -189.564)" fill="#3f3d56"/>
    <path id="Path_1022" data-name="Path 1022" d="M830.769,551.855a.209.209,0,0,1-.2-.249l2.663-13.651-6.993,10.666a.209.209,0,1,1-.349-.229h0l7.575-11.555a.209.209,0,0,1,.379.154l-2.866,14.694A.209.209,0,0,1,830.769,551.855Z" transform="translate(-774.859 -506.706)" fill="#3f3d56"/>
    <path id="Path_1023" data-name="Path 1023" d="M941.364,549.542a.208.208,0,0,1-.175-.094l-7.916-12.08a.209.209,0,0,1,.349-.229h0l7.917,12.08a.209.209,0,0,1-.174.323Z" transform="translate(-874.672 -506.987)" fill="#3f3d56"/>
  </g>
</svg>
