<svg xmlns="http://www.w3.org/2000/svg" width="70.448" height="70.448" viewBox="0 0 70.448 70.448">
  <g id="Group_14" data-name="Group 14" transform="translate(0)">
    <path id="Path_1027" data-name="Path 1027" d="M332.448,147.224a35.13,35.13,0,0,1-2.558,13.2l-.011.027h0a35.069,35.069,0,0,1-4.459,7.883q-.527.7-1.087,1.378c-.137.165-.275.328-.414.49q-1.071,1.243-2.253,2.381-.275.266-.557.525l-.131.121A35.219,35.219,0,0,1,318.1,175.6q-1.008.746-2.07,1.416-.233.148-.469.292-.41.25-.826.489-.544.313-1.1.605c-.15.08-.3.157-.452.234-.221.114-.443.223-.667.33l-.116.055c-.146.071-.294.14-.442.208a34.9,34.9,0,0,1-5.988,2.125l-.033.008c-.134.034-.27.068-.405.1-.1.025-.2.049-.305.072a.26.26,0,0,1-.039.009c-.209.049-.419.1-.63.139l-.356.074c-.072.016-.145.029-.217.043l-.271.052c-.05.01-.1.019-.151.027l-.343.061c-.194.033-.39.066-.585.095-.142.022-.282.043-.424.063-.167.024-.333.046-.5.067-.046.007-.092.012-.138.018l-.178.022c-.12.015-.24.028-.361.041l-.187.02q-.178.019-.356.034c-.153.015-.306.027-.461.04-.188.015-.374.028-.563.04l-.364.021c-.311.017-.621.028-.934.036-.155,0-.312.007-.468.009h0c-.155,0-.312,0-.468,0a35.347,35.347,0,0,1-4.737-.317q-1.727-.231-3.4-.627l-.133-.032c-.113-.026-.224-.054-.336-.082l-.3-.077a34.949,34.949,0,0,1-7.357-2.834l-.035-.019c-.068-.035-.134-.07-.2-.106q-.22-.116-.439-.236-1.243-.683-2.422-1.461-.3-.2-.6-.4l-.189-.131-.2-.138q-.258-.183-.513-.37-1.055-.775-2.048-1.627a35.4,35.4,0,0,1-6.165-6.862q-.914-1.332-1.707-2.749a35.227,35.227,0,1,1,66-17.152Z" transform="translate(-262 -112)" fill="#4aa791"/>
    <path id="Path_1028" data-name="Path 1028" d="M654.35,361.838c.113-.026.224-.054.336-.082l.3-.077c.005-.207.013-.436.02-.683.061-1.934.206-5.048.548-8.8q.028-.3.056-.608c.122-1.271.265-2.608.436-3.994.005-.046.011-.091.017-.137.139-1.123.3-2.277.473-3.453q.186-1.233.4-2.494l.031-.176c.042-.243.084-.485.128-.728.122-.678.252-1.361.389-2.044.48-2.4,1.053-4.817,1.735-7.167a57.4,57.4,0,0,1,2.556-7.15,35.314,35.314,0,0,1,2.787-5.193l.047-.071a19.928,19.928,0,0,1,4.725-5.126l-.371-.506a20.466,20.466,0,0,0-4.715,5.013l-.021.03a34.126,34.126,0,0,0-2.805,5.029,54.973,54.973,0,0,0-2.676,7.229q-1.025,3.442-1.839,7.459-.286,1.415-.546,2.9l-.088.508s0,.005,0,.007c-.045.261-.088.521-.131.785q-.163,1-.306,1.976-.222,1.51-.4,2.968-.059.481-.115.956-.078.669-.148,1.32-.1.907-.18,1.775l-.016.159-.025.274C654.524,356.3,654.392,359.987,654.35,361.838Z" transform="translate(-613.462 -292.367)" opacity="0.2"/>
    <path id="Path_1029" data-name="Path 1029" d="M731.01,597.438l.035-.019c.215-.112.427-.225.64-.342.07-.832.164-1.746.287-2.706.026-.2.052-.4.081-.6.015-.108.03-.218.046-.328.123-.846.269-1.72.444-2.6.712-3.581,1.894-7.241,3.856-9.5.105-.122.213-.239.324-.352a7.049,7.049,0,0,1,.9-.787l-.371-.505a8.036,8.036,0,0,0-1.23,1.124q-.2.217-.381.452c-1.806,2.273-2.934,5.638-3.636,8.97-.183.869-.338,1.737-.469,2.582q-.05.331-.1.657C731.234,594.917,731.1,596.27,731.01,597.438Z" transform="translate(-682.133 -530.959)" opacity="0.2"/>
    <circle id="Ellipse_19" data-name="Ellipse 19" cx="3.136" cy="3.136" r="3.136" transform="translate(56.238 15.204)" opacity="0.2"/>
    <circle id="Ellipse_20" data-name="Ellipse 20" cx="3.136" cy="3.136" r="3.136" transform="translate(55.229 42.196)" opacity="0.2"/>
    <path id="Path_1030" data-name="Path 1030" d="M676.3,283.192a13.928,13.928,0,0,1-.8,7.148,12.693,12.693,0,0,1-2.408-13.585A13.929,13.929,0,0,1,676.3,283.192Z" transform="translate(-629.374 -259.586)" opacity="0.2"/>
    <path id="Path_1031" data-name="Path 1031" d="M750.619,384.992a14,14,0,0,1-7.174.469,12.771,12.771,0,0,1,12.958-4.738A14,14,0,0,1,750.619,384.992Z" transform="translate(-693.273 -352.481)" opacity="0.2"/>
    <path id="Path_1032" data-name="Path 1032" d="M774.854,625.879a9.762,9.762,0,0,1-5.032.319,8.9,8.9,0,0,1,9.082-3.321A9.762,9.762,0,0,1,774.854,625.879Z" transform="translate(-716.901 -569.465)" opacity="0.2"/>
    <path id="Path_1033" data-name="Path 1033" d="M701.96,648.27l.127.066C702.075,648.471,702.044,648.555,701.96,648.27Z" transform="translate(-656.111 -592.384)" fill="#2f2e41"/>
    <path id="Path_1034" data-name="Path 1034" d="M703.221,646.614c0,.015,0,.03,0,.045l-.045-.023c0-.014,0-.028,0-.043C703.194,646.411,703.182,646.2,703.221,646.614Z" transform="translate(-657.203 -590.684)" fill="#2f2e41"/>
    <path id="Path_1043" data-name="Path 1043" d="M17.113,0A17.113,17.113,0,1,1,0,17.113,17.113,17.113,0,0,1,17.113,0Z" transform="translate(15.368 16.719)" fill="#f90911"/>
    <circle id="Ellipse_22" data-name="Ellipse 22" cx="10.363" cy="10.363" r="10.363" transform="translate(23.526 29.52)" fill="#d0cde1"/>
    <path id="Path_1035" data-name="Path 1035" d="M443.083,566.538l-.013,0-2.41.578-5.019,1.2-.685.165-7.633,1.831-.648.156-18.518,4.444a34.765,34.765,0,0,1-3.663-1.65l-.035-.019c-.068-.035-.134-.07-.2-.106q-.22-.116-.439-.235-1.243-.683-2.422-1.461-.3-.2-.6-.4l-.189-.131-.2-.138q-.258-.183-.513-.37c1.8-3.269,6.082-5.442,10.365-6.631,3.233-.9,3.943-3.851,3.882-6.478a15.31,15.31,0,0,0-.152-1.79,17.451,17.451,0,0,0-.621-2.787l10.364.346,1.069,2.464a5.582,5.582,0,0,0-.028.815,4.919,4.919,0,0,0,2.868,4.171c.2.109.405.212.614.306a16.243,16.243,0,0,0,5.5,1.226,10.581,10.581,0,0,1,2.719.051q.328.05.638.12a9.187,9.187,0,0,1,3.346,1.5,9.545,9.545,0,0,1,1.085.9A8.616,8.616,0,0,1,443.083,566.538Z" transform="translate(-385.529 -506.791)" fill="#d0cde1"/>
    <path id="Path_1036" data-name="Path 1036" d="M750.5,680.737l-.131.121a35.229,35.229,0,0,1-2.882,2.366q-1.008.746-2.07,1.416-.233.149-.469.292-.41.25-.826.489-.544.313-1.1.605c-.15.08-.3.157-.452.234-.221.114-.443.223-.667.33l-.116.055-.441-.366,5.177-6.328,1.041-1.273a2.9,2.9,0,0,1,1.369.694,13.658,13.658,0,0,1,1.49,1.286C750.443,680.686,750.469,680.711,750.5,680.737Z" transform="translate(-691.387 -619.624)" fill="#d0cde1"/>
    <path id="Path_1037" data-name="Path 1037" d="M482.026,668.8a1.181,1.181,0,0,1-.058.192,35.221,35.221,0,0,1-2.881,2.366,12.3,12.3,0,0,1-2.688.639s.078.392.149,1.069q-.41.25-.826.489-.544.313-1.1.605c-.15.08-.3.157-.452.234-.221.114-.443.223-.667.33l-.116.055c-.146.071-.294.14-.442.208a34.9,34.9,0,0,1-5.988,2.125l-.033.008c-.134.034-.27.068-.405.1-.1.025-.2.049-.305.072a.247.247,0,0,1-.039.009c-.209.049-.419.1-.63.139l-.356.074c-.072.016-.145.029-.217.043l-.271.052c-.05.01-.1.019-.151.027l-.343.061c-.194.033-.39.066-.585.095-.142.022-.282.043-.424.063-.167.024-.333.046-.5.067-.046.007-.092.013-.138.018l-.178.022c-.12.015-.24.028-.361.041l-.187.02q-.178.019-.356.034c-.153.015-.306.027-.461.04-.188.015-.374.028-.563.04l-.364.021c-.311.017-.621.028-.934.036-.155,0-.312.007-.468.009h0c-.155,0-.312,0-.468,0a35.346,35.346,0,0,1-4.736-.317q-1.727-.231-3.4-.627l-.133-.032c-.113-.026-.224-.054-.336-.082l-.3-.077a34.951,34.951,0,0,1-7.357-2.834l-.035-.019c-.068-.035-.134-.07-.2-.106,5.72-1.333,14.76-3.435,22.6-5.236l.655-.15c2.9-.665,5.611-1.284,7.907-1.8l.7-.156c2.467-.554,4.382-.975,5.421-1.186a8.5,8.5,0,0,1,.848-.149l2.169,3.361Z" transform="translate(-422.991 -607.755)" fill="#2f2e41"/>
    <circle id="Ellipse_23" data-name="Ellipse 23" cx="5.097" cy="5.097" r="5.097" transform="translate(11.727 16.355)" fill="#f90911"/>
    <circle id="Ellipse_24" data-name="Ellipse 24" cx="5.097" cy="5.097" r="5.097" transform="translate(43.04 14.899)" fill="#f90911"/>
    <path id="Path_1038" data-name="Path 1038" d="M662.052,239.1a5.1,5.1,0,0,1,4.551-5.067,5.1,5.1,0,1,0,0,10.134A5.1,5.1,0,0,1,662.052,239.1Z" transform="translate(-619.376 -221.285)" fill="#f90911"/>
    <path id="Path_1039" data-name="Path 1039" d="M349.523,298.925a5.1,5.1,0,0,1-.3-6.8,5.1,5.1,0,1,0,7.093,7.239A5.1,5.1,0,0,1,349.523,298.925Z" transform="translate(-338.394 -273.349)" fill="#f90911"/>
    <path id="Path_1040" data-name="Path 1040" d="M479.792,359.777c-6.033,0-10.923,2.853-10.923,6.372a5.182,5.182,0,0,0,2.606,4.125l2.1-1.524-.572,2.387c.237.11.48.216.732.315l3.141-3.665v4.5a18.336,18.336,0,0,0,2.913.231c6.033,0,10.923-2.853,10.923-6.372S485.825,359.777,479.792,359.777Z" transform="translate(-447.311 -333.955)" fill="#f90911"/>
    <path id="Path_1041" data-name="Path 1041" d="M674.6,303.876s-.792,3.641,4.155,5.1Z" transform="translate(-631.563 -283.88)" fill="#f90911"/>
    <path id="Path_1042" data-name="Path 1042" d="M437.572,310.235s1.82,4.071-3.641,5.891Z" transform="translate(-416.014 -289.576)" fill="#f90911"/>
    <ellipse id="Ellipse_25" data-name="Ellipse 25" cx="0.864" cy="2.073" rx="0.864" ry="2.073" transform="translate(22.309 40.194) rotate(-15.639)" fill="#d0cde1"/>
    <ellipse id="Ellipse_26" data-name="Ellipse 26" cx="2.073" cy="0.864" rx="2.073" ry="0.864" transform="translate(43.437 42.245) rotate(-86.476)" fill="#d0cde1"/>
  </g>
</svg>
