<svg xmlns="http://www.w3.org/2000/svg" width="16.429" height="16.429" viewBox="0 0 16.429 16.429">
  <path id="Icon_metro-cross" data-name="Icon metro-cross" d="M17.422,14.056h0L12.438,9.071l4.984-4.984h0a.515.515,0,0,0,0-.726L15.067,1.007a.515.515,0,0,0-.726,0h0L9.357,5.991,4.373,1.007h0a.515.515,0,0,0-.726,0L1.293,3.361a.515.515,0,0,0,0,.726h0L6.277,9.071,1.293,14.055h0a.515.515,0,0,0,0,.726l2.354,2.354a.515.515,0,0,0,.726,0h0l4.984-4.984,4.984,4.984h0a.514.514,0,0,0,.726,0l2.354-2.354a.514.514,0,0,0,0-.726Z" transform="translate(-1.143 -0.857)" fill="#ff3030"/>
</svg>
