<svg xmlns="http://www.w3.org/2000/svg" xmlns:xlink="http://www.w3.org/1999/xlink" width="65.237" height="48.468" viewBox="0 0 65.237 48.468">
  <defs>
    <linearGradient id="linear-gradient" x1="0.5" y1="1" x2="0.5" gradientUnits="objectBoundingBox">
      <stop offset="0" stop-color="gray" stop-opacity="0.251"/>
      <stop offset="0.54" stop-color="gray" stop-opacity="0.122"/>
      <stop offset="1" stop-color="gray" stop-opacity="0.102"/>
    </linearGradient>
    <linearGradient id="linear-gradient-2" x1="0.5" y1="1" x2="0.5" y2="0" xlink:href="#linear-gradient"/>
    <linearGradient id="linear-gradient-3" x1="0.5" y1="1" x2="0.5" y2="0" xlink:href="#linear-gradient"/>
    <linearGradient id="linear-gradient-4" x1="0.5" y1="1.039" x2="0.5" y2="0.047" xlink:href="#linear-gradient"/>
  </defs>
  <g id="Group_22" data-name="Group 22" transform="translate(-0.015 0.001)">
    <path id="Path_1161" data-name="Path 1161" d="M105.3,53.728A34.321,34.321,0,0,1,94.16,50.962a62.824,62.824,0,0,0-10.847-3.626c-2.443-.468-5.238-.535-7.207.776-1.895,1.263-2.507,3.436-2.836,5.456a7.589,7.589,0,0,0,.285,4.541,33.426,33.426,0,0,0,1.886,2.763c2.013,3.291.59,7.349-1.591,10.563a40.131,40.131,0,0,0-3,4.55,6.151,6.151,0,0,0-.461,5.083,8.041,8.041,0,0,0,4.083,3.7C78.063,86.5,82.291,87,86.417,87.285c9.131.624,18.31.354,27.465.083a80.528,80.528,0,0,0,10.124-.726,10.586,10.586,0,0,0,5.106-1.864,4.276,4.276,0,0,0,.985-5.586c-1.917-2.976-7.217-3.715-8.558-6.909-.737-1.758.02-3.717,1.092-5.347,2.3-3.5,6.154-6.567,6.357-10.565a7.392,7.392,0,0,0-4.579-6.8c-3-1.362-7.167-1.19-9.382,1.064C112.745,52.954,108.736,53.848,105.3,53.728Z" transform="translate(-69.264 -47.03)" fill="#6c63ff" opacity="0.1"/>
    <path id="Path_1162" data-name="Path 1162" d="M161.56,730.793a2.362,2.362,0,0,1,2.021.69s-.556.438-1.751-.168Z" transform="translate(-155.295 -689.655)" fill="#6c63ff"/>
    <path id="Path_1163" data-name="Path 1163" d="M151.2,730.78a2.361,2.361,0,0,0-.41,2.1s.657-.263.728-1.6Z" transform="translate(-145.066 -689.661)" fill="#6c63ff"/>
    <path id="Path_1164" data-name="Path 1164" d="M147.28,698.652s.505-.926,2.526.37a1.134,1.134,0,0,1-1.162.573A1.37,1.37,0,0,1,147.28,698.652Z" transform="translate(-141.874 -659.164)" fill="#6c63ff"/>
    <path id="Path_1165" data-name="Path 1165" d="M127.14,702.534s-1.048-.12-1.15,2.279a1.135,1.135,0,0,0,1.137-.621A1.366,1.366,0,0,0,127.14,702.534Z" transform="translate(-121.864 -663.113)" fill="#6c63ff"/>
    <path id="Path_1166" data-name="Path 1166" d="M135,656.837s.589-1.634,2.728-.471c0,0-.488,1.5-2.509,1.027Z" transform="translate(-130.332 -619.329)" fill="#6c63ff"/>
    <path id="Path_1167" data-name="Path 1167" d="M124,618.08s1.112-1.65,3.082-.12c0,0-.69,1.55-2.914.707Z" transform="translate(-119.994 -583.015)" fill="#6c63ff"/>
    <path id="Path_1168" data-name="Path 1168" d="M120.11,580.954s1.3-1.516,3.251,0a2.775,2.775,0,0,1-3.248.387Z" transform="translate(-116.338 -548.212)" fill="#6c63ff"/>
    <path id="Path_1169" data-name="Path 1169" d="M116.75,542.605a2.18,2.18,0,0,1,3.183-.084,2.832,2.832,0,0,1-3.183.455Z" transform="translate(-113.18 -512.118)" fill="#6c63ff"/>
    <path id="Path_1170" data-name="Path 1170" d="M118.71,502.868s1.383-2.038,3.133-.657c0,0-1.482,1.752-3.133,1.045Z" transform="translate(-115.022 -474.387)" fill="#6c63ff"/>
    <path id="Path_1171" data-name="Path 1171" d="M124,465.208s1.466-2.021,3.166-.471c0,0-1.734,1.751-3.166.842Z" transform="translate(-119.994 -439.067)" fill="#6c63ff"/>
    <path id="Path_1172" data-name="Path 1172" d="M130.976,426.283s1.734-1.9,3.248-1.143c0,0-1.808,2.016-3.323,1.646Z" transform="translate(-126.479 -402.235)" fill="#6c63ff"/>
    <path id="Path_1173" data-name="Path 1173" d="M140.022,387.316s2-2.324,3.166-1.549a5.813,5.813,0,0,1-3.308,1.985Z" transform="translate(-134.919 -365.248)" fill="#6c63ff"/>
    <path id="Path_1174" data-name="Path 1174" d="M153.115,352.235s1.752-1.9,3.032-1.425c0,0-1.5,1.971-3.267,2.021Z" transform="translate(-147.137 -332.471)" fill="#6c63ff"/>
    <path id="Path_1175" data-name="Path 1175" d="M168.684,315.9s1.936-1.819,2.778-1.5c0,0-1.4,2.021-2.863,1.9Z" transform="translate(-161.912 -298.286)" fill="#6c63ff"/>
    <path id="Path_1176" data-name="Path 1176" d="M182.84,275.408s1.667-2.172,2.576-2c0,0-1.01,1.936-2.576,2.225Z" transform="translate(-175.295 -259.783)" fill="#6c63ff"/>
    <path id="Path_1177" data-name="Path 1177" d="M195.871,236.362s1.473-1.666,2.269-1.662c0,0-1.163,2.225-2.33,2.2Z" transform="translate(-187.485 -223.415)" fill="#6c63ff"/>
    <path id="Path_1178" data-name="Path 1178" d="M202.271,178.468,203.694,175s.072,3.136-1.6,4.113Z" transform="translate(-193.388 -167.305)" fill="#6c63ff"/>
    <path id="Path_1179" data-name="Path 1179" d="M214.55,120.1a20.7,20.7,0,0,0,.084-3.132,5.6,5.6,0,0,1-.094,4.412Z" transform="translate(-205.089 -112.765)" fill="#6c63ff"/>
    <path id="Path_1180" data-name="Path 1180" d="M96,667.188s-1.476-.915-2.431,1.323c0,0,1.313.871,2.6-.752Z" transform="translate(-91.394 -629.719)" fill="#6c63ff"/>
    <path id="Path_1181" data-name="Path 1181" d="M81.229,626.364s-1.81-.826-2.689,1.511c0,0,1.4.959,2.854-.921Z" transform="translate(-77.268 -591.391)" fill="#6c63ff"/>
    <path id="Path_1182" data-name="Path 1182" d="M67.958,583.264s-1.3-1.516-3.248,0a2.775,2.775,0,0,0,3.248.387Z" transform="translate(-64.27 -550.383)" fill="#6c63ff"/>
    <path id="Path_1183" data-name="Path 1183" d="M66.253,542.605a2.179,2.179,0,0,0-3.183-.084,2.832,2.832,0,0,0,3.183.455Z" transform="translate(-62.728 -512.118)" fill="#6c63ff"/>
    <path id="Path_1184" data-name="Path 1184" d="M73.014,497.413s-.921-2.285-2.924-1.3c0,0,1.083,2.024,2.843,1.68Z" transform="translate(-69.326 -468.874)" fill="#6c63ff"/>
    <path id="Path_1185" data-name="Path 1185" d="M79.947,457.61s-.915-2.322-2.947-1.245c0,0,1.244,2.128,2.857,1.6Z" transform="translate(-75.82 -431.481)" fill="#6c63ff"/>
    <path id="Path_1186" data-name="Path 1186" d="M103.492,403.774s-.361-2.546-2.042-2.774c0,0,.357,2.685,1.817,3.233Z" transform="translate(-98.8 -379.714)" fill="#6c63ff"/>
    <path id="Path_1187" data-name="Path 1187" d="M119.043,364.4s-.141-3.067-1.533-3.174a5.843,5.843,0,0,0,1.376,3.608Z" transform="translate(-113.894 -342.335)" fill="#6c63ff"/>
    <path id="Path_1188" data-name="Path 1188" d="M131.934,329.5s-.416-2.551-1.744-2.863c0,0,.165,2.471,1.613,3.488Z" transform="translate(-125.812 -309.826)" fill="#6c63ff"/>
    <path id="Path_1189" data-name="Path 1189" d="M157.866,292.6s-.014-2.657-.826-3.047c0,0-.5,2.406.591,3.386Z" transform="translate(-150.938 -274.966)" fill="#6c63ff"/>
    <path id="Path_1190" data-name="Path 1190" d="M168.433,257.592s-.112-2.736-.954-3.122c0,0-.288,2.165.828,3.3Z" transform="translate(-160.826 -241.996)" fill="#6c63ff"/>
    <path id="Path_1191" data-name="Path 1191" d="M186.247,223.077s-.005-2.225-.605-2.747c0,0-.6,2.437.292,3.194Z" transform="translate(-177.745 -209.909)" fill="#6c63ff"/>
    <path id="Path_1192" data-name="Path 1192" d="M191.305,172.963l-.583-3.7s-.8,3.035.612,4.375Z" transform="translate(-182.493 -161.91)" fill="#6c63ff"/>
    <path id="Path_1193" data-name="Path 1193" d="M182.871,126.406a20.821,20.821,0,0,1-1.468-2.766,5.6,5.6,0,0,0,2.045,3.909Z" transform="translate(-173.944 -119.034)" fill="#6c63ff"/>
    <path id="Path_1194" data-name="Path 1194" d="M176.634,97.663s-1.414-3.536-2.054-3.823a4.484,4.484,0,0,1,2.172,3.722Z" transform="translate(-167.532 -91.026)" fill="#6c63ff"/>
    <path id="Path_1195" data-name="Path 1195" d="M194.176,160.75l-.1-.03c1.194-3.893,1.491-6.375.838-7l.07-.073C195.68,154.306,195.4,156.762,194.176,160.75Z" transform="translate(-185.859 -147.239)" fill="#444053"/>
    <path id="Path_1196" data-name="Path 1196" d="M138.763,276.339l-.143-.051c.126-.357.263-.719.407-1.076,1.246-3.105,2.306-5.994,2.987-8.212l.124-.06c-.681,2.225-1.723,5.222-2.97,8.331C139.027,275.624,138.891,275.984,138.763,276.339Z" transform="translate(-133.735 -253.716)" fill="#444053"/>
    <path id="Path_1197" data-name="Path 1197" d="M118.955,439.414a19.666,19.666,0,0,1-3.3-5.92,21.916,21.916,0,0,1-1.305-6.782,25.594,25.594,0,0,1,1.556-9.062l.113.132a23.226,23.226,0,0,0-.177,15.636,19.477,19.477,0,0,0,3.266,5.862Z" transform="translate(-110.913 -395.362)" fill="#444053"/>
    <ellipse id="Ellipse_73" data-name="Ellipse 73" cx="26.881" cy="2.473" rx="26.881" ry="2.473" transform="translate(4.997 41.698)" fill="#6c63ff" opacity="0.1"/>
    <circle id="Ellipse_74" data-name="Ellipse 74" cx="18.553" cy="18.553" r="18.553" transform="translate(11.756 8.467)" fill="#dae31a"/>
    <ellipse id="Ellipse_75" data-name="Ellipse 75" cx="1.924" cy="3.02" rx="1.924" ry="3.02" transform="translate(23.414 19.904)" fill="#444053"/>
    <ellipse id="Ellipse_76" data-name="Ellipse 76" cx="1.924" cy="3.02" rx="1.924" ry="3.02" transform="translate(33.355 19.904)" fill="#444053"/>
    <path id="Path_1198" data-name="Path 1198" d="M384.357,539.731c0,3.617-6.043,9.711-12.14,9.711s-11.908-6.231-11.908-9.849,5.687-.309,11.787-.309S384.357,536.113,384.357,539.731Z" transform="translate(-342.092 -508.382)" fill="#444053"/>
    <path id="Path_1199" data-name="Path 1199" d="M383.029,578.61s10.96,2.439,20.168.069c0,0,1.127,0,.357,1.3a2.074,2.074,0,0,1-.842.79c-1.774.907-8.347,3.587-18.854.169a2.066,2.066,0,0,1-1.364-1.4C382.372,579.1,382.425,578.672,383.029,578.61Z" transform="translate(-362.892 -546.642)" fill="#f6f8fb"/>
    <path id="Path_1200" data-name="Path 1200" d="M323.139,266.68s-5.589,3.573-5.543,9.16S323.139,266.68,323.139,266.68Z" transform="translate(-301.947 -253.472)" opacity="0.05"/>
    <path id="Path_1201" data-name="Path 1201" d="M687.422,332.81c-.1-.383-.33-.39-.33-.39l0-.039-.086-.946a.052.052,0,0,1-.012.013l0-.12a.633.633,0,0,0-.006-.068.789.789,0,0,0,.289-.4c-.036-.045-.009-.036-.009-.036s-.584-.6-.526-.909-.44-.65-.44-.65a4.461,4.461,0,0,1-.18-.726,8.762,8.762,0,0,0-.682-1.279,10.155,10.155,0,0,0-1.129-2.018c-.528-.606-.481-.936-.481-.936a1.126,1.126,0,0,1-.117-.205,1.314,1.314,0,0,1-.06-.154c.108-.014.18-.016.18-.016s.432-.074.452-.163a.564.564,0,0,1,.147-.266,16.665,16.665,0,0,1-.066-2.208,9.526,9.526,0,0,0-.216-2.433.444.444,0,0,1,.191-.3l.255-.1h0l.129-.031.017,0,.026-.007.06-.015.017,0,.037-.01.014,0,.06-.019.02-.007.028-.01.022-.008.029-.011.032-.015.019-.01.02-.011.016-.01.023-.019.012-.012.014-.016.008-.012,0,0h0a.13.13,0,0,0-.013-.135,1.026,1.026,0,0,0-.229-.235l-.139-.213a.01.01,0,0,1,0,0,.158.158,0,0,1,.007-.035.4.4,0,0,0,.007-.137h0a.033.033,0,0,0,0-.008.354.354,0,0,0,0-.043v-.019a.194.194,0,0,0,0-.041.047.047,0,0,1,0-.021.3.3,0,0,0-.008-.04.232.232,0,0,0-.006-.023c0-.008-.007-.025-.011-.037l-.009-.025-.014-.035-.011-.026-.015-.032-.013-.026-.017-.031-.014-.025-.017-.028-.016-.025-.016-.025-.016-.023-.016-.022-.016-.022-.014-.019-.015-.019-.013-.016-.013-.016-.01-.011-.011-.013-.007-.008-.008-.008,0,0,0,0v-.052a.081.081,0,0,0,0-.028v0a1.833,1.833,0,0,1-.015-.188h0a.5.5,0,0,1,.043-.19.09.09,0,0,0,0-.094l.006-.013c.041-.08-.037-.149-.136-.2,0-.147-.06-.444-.546-.5,0,0-.284-.192-.01-.536s-.162-1.226-.162-1.226-.139-.361-.064-.51a8.725,8.725,0,0,0-.087-1.476,5.265,5.265,0,0,0-.271-1.744c-.271-.52-.455-1.454-.767-1.592a1.678,1.678,0,0,1-.559-.473l-.146.047c-.025-.037-.051-.075-.075-.112h0l.034-.012a.334.334,0,0,0,.157-.146.407.407,0,0,0,.026-.057h0a.634.634,0,0,0,.035-.22,1.114,1.114,0,0,1,.007-.224.868.868,0,0,1,.18-.317,1.464,1.464,0,0,0,.27-.679,1.028,1.028,0,0,0-.171-.7,1.541,1.541,0,0,1-.207-.3c-.021-.052-.03-.107-.045-.16a.8.8,0,0,0-.678-.546c-.256-.023-.508.074-.764.071-.3,0-.6-.14-.88-.036a.865.865,0,0,0-.322.241,2.519,2.519,0,0,0-.189.235h0c-.034.048-.067.1-.1.147v0c-.031.051-.06.1-.088.157a.053.053,0,0,0,0,.04.072.072,0,0,0,.036.034.413.413,0,0,1,.133.077.459.459,0,0,0,.049.048l-.026.031a1.523,1.523,0,0,0,.574,2.329l.031.067a2.851,2.851,0,0,1,.145.395l-.131.012a.165.165,0,0,1-.155.158,4.952,4.952,0,0,0-.641.2,8.2,8.2,0,0,1-1.175.492.962.962,0,0,1-.638.017s-.05.321-.55.144-.566.01-.566.01a18.69,18.69,0,0,0-2.436.1,4.878,4.878,0,0,1-1.474.041s0,.054-.01.142l-.1-.06c-.682-.364-1.94-.93-2.119-.241-.25.958,1.947,1.365,1.947,1.365l.162-.017.106-.011c.02.266.067.481.165.5a6.43,6.43,0,0,1,1.363.136,1.663,1.663,0,0,0,.873-.06.58.58,0,0,1,.385.1,6.4,6.4,0,0,0,1.49.138s.09.019.411.114a2.738,2.738,0,0,0,.889.013l1.327.171a5.1,5.1,0,0,1-.01,1.268,13.071,13.071,0,0,0-.02,2,16.335,16.335,0,0,1,.218,2.264c-.065.186.511-.021.775-.124.014.055.031.12.051.194,0,.007.009.011.019.013l.022.014.028.114-.072.019.094.063a1.042,1.042,0,0,0,.038.112c.078.18-.493.511-.493.511a19.991,19.991,0,0,0-2.05,1.263s-.37.12-.4.235-.361.075-.361.075-.047.124-.085.25a1.12,1.12,0,0,1-.241.318s-.468.073-.535.322a5.12,5.12,0,0,0-.108.585l-.526.957s-1.435,1.069-1.585,1.478l-1.016.681s-.167.373-.464.386-.808.541-.808.541.15.06.371.162c-.013.02-.026.041-.037.06a.964.964,0,0,0-.09.245,1.672,1.672,0,0,1-1.154.233,5.256,5.256,0,0,0-1.222-.279c-.3-.015-.521.055-.458.309a8.8,8.8,0,0,0,1.728,2.06,2.9,2.9,0,0,0,.269.232,2.752,2.752,0,0,0,.4.254,2.7,2.7,0,0,0,.25.115,2.049,2.049,0,0,0,.282.091.477.477,0,0,0,.458-.06c.31-.318.18-.541.18-.541l.035-.026.855-.64.194-.165.054-.046a1.147,1.147,0,0,1-.289.63,4.048,4.048,0,0,1,.669-.312c.3-.094.486-.662.486-.662l.456-.467a2.161,2.161,0,0,0,.346-1.066,7.278,7.278,0,0,0,2.1-2.051s.11-.15.3-.371a1.059,1.059,0,0,0,.2-.587,1.206,1.206,0,0,1,.284-.379c.256-.273.222-.444.222-.444s.12-.168.568-.134a4.659,4.659,0,0,0,1.5-.5,1.3,1.3,0,0,0,.01.133c-.091.211-.152.357-.152.357s.917,3.658.549,4.233c-.191.3.335.072.886-.215.028.034.06.07.1.109a4.7,4.7,0,0,0,.416.4l.018.016s1.116,1.722,1.293,1.924.06.8.06.8a7.086,7.086,0,0,0,.737,2.44,1.015,1.015,0,0,0,.294.155.711.711,0,0,0,.227.471,1.47,1.47,0,0,1-.364.979,4.677,4.677,0,0,0-.788.79c-.155.223-.2.421.02.491a7.925,7.925,0,0,0,2.384-.334,2.49,2.49,0,0,0,.888-.408C687.27,333.19,687.466,332.99,687.422,332.81Zm-14.8-6.882.111.076-.06.048-.025.019a.247.247,0,0,0-.006-.04C672.63,326,672.624,325.963,672.617,325.928Z" transform="translate(-632.14 -289.022)" fill="url(#linear-gradient)"/>
    <path id="Path_1202" data-name="Path 1202" d="M689.89,384.237l-.678.072-.16.017s-2.165-.4-1.918-1.35c.177-.685,1.417-.125,2.09.241.257.139.431.248.431.248Z" transform="translate(-649.243 -362.469)" fill="#d17483"/>
    <path id="Path_1203" data-name="Path 1203" d="M663.361,608.717l-.742.638-.191.164-.445.135-1.1-.973.819-.653.024-.02.663-.528Z" transform="translate(-621.121 -570.948)" fill="#dce6f2"/>
    <path id="Path_1204" data-name="Path 1204" d="M939.408,739.739l-1.048.049.287,1.28.393.135,1.094-.091-.029-.735a.666.666,0,0,0-.7-.638Z" transform="translate(-885.379 -698.08)" fill="#dce6f2"/>
    <path id="Path_1205" data-name="Path 1205" d="M719.9,651.287a5.888,5.888,0,0,0-.774-.445.546.546,0,0,1,.361-.3C719.728,650.491,719.849,650.95,719.9,651.287Z" transform="translate(-679.333 -614.244)" opacity="0.1"/>
    <path id="Path_1206" data-name="Path 1206" d="M733.415,656.385a1.678,1.678,0,0,0-.895-1.346l.661-.529.974,1.237Z" transform="translate(-691.918 -617.978)" opacity="0.1"/>
    <path id="Path_1207" data-name="Path 1207" d="M729.121,505.979c-.307,1.015-2.421.71-2.841.349a7.067,7.067,0,0,1-.728-2.421s.115-.592-.06-.79-1.275-1.906-1.275-1.906l-.018-.015a4.622,4.622,0,0,1-.411-.394c-.339-.371-.346-.55-.346-.55a8.012,8.012,0,0,0-.535-1.656,7.849,7.849,0,0,1-.468-2.114c-.015-.162-.02-.26-.02-.26a4.575,4.575,0,0,1-1.478.493c-.443-.033-.56.134-.56.134s.033.169-.219.44a1.21,1.21,0,0,0-.28.376,1.043,1.043,0,0,1-.195.582c-.189.218-.3.368-.3.368a7.21,7.21,0,0,1-2.077,2.035,2.154,2.154,0,0,1-.343,1.058l-.45.463s-.185.565-.481.658a3.939,3.939,0,0,0-.662.309c1.218-1.462-1.8-2.614-1.8-2.614s.5-.524.8-.538.458-.383.458-.383l1-.677c.148-.406,1.564-1.466,1.564-1.466l.519-.95a5.075,5.075,0,0,1,.106-.575c.065-.247.527-.32.527-.32a1.117,1.117,0,0,0,.235-.316c.037-.123.084-.247.084-.247s.327.041.355-.075.393-.233.393-.233a19.324,19.324,0,0,1,2.022-1.256s.563-.328.486-.507a.965.965,0,0,1-.038-.111v-.01q-.01-.034-.02-.072c-.071-.275-.149-.7-.149-.7s2.736-1.591,3.634-1.187a1.038,1.038,0,0,1,.495.791,6.2,6.2,0,0,1-.028,2.042,5.864,5.864,0,0,1-.164.761,8.2,8.2,0,0,0-.256,1.707s-.028,1.941-.1,2.418a1.181,1.181,0,0,0,.1.651,1.117,1.117,0,0,0,.116.2s-.049.327.474.929a9.975,9.975,0,0,1,1.114,2,8.427,8.427,0,0,1,.673,1.269,4.235,4.235,0,0,0,.176.722s.491.334.434.644.518.9.518.9S729.086,505.934,729.121,505.979Z" transform="translate(-674.117 -464.15)" fill="#bdd2e8"/>
    <path id="Path_1208" data-name="Path 1208" d="M855.67,534.71s.589.283.637.621S855.67,534.71,855.67,534.71Z" transform="translate(-807.662 -505.383)" opacity="0.1"/>
    <path id="Path_1209" data-name="Path 1209" d="M757.479,514.831l.322.377-.167-.685-.354-.023Z" transform="translate(-711.724 -483.56)" opacity="0.1"/>
    <path id="Path_1210" data-name="Path 1210" d="M812,580.35c.035.027.43.911.536.921S812,580.35,812,580.35Z" transform="translate(-766.618 -548.278)" opacity="0.1"/>
    <path id="Path_1211" data-name="Path 1211" d="M857.66,507.12a5.876,5.876,0,0,1-.164.761,8.2,8.2,0,0,0-.256,1.707s-.028,1.941-.1,2.418a1.181,1.181,0,0,0,.1.651,1.809,1.809,0,0,0-.744.217c-.322.208-.135.778-.135.778s-.464.279-.939.532c-.339-.371-.346-.55-.346-.55a8.013,8.013,0,0,0-.535-1.656,7.843,7.843,0,0,1-.468-2.114,9.342,9.342,0,0,1,.678-1.349c.212-.3-.041-1.194-.218-1.719l-.049-.033h0l-.582-.39h0l-.177-.12-.093-.06.07-.019,3.981-1.092A6.25,6.25,0,0,1,857.66,507.12Z" transform="translate(-805.754 -477.534)" opacity="0.1"/>
    <path id="Path_1212" data-name="Path 1212" d="M853.66,501.982l.269.18h0l.581.39h0l.049.033c.177.525.43,1.422.217,1.719a13.414,13.414,0,0,0-.842,1.734s.9,3.629.541,4.2,1.911-.794,1.911-.794-.186-.57.136-.778a2.04,2.04,0,0,1,.863-.227s.426-.073.446-.162a.554.554,0,0,1,.146-.263,16.514,16.514,0,0,1-.066-2.19,9.507,9.507,0,0,0-.214-2.414.44.44,0,0,1,.189-.3.556.556,0,0,1,.155-.075l.034-.01.06-.016h0c.259-.064.541-.12.6-.241l-.06-.091-.317-.49h0a.364.364,0,0,1,.009-.143.259.259,0,0,1,0-.029h0c.046-.312-.313-.691-.313-.691a1.806,1.806,0,0,1-.028-.269v0a.67.67,0,0,1,.038-.281Z" transform="translate(-805.773 -473.484)" fill="#653c5b"/>
    <path id="Path_1213" data-name="Path 1213" d="M870.5,532.414c-.031-.007,1.94.064,2.549.842C873.054,533.258,873.075,532.974,870.5,532.414Z" transform="translate(-821.604 -503.224)" opacity="0.1"/>
    <path id="Path_1214" data-name="Path 1214" d="M896.35,553.038a27.745,27.745,0,0,1,.306,3.319c-.087.493.458.175.458.175S897.671,552.429,896.35,553.038Z" transform="translate(-845.895 -522.55)" opacity="0.1"/>
    <path id="Path_1215" data-name="Path 1215" d="M857.445,499.564a.256.256,0,0,0-.014-.028c-.133-.223-.407-.269-.361-.553h0a.169.169,0,0,1,.007-.037.4.4,0,0,0,.007-.136h0a1.264,1.264,0,0,0-.315-.585,1.763,1.763,0,0,1-.026-.376v0a.49.49,0,0,1,.043-.188.088.088,0,0,0,0-.093c-.073-.124-.4-.205-.4-.205l-2.2.349c-.26.089-.509.18-.735.268-.68.26-1.163.476-1.163.476l.016.064c.014.06.039.153.068.261.01.037.192-.007.2.033l.067.148.487.135s.04.1.094.256a.111.111,0,0,0,.01.028h0l.04.005c.92.113,2.193.293,3.326.522Z" transform="translate(-804.475 -470.279)" opacity="0.1"/>
    <path id="Path_1216" data-name="Path 1216" d="M856.779,498.156l-.034.01c-1.185-.248-2.556-.441-3.519-.559h0c-.06-.173-.1-.283-.1-.283l-.725-.2-.02-.07c-.035-.126-.064-.241-.081-.307l-.016-.064s.481-.216,1.163-.475c.227-.087.476-.18.736-.268l2.2-.349a1.452,1.452,0,0,1,.234.082c.112.052.215.127.168.216a1.2,1.2,0,0,0-.016.567s.384.4.309.722.216.358.354.59S857.134,498.064,856.779,498.156Z" transform="translate(-804.475 -468.615)" fill="#653c5b"/>
    <path id="Path_1217" data-name="Path 1217" d="M846.287,349.118s-2.893.232-2.561-.029c.166-.13.052-.519-.1-.874a6.352,6.352,0,0,0-.352-.674s2.2-.635,1.963-.274c-.07.106-.007.312.12.548A8.775,8.775,0,0,0,846.287,349.118Z" transform="translate(-796.008 -329.108)" fill="#d17483"/>
    <path id="Path_1218" data-name="Path 1218" d="M845.351,347.814c-.06.072-.216-.014-.291.045-.263.206-.512.478-.871.473a1.509,1.509,0,0,1-.568-.12,6.327,6.327,0,0,0-.352-.674s2.2-.634,1.963-.273C845.163,347.373,845.226,347.578,845.351,347.814Z" transform="translate(-796.007 -329.105)" opacity="0.1"/>
    <path id="Path_1219" data-name="Path 1219" d="M836.763,316.975a1.51,1.51,0,1,1-.427-1.079,1.516,1.516,0,0,1,.427,1.079Z" transform="translate(-787.044 -299.297)" fill="#d17483"/>
    <path id="Path_1220" data-name="Path 1220" d="M856.605,495.892a3.037,3.037,0,0,1-.708-.075.813.813,0,0,0-.686.247,2.955,2.955,0,0,1-1.049.224,6.833,6.833,0,0,0-1.765.7l-.06.023c-.035-.126-.064-.241-.081-.307l-.016-.064s.481-.216,1.163-.475c.227-.087.476-.18.736-.268l2.2-.349a1.451,1.451,0,0,1,.235.082A.5.5,0,0,1,856.605,495.892Z" transform="translate(-804.438 -468.578)" opacity="0.1"/>
    <path id="Path_1221" data-name="Path 1221" d="M722.483,393l-.678.072a8.472,8.472,0,0,1,.011-1.1c.257.139.431.248.431.248Z" transform="translate(-681.836 -371.236)" opacity="0.1"/>
    <path id="Path_1222" data-name="Path 1222" d="M733.239,364.33s-.428.135-.668.23a11.571,11.571,0,0,1-1.448.2.163.163,0,0,1-.153.158,4.732,4.732,0,0,0-.632.194,8.007,8.007,0,0,1-1.159.488.941.941,0,0,1-.63.017s-.049.318-.541.143-.559.01-.559.01a18.409,18.409,0,0,0-2.406.1,4.8,4.8,0,0,1-1.454.041s-.132,1.595.144,1.668a6.361,6.361,0,0,1,1.345.135,1.632,1.632,0,0,0,.861-.06.571.571,0,0,1,.38.1,6.25,6.25,0,0,0,1.469.137s.088.019.406.112a2.679,2.679,0,0,0,.877.013l1.309.171a5.091,5.091,0,0,1-.009,1.258,13.1,13.1,0,0,0-.02,1.985,15.756,15.756,0,0,1,.216,2.246c-.085.238.888-.173.888-.173a6.849,6.849,0,0,1,1.765-.7,2.965,2.965,0,0,0,1.049-.224.815.815,0,0,1,.686-.247,3.01,3.01,0,0,0,.708.072s.1-.5-.532-.575c0,0-.281-.19-.01-.532s-.158-1.213-.158-1.213-.137-.357-.064-.506a8.774,8.774,0,0,0-.085-1.463,5.269,5.269,0,0,0-.267-1.733c-.267-.518-.449-1.443-.757-1.579A1.633,1.633,0,0,1,733.239,364.33Z" transform="translate(-683.495 -345.249)" fill="#dce6f2"/>
    <path id="Path_1223" data-name="Path 1223" d="M857.75,432a8.531,8.531,0,0,1,2.38,1.507C860.634,434.179,857.75,432,857.75,432Z" transform="translate(-809.617 -408.849)" opacity="0.1"/>
    <path id="Path_1224" data-name="Path 1224" d="M870.08,455.78s2.267,1.318,2.112,1.653S870.08,455.78,870.08,455.78Z" transform="translate(-821.205 -431.199)" opacity="0.1"/>
    <path id="Path_1225" data-name="Path 1225" d="M876.24,477.83a4.12,4.12,0,0,1,.968.52C877.356,478.538,876.24,477.83,876.24,477.83Z" transform="translate(-826.995 -451.923)" opacity="0.1"/>
    <path id="Path_1226" data-name="Path 1226" d="M813.82,392.33s1.733.929,1.435,1.306S813.82,392.33,813.82,392.33Z" transform="translate(-768.329 -371.565)" opacity="0.1"/>
    <path id="Path_1227" data-name="Path 1227" d="M801.4,403.22a6.845,6.845,0,0,1,.29.775C801.7,404.109,801.167,403.314,801.4,403.22Z" transform="translate(-756.599 -381.8)" opacity="0.1"/>
    <path id="Path_1228" data-name="Path 1228" d="M783,406.18c0,.035.9.589.53.734S783,406.18,783,406.18Z" transform="translate(-739.362 -384.582)" opacity="0.1"/>
    <path id="Path_1229" data-name="Path 1229" d="M794.41,591.59a1.057,1.057,0,0,0,.409.538C795.108,592.283,794.41,591.59,794.41,591.59Z" transform="translate(-750.086 -558.842)" opacity="0.1"/>
    <path id="Path_1230" data-name="Path 1230" d="M749.31,635.29c0,.292-.054,1.223.185,1.323S749.31,635.29,749.31,635.29Z" transform="translate(-707.692 -599.914)" opacity="0.1"/>
    <path id="Path_1231" data-name="Path 1231" d="M759.668,649s.545.921.357,1.078-.4-.219-.4-.219Z" transform="translate(-717.388 -612.799)" opacity="0.1"/>
    <path id="Path_1232" data-name="Path 1232" d="M921.75,682.31a3.06,3.06,0,0,0,.672.054C922.787,682.351,921.75,682.31,921.75,682.31Z" transform="translate(-869.768 -644.106)" opacity="0.1"/>
    <path id="Path_1233" data-name="Path 1233" d="M917,673.923a2.107,2.107,0,0,0,.913,0C918.154,673.789,917,673.923,917,673.923Z" transform="translate(-865.303 -636.166)" opacity="0.1"/>
    <path id="Path_1234" data-name="Path 1234" d="M912.6,659.178s.672.054.809-.174S912.6,659.178,912.6,659.178Z" transform="translate(-861.168 -622.135)" opacity="0.1"/>
    <path id="Path_1235" data-name="Path 1235" d="M909.45,655.233s.645.107.754-.042S909.45,655.233,909.45,655.233Z" transform="translate(-858.207 -618.564)" opacity="0.1"/>
    <path id="Path_1236" data-name="Path 1236" d="M899,634.23s.7.329.772.517S899,634.23,899,634.23Z" transform="translate(-848.386 -598.917)" opacity="0.1"/>
    <path id="Path_1237" data-name="Path 1237" d="M841.808,316.981a1.51,1.51,0,0,1-.583,1.172l-.011-.023c-.066-.141-.083-.3-.144-.441a.213.213,0,0,0-.107-.123c-.1-.038-.194.051-.259.131s-.16.17-.258.135a.245.245,0,0,1-.12-.127,1.316,1.316,0,0,1-.211-.577,2.556,2.556,0,0,0,0-.3.654.654,0,0,0-.311-.425,3.892,3.892,0,0,0-.5-.241.735.735,0,0,1-.211-.135,1.516,1.516,0,0,1,2.706.959Z" transform="translate(-792.088 -299.303)" opacity="0.1"/>
    <path id="Path_1238" data-name="Path 1238" d="M835.905,308.556c-.037.085.1.078.164.15a.671.671,0,0,0,.234.159,4.018,4.018,0,0,1,.5.241.653.653,0,0,1,.312.426,2.7,2.7,0,0,1,0,.3,1.321,1.321,0,0,0,.21.577.252.252,0,0,0,.12.127c.1.035.193-.055.258-.135s.162-.169.259-.132a.214.214,0,0,1,.106.123c.06.143.078.3.144.442a.385.385,0,0,0,.367.248.316.316,0,0,0,.224-.165.558.558,0,0,0,.06-.274,1.088,1.088,0,0,1,.007-.222.88.88,0,0,1,.176-.315,1.457,1.457,0,0,0,.265-.672,1.027,1.027,0,0,0-.169-.7,1.5,1.5,0,0,1-.205-.3c-.02-.051-.029-.106-.044-.159a.785.785,0,0,0-.669-.541c-.251-.023-.5.073-.753.07-.293,0-.6-.138-.868-.035a.849.849,0,0,0-.317.241,2.436,2.436,0,0,0-.372.541" transform="translate(-789.08 -292.061)" fill="#653c5b"/>
    <path id="Path_1239" data-name="Path 1239" d="M674.6,653.5l-.035.026s.13.224-.176.541c-.144.147-.447.08-.729-.032a2.767,2.767,0,0,1-.9-.6,8.708,8.708,0,0,1-1.705-2.045c-.06-.251.152-.321.452-.306a4.99,4.99,0,0,1,1.2.277,1.644,1.644,0,0,0,1.137-.232.98.98,0,0,1,.088-.241.546.546,0,0,1,.361-.3c.234-.047.355.411.411.745a.23.23,0,0,0,.007.04c.026.167.037.294.037.294.417-.029.594.576.572.886s.12.312.12.312Z" transform="translate(-634.135 -614.297)" fill="#ffd6db"/>
    <path id="Path_1240" data-name="Path 1240" d="M674.563,661.268s.13.224-.176.541c-.144.147-.447.081-.729-.032a2.758,2.758,0,0,1-.9-.6,8.693,8.693,0,0,1-1.705-2.045c-.06-.251.152-.321.452-.306a1.563,1.563,0,0,0,.25.786c.271.314,1.043,1.371,2.01,1.383a1.5,1.5,0,0,1,.837.241Z" transform="translate(-634.135 -622.036)" fill="#c8a9b4"/>
    <path id="Path_1241" data-name="Path 1241" d="M700.54,675.349a2.04,2.04,0,0,1,1.716-.392A3.954,3.954,0,0,0,700.54,675.349Z" transform="translate(-661.861 -637.117)" opacity="0.1"/>
    <path id="Path_1242" data-name="Path 1242" d="M718.11,679.792a9.371,9.371,0,0,0,1.069.281A2.666,2.666,0,0,0,718.11,679.792Z" transform="translate(-678.374 -641.731)" opacity="0.1"/>
    <path id="Path_1243" data-name="Path 1243" d="M934.53,715.48s1.07.022,1.1.265-.4.229-.4.229Z" transform="translate(-881.779 -675.281)" opacity="0.1"/>
    <path id="Path_1244" data-name="Path 1244" d="M915.652,748.331l0,.038s.23.007.325.387c.045.18-.149.377-.368.541a2.46,2.46,0,0,1-.876.4,7.821,7.821,0,0,1-2.351.332c-.22-.072-.172-.266-.019-.487a4.487,4.487,0,0,1,.777-.782,1.471,1.471,0,0,0,.361-.971s-.315-.286-.2-.6,1.031.162,1.031.162c.174-.33.716-.18.941-.017s.293.057.293.057Z" transform="translate(-860.825 -704.991)" fill="#ffd6db"/>
    <path id="Path_1245" data-name="Path 1245" d="M915.656,767.8s.23.007.325.387c.045.18-.149.377-.368.541a2.458,2.458,0,0,1-.876.4,7.82,7.82,0,0,1-2.351.332c-.22-.072-.172-.266-.019-.487a1.4,1.4,0,0,0,.713.18c.365-.06,1.531-.147,2-.873a1.344,1.344,0,0,1,.578-.521Z" transform="translate(-860.825 -724.417)" fill="#c8a9b4"/>
    <path id="Path_1246" data-name="Path 1246" d="M942.71,759.366a1.822,1.822,0,0,1,.511-1.486A3.54,3.54,0,0,0,942.71,759.366Z" transform="translate(-889.461 -715.131)" opacity="0.1"/>
    <path id="Path_1247" data-name="Path 1247" d="M948.93,757.042a7.908,7.908,0,0,0,.716-.678C949.731,756.227,948.949,756.894,948.93,757.042Z" transform="translate(-895.313 -713.689)" opacity="0.1"/>
    <path id="Path_1248" data-name="Path 1248" d="M902.082,510.09a2.366,2.366,0,0,1-1.4.254C900.087,510.178,902.082,510.09,902.082,510.09Z" transform="translate(-849.86 -482.243)" opacity="0.1"/>
    <path id="Path_1249" data-name="Path 1249" d="M912.8,524.16s-.128.229-.924.173S912.8,524.16,912.8,524.16Z" transform="translate(-860.292 -495.467)" opacity="0.1"/>
    <g id="Group_20" data-name="Group 20" transform="translate(46.816 16.19)" opacity="0.1">
      <path id="Path_1250" data-name="Path 1250" d="M887.54,345.556l.034-.047c.025-.035.048-.072.07-.109A1.458,1.458,0,0,0,887.54,345.556Z" transform="translate(-884.431 -343.648)"/>
      <path id="Path_1251" data-name="Path 1251" d="M838.612,318.951a.387.387,0,0,1-.367-.248c-.066-.141-.083-.3-.144-.442a.214.214,0,0,0-.106-.123c-.1-.037-.194.052-.259.132s-.159.17-.258.135a.248.248,0,0,1-.12-.127,1.31,1.31,0,0,1-.211-.577,2.692,2.692,0,0,0,0-.3.648.648,0,0,0-.311-.425,4.023,4.023,0,0,0-.5-.241.67.67,0,0,1-.233-.159c-.06-.072-.2-.064-.164-.15.028-.055.06-.109.09-.162a2.488,2.488,0,0,0-.186.307c-.037.085.1.078.164.15a.673.673,0,0,0,.234.159,4.018,4.018,0,0,1,.5.241.653.653,0,0,1,.312.426,2.7,2.7,0,0,1,0,.3,1.322,1.322,0,0,0,.211.577.252.252,0,0,0,.12.127c.1.035.193-.055.258-.135s.162-.169.259-.132a.214.214,0,0,1,.106.123c.06.143.078.3.144.442a.385.385,0,0,0,.367.248.316.316,0,0,0,.224-.165.469.469,0,0,0,.025-.056A.3.3,0,0,1,838.612,318.951Z" transform="translate(-835.839 -316.26)"/>
    </g>
    <path id="Path_1252" data-name="Path 1252" d="M848.73,367.535s.692-.034,1.153-.019a2.942,2.942,0,0,0,1.143-.356" transform="translate(-801.139 -347.909)" opacity="0.1"/>
    <path id="Path_1253" data-name="Path 1253" d="M158.41,312.071c-.07-.355-.726-.3-1.2-.206l-.117.024.034-.143-.224-.093a5.9,5.9,0,0,0-1.374-.381,7,7,0,0,1-2.458-.755c-.612-.391-.857-.5-1.028-.609v-.092c0-.174-.01-.334-.023-.477a2.011,2.011,0,0,0-.076-.387c-.143-.474-.465-.627-.788-.924a2.957,2.957,0,0,0-.711-.5,1.9,1.9,0,0,1,.137-.456l.028-.066a.008.008,0,0,1,0-.008l.029-.066a1.482,1.482,0,0,0,.774-1.3,1.465,1.465,0,0,0-.435-1.042q-.035-.035-.072-.067l.07-.023c.149-.053.31-.2.267-.322h-.022a.124.124,0,0,0-.006-.026.3.3,0,0,1-.18-.068c-.069-.085-.09-.214-.217-.333a.592.592,0,0,0-.094-.082.834.834,0,0,0-.306-.127l.028.017.019.014a4.715,4.715,0,0,1-.776-.154,1.123,1.123,0,0,1-.165-.091l.031.008c-.129-.075-.245-.17-.379-.241a1.048,1.048,0,0,0-.234-.085l.06.035a1.4,1.4,0,0,0-1.042.167,2.3,2.3,0,0,0-.827.935,3.986,3.986,0,0,0-.463,2.007,2.439,2.439,0,0,1-.06,1c-.1.265-.324.475-.455.729-.506.981.426,2.256-.145,3.205a9.454,9.454,0,0,1-.827.886c-.251.316-.342.826-.007,1.063.241.171.583.115.87.2a1.383,1.383,0,0,1-.41.775l-.047-.009c-.011.01-.021.021-.032.031l.044.011-.017.016a4.613,4.613,0,0,0,.962.171,1.544,1.544,0,0,0,.847-.128,1.143,1.143,0,0,0,.331-.283c0,.06,0,.113.008.168a3.261,3.261,0,0,0,.094.656,1.953,1.953,0,0,1-.6,1.8,2.907,2.907,0,0,0-.295,1.413h0a2.942,2.942,0,0,0,.18.865c.008.022.016.044.025.065.016.042.034.083.051.12.026.06.052.112.078.162.017.034.034.065.05.094a2.181,2.181,0,0,0,.194.3q.134-.091.267-.171v.108c0,.372-.032.842-.032.842s-.279,1-.307,1.283-.135,2.061-.135,2.061a5.405,5.405,0,0,1-1.073,1.843c-.7.7-.541,2.689-.541,2.689s-.488,1.678-.321,1.76a.17.17,0,0,0,.084,0v.068c-.3.209-.529.378-.529.378a11.317,11.317,0,0,1-.2,1.645c-.112.266.14.58.14.58s2.481-.069,2.7-.082a3.53,3.53,0,0,0,.772-.266,4.3,4.3,0,0,0,1.5-.733.471.471,0,0,0,.113-.153c.153-.382-1.233-.1-1.61-.1s-.418-.287-.592-.505a.7.7,0,0,1-.049-.58l-.036-1.022.165-.067a4.013,4.013,0,0,1,.585-1.3,10.862,10.862,0,0,0,1.018-2.116,1.264,1.264,0,0,1,.292-.6,5.67,5.67,0,0,0,.524-1.158s.6-1.884,1.059-2.852a8.7,8.7,0,0,0,.516-2.37,2.373,2.373,0,0,1,.255.085s.129-.825.18-1.766a10.075,10.075,0,0,0-.011-1.443,25,25,0,0,1-.5-3.7c.11.071.217.138.313.2,0-.035,0-.07.007-.106.247.153.425.259.425.259a7.05,7.05,0,0,0,2.773.832,3.783,3.783,0,0,1,1.519.164l.082-.338.116-.022C157.521,312.727,158.49,312.478,158.41,312.071Z" transform="translate(-139.442 -287.627)" fill="url(#linear-gradient-2)"/>
    <path id="Path_1254" data-name="Path 1254" d="M255.1,322.59l-.067-.05a.144.144,0,0,1,.028.048Z" transform="translate(-243.144 -305.972)" fill="url(#linear-gradient-3)"/>
    <path id="Path_1255" data-name="Path 1255" d="M252.775,321.2h.04l-.038-.028h.01l-.067-.049a.144.144,0,0,1,.027.047h.015A.132.132,0,0,1,252.775,321.2Z" transform="translate(-240.973 -304.638)" fill="url(#linear-gradient-4)"/>
    <rect id="Rectangle_637" data-name="Rectangle 637" width="1.072" height="1.674" transform="translate(8.878 19.028)" fill="#965d7b"/>
    <rect id="Rectangle_638" data-name="Rectangle 638" width="1.072" height="1.674" transform="translate(8.878 19.028)" opacity="0.1"/>
    <rect id="Rectangle_639" data-name="Rectangle 639" width="0.975" height="1.313" transform="translate(7.147 42.786) rotate(180)" fill="#e8f4ff"/>
    <path id="Path_1256" data-name="Path 1256" d="M206.446,363.07a1.349,1.349,0,0,1,.571,1.07,1.305,1.305,0,0,1-.228.537l.241-.028c.123-.016.283-.038.453-.063.142-.022.29-.046.43-.072.383-.071.7-.156.61-.234a.237.237,0,0,1-.042-.2,1.952,1.952,0,0,1,.134-.452c.019-.048.039-.094.06-.139.088-.2.174-.361.174-.361s-.819-.06-1.5-.088c-.234-.01-.453-.017-.62-.017h-.066C206.452,363.018,206.353,363.035,206.446,363.07Z" transform="translate(-197.449 -344.017)" fill="#ffc1c7"/>
    <path id="Path_1257" data-name="Path 1257" d="M175.2,551.21a11.915,11.915,0,0,1-.568,3.141c-.448.961-1.029,2.83-1.029,2.83a5.782,5.782,0,0,1-.515,1.151,1.268,1.268,0,0,0-.284.6,10.869,10.869,0,0,1-.989,2.1,4.01,4.01,0,0,0-.568,1.286,8.4,8.4,0,0,1-1.706.568c-.162-.081.312-1.744.312-1.744s-.149-1.977.528-2.668a5.39,5.39,0,0,0,1.043-1.828s.108-1.761.135-2.045.3-1.273.3-1.273a5.539,5.539,0,0,0-.013-1.245C171.748,551.876,175.2,551.21,175.2,551.21Z" transform="translate(-162.764 -520.89)" fill="#575a89"/>
    <path id="Path_1258" data-name="Path 1258" d="M175.2,551.21a11.915,11.915,0,0,1-.568,3.141c-.448.961-1.029,2.83-1.029,2.83a5.782,5.782,0,0,1-.515,1.151,1.268,1.268,0,0,0-.284.6,10.869,10.869,0,0,1-.989,2.1,4.01,4.01,0,0,0-.568,1.286,8.4,8.4,0,0,1-1.706.568c-.162-.081.312-1.744.312-1.744s-.149-1.977.528-2.668a5.39,5.39,0,0,0,1.043-1.828s.108-1.761.135-2.045.3-1.273.3-1.273a5.539,5.539,0,0,0-.013-1.245C171.748,551.876,175.2,551.21,175.2,551.21Z" transform="translate(-162.764 -520.89)" opacity="0.05"/>
    <path id="Path_1259" data-name="Path 1259" d="M161.467,733.715l.041,1.171a.713.713,0,0,0,.047.576c.167.215.21.5.576.5s1.713-.284,1.564.1-1.415.867-1.624.88-2.618.081-2.618.081a.677.677,0,0,1-.135-.575,11.5,11.5,0,0,0,.189-1.632S161.386,733.385,161.467,733.715Z" transform="translate(-153.16 -692.373)" fill="#444053"/>
    <path id="Path_1260" data-name="Path 1260" d="M161.626,733.538l.04,1.172a.71.71,0,0,0,.048.575c.168.214.21.5.576.5s1.713-.284,1.564.094-1.415.867-1.624.88-2.62.081-2.62.081a.689.689,0,0,1-.135-.576,11.9,11.9,0,0,0,.187-1.632S161.545,733.206,161.626,733.538Z" transform="translate(-153.309 -692.206)" opacity="0.05"/>
    <path id="Path_1261" data-name="Path 1261" d="M158.141,567.045a8.377,8.377,0,0,0,1.7-.571,4.017,4.017,0,0,1,.569-1.286,10.824,10.824,0,0,0,.988-2.1,1.26,1.26,0,0,1,.284-.6,5.781,5.781,0,0,0,.515-1.151s.582-1.869,1.029-2.83a9.743,9.743,0,0,0,.529-2.628c.028-.31.04-.514.04-.514s-3.453.661-3.358.867a1.306,1.306,0,0,1,.045.411c0,.369-.032.835-.032.835s-.271.989-.3,1.273-.135,2.045-.135,2.045a5.39,5.39,0,0,1-1.043,1.828c-.677.69-.528,2.668-.528,2.668S157.981,566.964,158.141,567.045Z" transform="translate(-152.05 -524.8)" fill="#575a89"/>
    <path id="Path_1262" data-name="Path 1262" d="M203.675,592.711s-.7-.189-.948.027S203.675,592.711,203.675,592.711Z" transform="translate(-193.955 -559.823)" opacity="0.1"/>
    <path id="Path_1263" data-name="Path 1263" d="M201.212,607.507s-1.111-.241-1.124.108S201.212,607.507,201.212,607.507Z" transform="translate(-191.506 -573.725)" opacity="0.1"/>
    <path id="Path_1264" data-name="Path 1264" d="M200.961,625s-.382.324-.622.216S200.961,625,200.961,625Z" transform="translate(-191.701 -590.242)" opacity="0.1"/>
    <path id="Path_1265" data-name="Path 1265" d="M194.24,654.25s.772.284.6.583-.312.339-.379.257A5.564,5.564,0,0,1,194.24,654.25Z" transform="translate(-186.01 -617.733)" opacity="0.1"/>
    <path id="Path_1266" data-name="Path 1266" d="M150.038,737.908l.041,1.172a.71.71,0,0,0,.048.575c.168.214.21.5.576.5s1.713-.284,1.564.094-1.415.867-1.624.88-2.62.081-2.62.081a.679.679,0,0,1-.135-.576,11.5,11.5,0,0,0,.189-1.632S149.957,737.576,150.038,737.908Z" transform="translate(-142.418 -696.313)" fill="#444053"/>
    <path id="Path_1267" data-name="Path 1267" d="M162.6,763.332s-.034.23-.758.007S162.6,763.332,162.6,763.332Z" transform="translate(-155.373 -720.167)" opacity="0.1"/>
    <path id="Path_1268" data-name="Path 1268" d="M155.29,767.62s-.162.224.413.325S155.29,767.62,155.29,767.62Z" transform="translate(-149.382 -724.285)" opacity="0.1"/>
    <path id="Path_1269" data-name="Path 1269" d="M158.21,764.69s.569.494.745.494" transform="translate(-152.147 -721.532)" opacity="0.1"/>
    <path id="Path_1270" data-name="Path 1270" d="M210.47,363c.251.456.712.377,1.294.765.2.133.465-.057.665-.159.105-.262.233-.5.233-.5S211.088,362.992,210.47,363Z" transform="translate(-201.264 -343.996)" opacity="0.1"/>
    <path id="Path_1271" data-name="Path 1271" d="M207.45,326.326a1.469,1.469,0,1,0,.431-1.046A1.476,1.476,0,0,0,207.45,326.326Z" transform="translate(-198.425 -308.143)" fill="#ffc1c7"/>
    <path id="Path_1272" data-name="Path 1272" d="M196.91,556.277a1.307,1.307,0,0,1,.045.411,4.983,4.983,0,0,1,3.273-.763c.028-.31.04-.514.04-.514S196.815,556.073,196.91,556.277Z" transform="translate(-188.517 -524.838)" opacity="0.1"/>
    <path id="Path_1273" data-name="Path 1273" d="M184.02,388.074a2.969,2.969,0,0,0,.557,1.591,4.808,4.808,0,0,1,4.442-.717s.124-.818.173-1.752a10.378,10.378,0,0,0-.011-1.431,20.948,20.948,0,0,1-.478-3.94c.042-.647.293-1.249.284-1.748,0-.173-.01-.331-.022-.473a2.016,2.016,0,0,0-.074-.384c-.138-.471-.452-.622-.766-.917a2.867,2.867,0,0,0-.692-.492,1.377,1.377,0,0,0-1.464.063,1.73,1.73,0,0,0-.231.2,2.187,2.187,0,0,0-.246.3c-.013.017-.024.035-.035.053a1.9,1.9,0,0,0-.18.514,20.135,20.135,0,0,0-.322,2.33,19.881,19.881,0,0,0-.159,2.964,3.321,3.321,0,0,0,.091.651,1.958,1.958,0,0,1-.582,1.787A2.931,2.931,0,0,0,184.02,388.074Z" transform="translate(-176.402 -357.752)" fill="#ff6584"/>
    <path id="Path_1274" data-name="Path 1274" d="M340.59,452.028s.143-.02.345-.06c.53-.106,1.474-.352,1.4-.756-.067-.352-.7-.3-1.169-.2a4.847,4.847,0,0,0-.487.12Z" transform="translate(-323.558 -426.649)" fill="#ffc1c7"/>
    <path id="Path_1275" data-name="Path 1275" d="M221.483,399.4c.284.216.989.812,1.53,1.232.3.236.73.515,1.043.715.042-.647.072-1.263.063-1.759a7.758,7.758,0,0,1-.6-.77,3.362,3.362,0,0,0-1.585-.894C221.254,397.778,221.2,399.184,221.483,399.4Z" transform="translate(-211.463 -376.815)" opacity="0.1"/>
    <path id="Path_1276" data-name="Path 1276" d="M340.59,453.072s.143-.02.345-.06l.227-.962a4.847,4.847,0,0,0-.487.12Z" transform="translate(-323.558 -427.694)" opacity="0.1"/>
    <path id="Path_1277" data-name="Path 1277" d="M221.908,396.128a3.338,3.338,0,0,1,1.585.894c.569.664.361.361,1.53,1.124a6.693,6.693,0,0,0,2.388.749,5.672,5.672,0,0,1,1.335.378l.218.091-.339,1.437a3.589,3.589,0,0,0-1.476-.162,6.743,6.743,0,0,1-2.695-.826s-.921-.555-1.463-.975-1.245-1.017-1.532-1.233S221.231,395.978,221.908,396.128Z" transform="translate(-211.439 -375.124)" fill="#e8f4ff"/>
    <path id="Path_1278" data-name="Path 1278" d="M205,380.741c.2.12.436.071.722-.283.769-.959,2.045,0,2.892.564-.138-.471-.452-.622-.766-.917-.908-.853-1.924-.959-2.632.069-.013.017-.024.035-.035.053A1.8,1.8,0,0,0,205,380.741Z" transform="translate(-196.123 -359.445)" opacity="0.1"/>
    <path id="Path_1279" data-name="Path 1279" d="M205,378.939c.2.12.436.071.722-.283l.022-.027a1.05,1.05,0,0,1,.413-.309,1.022,1.022,0,0,1,.43-.072,4.582,4.582,0,0,1,2.026.971c-.138-.471-.452-.622-.766-.917a2.867,2.867,0,0,0-.692-.492,1.377,1.377,0,0,0-1.464.063,1.73,1.73,0,0,0-.231.2,2.187,2.187,0,0,0-.246.3c-.013.017-.024.035-.035.053A1.817,1.817,0,0,0,205,378.939Z" transform="translate(-196.123 -357.752)" fill="#ff6584"/>
    <path id="Path_1280" data-name="Path 1280" d="M184.07,535.7a2.969,2.969,0,0,0,.557,1.591,4.808,4.808,0,0,1,4.442-.717s.124-.818.173-1.752c-.893-.008-3.436.013-4.29.481A5.661,5.661,0,0,1,184.07,535.7Z" transform="translate(-176.451 -505.487)" opacity="0.1"/>
    <path id="Path_1281" data-name="Path 1281" d="M184.07,537.5a2.968,2.968,0,0,0,.557,1.591,4.808,4.808,0,0,1,4.442-.717s.124-.818.173-1.752c-.893-.008-3.436.013-4.29.481A5.667,5.667,0,0,1,184.07,537.5Z" transform="translate(-176.451 -507.179)" fill="#e8f4ff"/>
    <path id="Path_1282" data-name="Path 1282" d="M255.206,325.579l-.066-.049a.143.143,0,0,1,.027.047Z" transform="translate(-243.247 -308.782)" opacity="0.1"/>
    <path id="Path_1283" data-name="Path 1283" d="M196.783,334.556a1.774,1.774,0,0,0,.216-.268,3.718,3.718,0,0,0,.463-2.887,1.163,1.163,0,0,1-.034-.656c.107-.287.444-.437.6-.7a1.565,1.565,0,0,0-.018-1.091.212.212,0,0,0-.008-.043c-.013-.067-.023-.135-.031-.2a2.8,2.8,0,0,1,.125-1.206l.02-.06a1.827,1.827,0,0,1,.166-.348,1,1,0,0,1,.588-.474.464.464,0,0,0,.2-.076c.152-.133-.021-.361-.055-.557a.58.58,0,0,1,.349-.563,3.2,3.2,0,0,1,.577-.2,1.476,1.476,0,0,0-2.282,1.855h-.066c-.2,0-.3.016-.209.052.262.1.325.825.34,1.267a2.186,2.186,0,0,0-.246.3c-.013.017-.024.035-.035.053a1.9,1.9,0,0,0-.18.514,31.461,31.461,0,0,0-.479,5.3Z" transform="translate(-188.387 -308.074)" opacity="0.1"/>
    <path id="Path_1284" data-name="Path 1284" d="M158.263,307.3c.11.13-.07.307-.233.366a4.746,4.746,0,0,0-.683.236.584.584,0,0,0-.349.563c.035.2.208.421.056.557a.473.473,0,0,1-.2.076,1.206,1.206,0,0,0-.754.822,2.788,2.788,0,0,0-.114,1.467,1.661,1.661,0,0,1,.026,1.134c-.153.268-.49.417-.6.7a1.162,1.162,0,0,0,.034.656,3.72,3.72,0,0,1-.463,2.887,1.329,1.329,0,0,1-.437.437,1.482,1.482,0,0,1-.823.126,4.414,4.414,0,0,1-.936-.17,1.383,1.383,0,0,0,.449-.817c-.279-.087-.61-.031-.845-.2-.325-.235-.238-.742.007-1.055a10.024,10.024,0,0,0,.8-.879c.554-.942-.351-2.207.14-3.18.127-.253.341-.461.443-.722a2.509,2.509,0,0,0,.057-.995,4.026,4.026,0,0,1,.45-1.991,2.261,2.261,0,0,1,.8-.927,1.273,1.273,0,0,1,1.209-.088c.165.085.3.215.472.29.328.144.745.066,1.033.274s.157.474.52.481" transform="translate(-146.479 -290.604)" fill="#965d7b"/>
    <path id="Path_1285" data-name="Path 1285" d="M209.963,495a7.126,7.126,0,0,1-1.057,1.163C208.269,496.621,209.963,495,209.963,495Z" transform="translate(-199.659 -468.061)" opacity="0.1"/>
    <path id="Path_1286" data-name="Path 1286" d="M202.711,473.9s-.811,1.692-1.762,1.938S202.711,473.9,202.711,473.9Z" transform="translate(-192.125 -448.23)" opacity="0.1"/>
    <path id="Path_1287" data-name="Path 1287" d="M254.835,542.2a4.313,4.313,0,0,0-.216.921C254.672,543.193,254.835,542.2,254.835,542.2Z" transform="translate(-242.75 -512.422)" opacity="0.1"/>
    <path id="Path_1288" data-name="Path 1288" d="M246.125,542.8a4.313,4.313,0,0,0-.217.921C245.962,543.793,246.125,542.8,246.125,542.8Z" transform="translate(-234.564 -512.986)" opacity="0.1"/>
    <path id="Path_1289" data-name="Path 1289" d="M236.215,542.5a4.311,4.311,0,0,0-.217.921C236.053,543.493,236.215,542.5,236.215,542.5Z" transform="translate(-225.25 -512.704)" opacity="0.1"/>
    <path id="Path_1290" data-name="Path 1290" d="M191.63,553.67a4.312,4.312,0,0,0,.256.911C191.969,554.618,191.63,553.67,191.63,553.67Z" transform="translate(-183.557 -523.202)" opacity="0.1"/>
    <path id="Path_1291" data-name="Path 1291" d="M208.44,547.36a4.3,4.3,0,0,0,.256.911C208.779,548.307,208.44,547.36,208.44,547.36Z" transform="translate(-199.356 -517.272)" opacity="0.1"/>
    <path id="Path_1292" data-name="Path 1292" d="M198.84,551.57a4.311,4.311,0,0,0,.256.91C199.179,552.518,198.84,551.57,198.84,551.57Z" transform="translate(-190.333 -521.229)" opacity="0.1"/>
    <path id="Path_1293" data-name="Path 1293" d="M275.423,437.58c-.045.009.135.442-.379.469S275.423,437.58,275.423,437.58Z" transform="translate(-261.804 -414.094)" opacity="0.1"/>
    <path id="Path_1294" data-name="Path 1294" d="M331.993,455.74s-.2.415-.524.5S331.993,455.74,331.993,455.74Z" transform="translate(-314.917 -431.162)" opacity="0.1"/>
    <path id="Path_1295" data-name="Path 1295" d="M309.087,451.39s.434.451-.171.55S309.087,451.39,309.087,451.39Z" transform="translate(-293.572 -427.073)" opacity="0.1"/>
    <path id="Path_1296" data-name="Path 1296" d="M242.025,420.3s-.885-.271-1.022-.073S242.025,420.3,242.025,420.3Z" transform="translate(-229.949 -397.714)" opacity="0.1"/>
    <path id="Path_1297" data-name="Path 1297" d="M213.661,441a7.141,7.141,0,0,1-1.058,1.163C211.966,442.621,213.661,441,213.661,441Z" transform="translate(-203.134 -417.308)" opacity="0.1"/>
    <g id="Group_21" data-name="Group 21" transform="translate(5.888 15.586)" opacity="0.1">
      <path id="Path_1298" data-name="Path 1298" d="M216.959,306.476a4.265,4.265,0,0,1-.429-.266,1,1,0,0,1,.227.084c.13.067.244.162.369.236A1.009,1.009,0,0,1,216.959,306.476Z" transform="translate(-212.848 -306.21)"/>
      <path id="Path_1299" data-name="Path 1299" d="M252.976,324.229l-.039,0a.145.145,0,0,0-.026-.046Z" transform="translate(-247.04 -323.099)"/>
      <path id="Path_1300" data-name="Path 1300" d="M155.871,471.33c0,.019-.008.037-.011.057a1.158,1.158,0,0,1-.56-.147A5.735,5.735,0,0,1,155.871,471.33Z" transform="translate(-155.3 -461.315)"/>
      <path id="Path_1301" data-name="Path 1301" d="M162.552,325.322a1.472,1.472,0,0,0,.823-.126,1.327,1.327,0,0,0,.437-.436,3.719,3.719,0,0,0,.463-2.887,1.168,1.168,0,0,1-.035-.656c.108-.287.444-.437.6-.7a1.658,1.658,0,0,0-.027-1.134,2.793,2.793,0,0,1,.114-1.467,1.211,1.211,0,0,1,.755-.822.475.475,0,0,0,.2-.076c.152-.134-.021-.361-.056-.557a.581.581,0,0,1,.349-.563,5.031,5.031,0,0,1,.683-.236c.145-.052.3-.2.26-.319l.038,0-.065-.049a.144.144,0,0,1,.026.046c-.313-.027-.2-.278-.481-.481l-.027-.017a.817.817,0,0,1,.3.126c.279.2.168.453.481.481.042.12-.115.267-.26.319a4.746,4.746,0,0,0-.683.236.584.584,0,0,0-.349.563c.035.2.208.421.056.557a.473.473,0,0,1-.2.076,1.206,1.206,0,0,0-.754.822,2.794,2.794,0,0,0-.115,1.468,1.658,1.658,0,0,1,.027,1.134c-.153.268-.49.417-.6.7a1.163,1.163,0,0,0,.034.656,3.72,3.72,0,0,1-.463,2.887,1.334,1.334,0,0,1-.437.437,1.482,1.482,0,0,1-.823.126,4.414,4.414,0,0,1-.936-.17c.011-.01.021-.02.032-.031A4.308,4.308,0,0,0,162.552,325.322Z" transform="translate(-161.494 -314.321)"/>
    </g>
    <path id="Path_1302" data-name="Path 1302" d="M799.163,110.678s-5.063-.3-4.467,3.243a.862.862,0,0,0,.45.912s.009-.263.52-.174a2.338,2.338,0,0,0,.55.026,1.142,1.142,0,0,0,.673-.278h0a4.015,4.015,0,0,0,1.977-2.914s.41-.507.393-.637l-.855.364a1.524,1.524,0,0,1,.06,1.129s-.028-1.106-.192-1.083c-.034.005-.444.213-.444.213a2.514,2.514,0,0,1,.12,1.855s.144-1.323-.28-1.777l-.6.351a2.655,2.655,0,0,1,.189,2.014,3.772,3.772,0,0,0-.316-1.928l-.545.425a2.59,2.59,0,0,1,.22,1.846s-.044-1.616-.334-1.738a3.34,3.34,0,0,0-.549.594s.378.793.143,1.212c0,0-.144-1.077-.262-1.083a3.574,3.574,0,0,0-.524,1.2,2.594,2.594,0,0,1,.41-1.271,1.43,1.43,0,0,0-.728.377s.074-.5.842-.548a3.283,3.283,0,0,1,.5-.574,3.12,3.12,0,0,0-1.232.142,1.385,1.385,0,0,1,1.372-.26l.541-.439a4.438,4.438,0,0,0-1.437.014,1.747,1.747,0,0,1,1.582-.114l.586-.351a5.374,5.374,0,0,0-1.373-.12,2.1,2.1,0,0,1,1.544.025l.421-.188s-.63-.124-.815-.143-.195-.07-.195-.07a2.181,2.181,0,0,1,1.185.132A5.215,5.215,0,0,0,799.163,110.678Z" transform="translate(-750.309 -106.845)" fill="#6c63ff"/>
    <path id="Path_1303" data-name="Path 1303" d="M751.489,84.5s-2.285-.138-2.018,1.465a.391.391,0,0,0,.2.412s0-.12.235-.078a1.057,1.057,0,0,0,.249.012.519.519,0,0,0,.3-.126h0a1.816,1.816,0,0,0,.893-1.317s.185-.229.18-.288l-.386.165a.694.694,0,0,1,.028.51s-.013-.5-.087-.488c-.016,0-.2.1-.2.1a1.143,1.143,0,0,1,.056.838s.065-.6-.127-.8l-.272.158a1.2,1.2,0,0,1,.085.911,1.705,1.705,0,0,0-.143-.871l-.246.192a1.173,1.173,0,0,1,.1.833s-.02-.73-.15-.782a1.5,1.5,0,0,0-.248.268s.171.361.065.548c0,0-.065-.487-.12-.488a1.618,1.618,0,0,0-.237.541,1.168,1.168,0,0,1,.185-.574.645.645,0,0,0-.329.17s.034-.228.382-.248a1.5,1.5,0,0,1,.225-.259,1.414,1.414,0,0,0-.557.064.629.629,0,0,1,.62-.12l.244-.2a2.076,2.076,0,0,0-.65.007.787.787,0,0,1,.714-.052l.265-.159a2.41,2.41,0,0,0-.621-.054.951.951,0,0,1,.7.011l.189-.085s-.284-.056-.368-.064-.088-.032-.088-.032a.986.986,0,0,1,.535.06A2.269,2.269,0,0,0,751.489,84.5Z" transform="translate(-707.829 -82.248)" fill="#6c63ff"/>
    <ellipse id="Ellipse_77" data-name="Ellipse 77" cx="1.62" cy="0.274" rx="1.62" ry="0.274" transform="translate(62.012 43.025)" fill="#6c63ff" opacity="0.1"/>
    <ellipse id="Ellipse_78" data-name="Ellipse 78" cx="1.62" cy="0.274" rx="1.62" ry="0.274" transform="translate(0.29 47.577)" fill="#6c63ff" opacity="0.1"/>
    <ellipse id="Ellipse_79" data-name="Ellipse 79" cx="1.62" cy="0.274" rx="1.62" ry="0.274" transform="translate(9.692 47.92)" fill="#6c63ff" opacity="0.1"/>
    <ellipse id="Ellipse_80" data-name="Ellipse 80" cx="2.418" cy="0.409" rx="2.418" ry="0.409" transform="translate(57.669 45.822)" fill="#6c63ff"/>
    <path id="Path_1304" data-name="Path 1304" d="M1038.191,787.244a.706.706,0,0,0,.23-.348.309.309,0,0,0-.161-.355c-.148-.057-.306.046-.426.15a.569.569,0,0,1-.414.2.63.63,0,0,0,.2-.59.249.249,0,0,0-.055-.12c-.082-.088-.231-.05-.329.019a1.226,1.226,0,0,0-.4,1.027,1.964,1.964,0,0,1-.006-.421.433.433,0,0,0-.159-.374.481.481,0,0,0-.241-.06.5.5,0,0,0-.393.112.388.388,0,0,0,.015.481,1.53,1.53,0,0,0,.407.326.9.9,0,0,1,.291.277.248.248,0,0,1,.022.05h.882A2.483,2.483,0,0,0,1038.191,787.244Z" transform="translate(-977.104 -741.682)" fill="#6c63ff"/>
    <path id="Path_1305" data-name="Path 1305" d="M87.487,720.81s.33.432-.152,1.083-.881,1.2-.722,1.609c0,0,.729-1.211,1.323-1.228S88.139,721.538,87.487,720.81Z" transform="translate(-84.822 -680.291)" fill="#6c63ff"/>
    <path id="Path_1306" data-name="Path 1306" d="M87.79,720.81a.52.52,0,0,1,.067.135c.579.68.887,1.314.331,1.33-.518.014-1.14.941-1.288,1.175,0,.017.011.035.017.053,0,0,.729-1.211,1.323-1.228S88.443,721.538,87.79,720.81Z" transform="translate(-85.125 -680.291)" opacity="0.1"/>
    <path id="Path_1307" data-name="Path 1307" d="M110.726,728.465c0,.152-.017.275-.038.275s-.038-.12-.038-.275.021-.08.042-.08S110.726,728.311,110.726,728.465Z" transform="translate(-107.447 -687.393)" fill="#ffd037"/>
    <path id="Path_1308" data-name="Path 1308" d="M111.339,731.375c-.134.073-.25.117-.26.1s.09-.093.224-.165.081-.02.091,0S111.473,731.3,111.339,731.375Z" transform="translate(-107.849 -690.122)" fill="#ffd037"/>
    <path id="Path_1309" data-name="Path 1309" d="M61.086,720.81s-.33.432.153,1.083.881,1.2.722,1.609c0,0-.728-1.211-1.323-1.228S60.434,721.538,61.086,720.81Z" transform="translate(-60.166 -680.291)" fill="#6c63ff"/>
    <path id="Path_1310" data-name="Path 1310" d="M61.066,720.81a.543.543,0,0,0-.067.135c-.579.68-.886,1.314-.331,1.33.518.014,1.143.941,1.289,1.175-.005.017-.011.035-.018.053,0,0-.728-1.211-1.323-1.228S60.414,721.538,61.066,720.81Z" transform="translate(-60.146 -680.291)" opacity="0.1"/>
    <path id="Path_1311" data-name="Path 1311" d="M62.47,728.465c0,.152.017.275.038.275s.038-.12.038-.275-.022-.08-.043-.08S62.47,728.311,62.47,728.465Z" transform="translate(-62.164 -687.393)" fill="#ffd037"/>
    <path id="Path_1312" data-name="Path 1312" d="M57.717,731.375c.134.073.25.117.26.1s-.09-.093-.224-.165-.081-.02-.091,0S57.582,731.3,57.717,731.375Z" transform="translate(-57.62 -690.122)" fill="#ffd037"/>
    <path id="Path_1313" data-name="Path 1313" d="M64.22,756.873a3.386,3.386,0,0,0,1.2-.227c.279-.2,1.42-.435,1.49-.114s1.389,1.581.345,1.589a8.815,8.815,0,0,1-2.7-.332C64.28,757.62,64.22,756.873,64.22,756.873Z" transform="translate(-63.809 -713.716)" fill="#a8a8a8"/>
    <path id="Path_1314" data-name="Path 1314" d="M67.246,765.777a8.818,8.818,0,0,1-2.7-.332c-.212-.129-.3-.591-.324-.8H64.19s.06.745.336.914a8.829,8.829,0,0,0,2.7.332c.3,0,.405-.109.4-.268C67.587,765.715,67.472,765.775,67.246,765.777Z" transform="translate(-63.781 -721.485)" opacity="0.2"/>
  </g>
</svg>
