<svg xmlns="http://www.w3.org/2000/svg" width="60.377" height="38.275" viewBox="0 0 60.377 38.275">
  <g id="Group_19" data-name="Group 19" transform="translate(0)">
    <path id="Path_1139" data-name="Path 1139" d="M98.112,646.646a6.3,6.3,0,0,0,2.346,3.173,5.422,5.422,0,0,0-1.919-7.1A6.3,6.3,0,0,0,98.112,646.646Z" transform="translate(-95.187 -613.059)" fill="#3f3d56"/>
    <path id="Path_1140" data-name="Path 1140" d="M52.741,682.759l-.072,0a5.485,5.485,0,0,1-5.326-5.185l-.006-.072.072,0a6.414,6.414,0,0,1,3.675,1.553,6.415,6.415,0,0,1,1.651,3.632Zm-5.265-5.125a5.345,5.345,0,0,0,5.125,4.989A6.223,6.223,0,0,0,51,679.145h0A6.217,6.217,0,0,0,47.476,677.634Z" transform="translate(-47.336 -645.933)" fill="#3f3d56"/>
    <circle id="Ellipse_68" data-name="Ellipse 68" cx="1.395" cy="1.395" r="1.395" transform="translate(50.011 34.047)" fill="#3f3d56"/>
    <rect id="Rectangle_631" data-name="Rectangle 631" width="19.024" height="16.16" transform="translate(7.655 18.157)" fill="#d0cde1"/>
    <path id="Path_1141" data-name="Path 1141" d="M210.03,451.369H190.8V435H210.03Zm-19.024-.206h18.818V435.208H191.005Z" transform="translate(-182.962 -416.684)" fill="#3f3d56"/>
    <path id="Path_1142" data-name="Path 1142" d="M392.787,301.637l-.39.461a.375.375,0,0,1-.556,0l-.39-.461v-3.2h1.336Z" transform="translate(-372.654 -287.576)" fill="#7c3ee9"/>
    <path id="Path_1143" data-name="Path 1143" d="M359.558,189.209h-.718a1.7,1.7,0,0,0,.3-.965c0-.943-.764-2.6-1.707-2.6s-1.707,1.655-1.707,2.6a1.7,1.7,0,0,0,.3.965h-.718a.548.548,0,0,0-.546.546v.392a.548.548,0,0,0,.546.546h4.252a.548.548,0,0,0,.546-.546v-.392A.548.548,0,0,0,359.558,189.209Z" transform="translate(-337.967 -180.948)" fill="#3f3d56"/>
    <path id="Path_1144" data-name="Path 1144" d="M385.393,263.184a.571.571,0,0,1-.461-.23l-.6-.794v-5.491h2.113v5.491l-.6.794A.571.571,0,0,1,385.393,263.184Zm-.947-1.061.574.765a.467.467,0,0,0,.747,0l.574-.765v-5.346h-1.895Z" transform="translate(-365.927 -248.091)" fill="#3f3d56"/>
    <path id="Path_1145" data-name="Path 1145" d="M392.992,389.738a.655.655,0,1,1-1.311,0c0-.362.655-1.092.655-1.092S392.992,389.376,392.992,389.738Z" transform="translate(-372.871 -372.86)" fill="#7c3ee9"/>
    <path id="Path_1146" data-name="Path 1146" d="M279.866,478.646a7.593,7.593,0,1,1-15.185,0Z" transform="translate(-253.646 -457.944)" fill="#6c63ff" opacity="0.2"/>
    <path id="Path_1147" data-name="Path 1147" d="M301.252,478.086a6.281,6.281,0,1,1-12.562,0Z" transform="translate(-276.344 -457.414)" fill="#7c3ee9"/>
    <circle id="Ellipse_69" data-name="Ellipse 69" cx="1.748" cy="1.748" r="1.748" transform="translate(12.801)" fill="#3f3d56"/>
    <circle id="Ellipse_70" data-name="Ellipse 70" cx="1.748" cy="1.748" r="1.748" transform="translate(17.717)" fill="#4ad46b"/>
    <circle id="Ellipse_71" data-name="Ellipse 71" cx="1.748" cy="1.748" r="1.748" transform="translate(22.633)" fill="#ea44c9"/>
    <rect id="Rectangle_632" data-name="Rectangle 632" width="35.664" height="0.126" transform="translate(1.926 36.762)" fill="#3f3d56"/>
    <path id="Path_1148" data-name="Path 1148" d="M957.7,372.861V349.646h10.65v23.215Zm.153-23.062v22.909h10.343V349.8Z" transform="translate(-907.969 -335.99)" fill="#3f3d56"/>
    <rect id="Rectangle_633" data-name="Rectangle 633" width="17.162" height="6.896" transform="translate(58.462 16.721) rotate(90)" fill="#d0cde1"/>
    <rect id="Rectangle_634" data-name="Rectangle 634" width="4.137" height="4.137" transform="translate(57.083 18.406) rotate(90)" fill="#6c63ff"/>
    <rect id="Rectangle_635" data-name="Rectangle 635" width="1.992" height="1.992" transform="translate(57.984 28.654) rotate(150)" fill="#ff6584"/>
    <rect id="Rectangle_636" data-name="Rectangle 636" width="6.742" height="1.992" transform="translate(54.708 25.302) rotate(90)" fill="#3f3d56"/>
    <path id="Path_1149" data-name="Path 1149" d="M737.429,400.407l-2.99,6.345,2.093,1.163,3.72-6.345Z" transform="translate(-694.321 -378.535)" fill="#ffb8b8"/>
    <path id="Path_1150" data-name="Path 1150" d="M737.429,400.407l-2.99,6.345,2.093,1.163,3.72-6.345Z" transform="translate(-694.321 -378.535)" opacity="0.1"/>
    <path id="Path_1151" data-name="Path 1151" d="M653.312,600.393l-3.588,7.374-2.026,2.026s-2.79.033-1.694,1.1,4.484-.2,4.484-.2l-.1.4,2.192-.2-.066-.8-.2-.1s.133-1.528-.2-1.827.6-.664.6-.664l3.82-6.644Z" transform="translate(-613.061 -573.04)" fill="#2f2e41"/>
    <path id="Path_1152" data-name="Path 1152" d="M759.852,490.463s-3.189,1.86-2.358,3.554,1.1,1.827,1.1,1.827l1.694-1.229-.3-.7,3.322-1.927S760.749,490.032,759.852,490.463Z" transform="translate(-718.571 -469.057)" fill="#ffb8b8"/>
    <path id="Path_1153" data-name="Path 1153" d="M766.571,555.075l4.551,7.275.465,2.026s-1.661,2.093-.432,2.226,2.624-1.827,2.691-2.724.166-1.462.166-1.462l.332.133s1-1.594.5-1.794a7.741,7.741,0,0,0-.9-.3,2.136,2.136,0,0,0-1.428-.3,1.416,1.416,0,0,0,0-.764c-.133-.233-3.68-6.094-3.68-6.094Z" transform="translate(-727.283 -528.52)" fill="#2f2e41"/>
    <circle id="Ellipse_72" data-name="Ellipse 72" cx="1.827" cy="1.827" r="1.827" transform="translate(45.3 3.336)" fill="#ffb8b8"/>
    <path id="Path_1154" data-name="Path 1154" d="M883.719,209.129a7.462,7.462,0,0,1,.5,2.425c-.166.531-1.495,3.023-1.495,3.023l.166,1.163,3.322-5.116s-.83-1.1-.6-1.86Z" transform="translate(-837.09 -202.803)" fill="#ffb8b8"/>
    <path id="Path_1155" data-name="Path 1155" d="M801.012,438.293l-.963,3.953s-4.783-2.857-6.112-2.757c0,0,2.89-3.289,3.986-3.289S801.012,438.293,801.012,438.293Z" transform="translate(-753.154 -417.816)" fill="#2f2e41"/>
    <path id="Path_1156" data-name="Path 1156" d="M862.044,237.316s-.764-1.229-1.694-.166A40.372,40.372,0,0,0,857.726,241l.119-.794a2.955,2.955,0,0,0-1.115,1.824c-.067,1.03-.332,4.484-.332,4.484l-.432,1.462,4.119,2.392.664-1.129s2.491.465,2.757.166-1.547-5.156-1.547-5.156Z" transform="translate(-811.794 -229.23)" fill="#575a89"/>
    <path id="Path_1157" data-name="Path 1157" d="M831.2,374.172l-1.993,2.757s-2.392.93-1.993,1.694,2.425-1.163,2.425-1.163l2.99-2.624Z" transform="translate(-784.573 -359.176)" fill="#ffb8b8"/>
    <path id="Path_1158" data-name="Path 1158" d="M896.89,251.432a10.616,10.616,0,0,0-1.528,4.086c-.066,1.761-.05,1.578-.05,1.578l-.731,1.03,1.727.963.88-.913s1.96-.565,1.727-2.192-.365-4.651-.7-4.651S896.89,251.432,896.89,251.432Z" transform="translate(-848.301 -243.046)" opacity="0.1"/>
    <path id="Path_1159" data-name="Path 1159" d="M897.818,245.35a10.616,10.616,0,0,0-1.528,4.086c-.066,1.761.1,1.794.1,1.794l-.9,1.2,1.661.9.963-1.229s1.96-.565,1.727-2.192-.365-4.65-.7-4.65S897.818,245.35,897.818,245.35Z" transform="translate(-849.163 -237.297)" fill="#575a89"/>
    <path id="Path_1160" data-name="Path 1160" d="M870.4,150.4s-.562-2.718,2.384-2.038c0,0,2.026-.534,2.9,1.985l.889,2.643-.346-.156-.129.351-.529.178-.266-.44-.069.564-4.381.778a4.271,4.271,0,0,0,1.759-3.419l-.346.427Z" transform="translate(-825.401 -145.598)" fill="#7c3ee9"/>
  </g>
</svg>
