<svg xmlns="http://www.w3.org/2000/svg" width="74" height="54.082" viewBox="0 0 74 54.082">
  <g id="Group_16" data-name="Group 16" transform="translate(0.411)">
    <ellipse id="Ellipse_36" data-name="Ellipse 36" cx="12.224" cy="2.275" rx="12.224" ry="2.275" transform="translate(17.286 49.532)" fill="#f2f2f2"/>
    <rect id="Rectangle_604" data-name="Rectangle 604" width="65.185" height="35.099" transform="translate(4.751 6.321)" fill="#f2f2f2"/>
    <rect id="Rectangle_605" data-name="Rectangle 605" width="6.16" height="7.564" transform="translate(63.775 33.857)" fill="#3f3d56"/>
    <path id="Path_1062" data-name="Path 1062" d="M999.652,560.279a1.951,1.951,0,1,1-3.9,0c0-1.469,1.951-3.338,1.951-3.338S999.652,558.81,999.652,560.279Z" transform="translate(-930.597 -522.24)" fill="#6c63ff"/>
    <path id="Path_1063" data-name="Path 1063" d="M925.33,489.536l.02-1.229.831-1.521-.828,1.328.009-.553.573-1.1-.571.954h0l.016-.994.614-.876-.611.72.01-1.823-.064,2.414.005-.1-.624-.955.614,1.146-.058,1.11,0-.029-.719-1,.717,1.109-.007.139v.013l-.148,2.817h.2l.024-1.455.715-1.106Z" transform="translate(-858.296 -449.74)" fill="#3f3d56"/>
    <path id="Path_1064" data-name="Path 1064" d="M199.076,75.652a1.576,1.576,0,1,1,1.576-1.576A1.576,1.576,0,0,1,199.076,75.652Zm0-3.009a1.433,1.433,0,1,0,1.433,1.433,1.433,1.433,0,0,0-1.433-1.433Z" transform="translate(-189.526 -72.5)" fill="#3f3d56"/>
    <circle id="Ellipse_37" data-name="Ellipse 37" cx="1" cy="1" r="1" transform="translate(-0.411 8)" fill="#3f3d56"/>
    <circle id="Ellipse_38" data-name="Ellipse 38" cx="1" cy="1" r="1" transform="translate(71.589 15)" fill="#3f3d56"/>
    <rect id="Rectangle_606" data-name="Rectangle 606" width="47.563" height="0.43" transform="translate(13.597 13.485)" fill="#3f3d56"/>
    <rect id="Rectangle_607" data-name="Rectangle 607" width="47.563" height="0.43" transform="translate(13.597 17.353)" fill="#3f3d56"/>
    <rect id="Rectangle_608" data-name="Rectangle 608" width="47.563" height="0.43" transform="translate(13.597 21.221)" fill="#3f3d56"/>
    <rect id="Rectangle_609" data-name="Rectangle 609" width="1.146" height="3.582" transform="translate(21.692 11.909)" fill="#6c63ff"/>
    <rect id="Rectangle_610" data-name="Rectangle 610" width="1.146" height="3.582" transform="translate(34.729 15.777)" fill="#6c63ff"/>
    <rect id="Rectangle_611" data-name="Rectangle 611" width="1.146" height="3.582" transform="translate(57.078 19.645)" fill="#6c63ff"/>
    <rect id="Rectangle_612" data-name="Rectangle 612" width="16.905" height="0.43" transform="translate(13.597 30.103)" fill="#3f3d56"/>
    <rect id="Rectangle_613" data-name="Rectangle 613" width="8.453" height="0.43" transform="translate(13.597 31.679)" fill="#3f3d56"/>
    <path id="Path_1065" data-name="Path 1065" d="M191.15,465.9H188.5v-2.65h2.579v.143h-2.435v2.364h2.364V464.41h.143Z" transform="translate(-174.974 -430.067)" fill="#3f3d56"/>
    <rect id="Rectangle_614" data-name="Rectangle 614" width="16.905" height="0.43" transform="translate(44.256 30.103)" fill="#3f3d56"/>
    <rect id="Rectangle_615" data-name="Rectangle 615" width="5.444" height="0.43" transform="translate(44.256 31.679)" fill="#3f3d56"/>
    <rect id="Rectangle_616" data-name="Rectangle 616" width="5.444" height="0.43" transform="translate(55.717 31.679)" fill="#3f3d56"/>
    <path id="Path_1066" data-name="Path 1066" d="M705.65,538.4H703v-2.65h2.65Zm-2.507-.143h2.364v-2.364h-2.364Z" transform="translate(-658.816 -502.567)" fill="#3f3d56"/>
    <path id="Path_1067" data-name="Path 1067" d="M353.649,321.339h-1.881v-.921h1.574l.345.192Z" transform="translate(-326.547 -297.466)" fill="#575a89"/>
    <path id="Path_1068" data-name="Path 1068" d="M332.478,684.484l.077,1.382,1.152-.23-.192-1.382Z" transform="translate(-308.639 -635.24)" fill="#ffb9b9"/>
    <path id="Path_1069" data-name="Path 1069" d="M493.814,745.937a7.032,7.032,0,0,1-.077,1.459c-.115.307.307.461.307.461h.921l.537.077v-.576a4.094,4.094,0,0,1-.614-1.5C494.889,745.323,493.814,745.937,493.814,745.937Z" transform="translate(-464.525 -697.422)" fill="#ffb9b9"/>
    <path id="Path_1070" data-name="Path 1070" d="M415.687,773.276s.768-.363,1.036-.143,1.267,2.1.883,2.216c0,0-.269.461-1.19.154s-.921-.653-.921-.653-.269-.23-.269-.307.115-.768.115-.768.085-.578.215-.538Z" transform="translate(-391.656 -722.88)" fill="#2f2e41"/>
    <path id="Path_1071" data-name="Path 1071" d="M490.1,767.344s-.115-.115-.192,0-.5,1.574-.115,1.65.96.345,1.036.269a1.05,1.05,0,0,0,.154-.269,3.019,3.019,0,0,1,.806.5c.192.23,2.495.729,2.418,0s-1.228-1.343-1.228-1.343l-1.267-.844s-.5.038-.614.269S490.176,767.766,490.1,767.344Z" transform="translate(-460.733 -717.524)" fill="#2f2e41"/>
    <path id="Path_1072" data-name="Path 1072" d="M334.539,463.632s-.422.537-.345.576a7.051,7.051,0,0,0,2.687.192c.921-.23,2.84-.192,2.956-.461s1.535-3.608,1.535-3.608l-.461-2.533-.5-.653-1.151-1-2.3,4.3Z" transform="translate(-316.419 -428.666)" fill="#575a89"/>
    <path id="Path_1073" data-name="Path 1073" d="M334.539,463.632s-.422.537-.345.576a7.051,7.051,0,0,0,2.687.192c.921-.23,2.84-.192,2.956-.461s1.535-3.608,1.535-3.608l-.461-2.533-.5-.653-1.151-1-2.3,4.3Z" transform="translate(-316.419 -428.666)" opacity="0.1"/>
    <path id="Path_1074" data-name="Path 1074" d="M404.094,537.329a10.642,10.642,0,0,0,0,4.568,8.316,8.316,0,0,1,.154,3.339c.115.115.154.077.154.192s.115.652,0,.844-.115,6.295.23,6.448,1.343.537,1.535,0,.038-4.414.115-4.606a2.878,2.878,0,0,0,.077-.768c0-.115.23-1.42.269-1.766s.154-1.036.154-1.036a20.75,20.75,0,0,1,.154-3.531,3.4,3.4,0,0,1,.307-.883l1.842,4.8s-.154.5,0,.653-.038.115.115.384.307.346.307.5-.154.154-.077.269a3.137,3.137,0,0,1,.192.537l-.192.461a14.325,14.325,0,0,0,.269,1.535c.154.576.154,2.917.345,2.956s1.689.461,1.689-.422-.115-4.721-.115-4.721a4.14,4.14,0,0,1-.23-.729c0-.154-.038-.23.038-.307a.243.243,0,0,0,.038-.345c-.115-.115-.077-.269-.077-.422a3.361,3.361,0,0,0-.077-.614c-.038-.154-.768-4.951-.768-4.951s.154-.576,0-.614-.154-.345-.154-.5.384-2.073-.077-2.073S404.094,537.329,404.094,537.329Z" transform="translate(-381.099 -503.284)" fill="#2f2e41"/>
    <path id="Path_1075" data-name="Path 1075" d="M312.782,515.626l-.537.269s-1.919,1.036-1.075,1.612,1.689-.806,1.689-.806l.806-.614Z" transform="translate(-294.854 -483.884)" fill="#ffb9b9"/>
    <path id="Path_1076" data-name="Path 1076" d="M422.754,367.02s-.154,1.766-.96,2.149-.269,3.263-.269,3.263l1.113,1.075,1.958-.576.23-1.305.192-1.343-.461-.691s-.576-.154-.345-1.689S422.754,367.02,422.754,367.02Z" transform="translate(-397.341 -345.795)" fill="#ffb9b9"/>
    <path id="Path_1077" data-name="Path 1077" d="M402.151,402.411s.883,2.917,1.5,2.917.96-.691,1.036-1.535a5.454,5.454,0,0,1,.576-1.766l1.19,1.075s.96,8.483.883,8.713-3.071.5-4.261.844-2.38.077-2.38-.115a4.7,4.7,0,0,0,.146-2.732,4.5,4.5,0,0,1-.34-1.209,5.961,5.961,0,0,1-.074-1.471c.115-.384.729-4.452.729-4.452Z" transform="translate(-377.89 -378.423)" fill="#6c63ff"/>
    <path id="Path_1078" data-name="Path 1078" d="M341.615,392.549s-.688.368-1,.522-2.188.614-2.226.844.269,3.454.115,3.8-1.689,3.416-1.689,3.416l-.077.652s-2.533,3.032-2.226,3.378,1.459-1.075,1.459-1.075,2.572-4.107,2.648-4.26a25.3,25.3,0,0,1,1.881-3.071,25.216,25.216,0,0,0,.844-3.455C341.425,393.148,341.727,392.488,341.615,392.549Z" transform="translate(-316.703 -369.62)" fill="#575a89"/>
    <path id="Path_1079" data-name="Path 1079" d="M336.92,411.137h-.23s-.844,3.224-1.075,3.646a4.606,4.606,0,0,0-.307,1.228c-.038.115-.192.077-.23.345s-.422.614-.729.768a11.16,11.16,0,0,0-1.65,1.5c.038.038.461,1.382.729,1.382s1.343-1.305,1.459-1.305.614-.461.691-.5,2.034-3.646,1.958-4.529A15.928,15.928,0,0,0,336.92,411.137Z" transform="translate(-315.038 -386.88)" fill="#575a89"/>
    <path id="Path_1080" data-name="Path 1080" d="M512.945,549.959l.473.371s1.673,1.4.731,1.794S512.655,551,512.655,551l-.667-.763Z" transform="translate(-481.486 -515.758)" fill="#ffb9b9"/>
    <path id="Path_1081" data-name="Path 1081" d="M460.654,393.236a4.827,4.827,0,0,1,.738.438c.23.192,2,.691,2,.844s-.192,2.533-.192,2.533l.269,4.222s.384,4.76.461,4.875.192.729,0,.729a2.644,2.644,0,0,1-1.113-1.612c.038-.537.307-1.766.038-2.073a45.638,45.638,0,0,1-1.535-5.757c0-.307-.537-3.378-.5-3.454A3.593,3.593,0,0,0,460.654,393.236Z" transform="translate(-433.83 -370.261)" fill="#575a89"/>
    <path id="Path_1082" data-name="Path 1082" d="M489.785,410.6l.576.038,1.42,5.8s.115.729.153.806.614,3.416.384,3.531-1,.537-1.036.269a5.8,5.8,0,0,0-.806-2.111c-.384-.345-.768-6.295-.768-6.295Z" transform="translate(-460.803 -386.382)" fill="#575a89"/>
    <circle id="Ellipse_39" data-name="Ellipse 39" cx="1.574" cy="1.574" r="1.574" transform="translate(25.106 19.114)" fill="#ffb9b9"/>
    <path id="Path_1083" data-name="Path 1083" d="M422.71,331.571a.276.276,0,0,1,.324.109,1.536,1.536,0,0,1,2.232-1.038v-.16a1.329,1.329,0,0,0-1.329-1.329h-.319a2.5,2.5,0,0,0-2.5,2.5v.446a2.239,2.239,0,0,0,1.226,2l1.437-.761a1.536,1.536,0,0,1-.769-1.141.315.315,0,0,1-.369-.2A.309.309,0,0,1,422.71,331.571Z" transform="translate(-397.128 -310.769)" fill="#2f2e41"/>
    <path id="Path_1084" data-name="Path 1084" d="M195.583,464.9l.782.883,1.709-1.676" transform="translate(-181.55 -430.863)" fill="none" stroke="#57b894" stroke-miterlimit="10" stroke-width="4"/>
  </g>
</svg>
