<svg xmlns="http://www.w3.org/2000/svg" xmlns:xlink="http://www.w3.org/1999/xlink" width="95.52" height="58.28" viewBox="0 0 95.52 58.28">
  <defs>
    <linearGradient id="linear-gradient" x1="9.046" y1="1" x2="9.046" gradientUnits="objectBoundingBox">
      <stop offset="0" stop-color="gray" stop-opacity="0.251"/>
      <stop offset="0.54" stop-color="gray" stop-opacity="0.122"/>
      <stop offset="1" stop-color="gray" stop-opacity="0.102"/>
    </linearGradient>
  </defs>
  <g id="Group_28" data-name="Group 28" transform="translate(0)">
    <path id="Path_1343" data-name="Path 1343" d="M123.52,153.164A15.076,15.076,0,0,1,121.339,161a9.849,9.849,0,0,1-3.534,7.42,12.083,12.083,0,0,1-1.76,1.276l-.077.046-.141.083-.044.026h0a13.744,13.744,0,0,1-6.772,1.737H46.133q-.751,0-1.49-.06a17.63,17.63,0,0,1-5.1-1.181q-.478-.189-.937-.406-.219-.1-.433-.211c-.089-.045-.179-.092-.267-.139a15.651,15.651,0,0,1-2.877-1.953,12.58,12.58,0,0,1-4.6-9.536A15.071,15.071,0,0,1,28,149.867a14.884,14.884,0,0,1,14.779-14.988c.25,0,.5.008.751.021a.762.762,0,0,1,.107.005,25.463,25.463,0,0,1,5.427-6.4c6.032-5.168,14.847-8.426,24.667-8.426a39.415,39.415,0,0,1,21.57,6.1,14.543,14.543,0,0,1,7.177-1.883,14.886,14.886,0,0,1,14.779,14.988,15.444,15.444,0,0,1-.083,1.568A15.029,15.029,0,0,1,123.52,153.164Z" transform="translate(-28 -118.487)" fill="#6c63ff" opacity="0.1"/>
    <g id="Group_26" data-name="Group 26" transform="translate(6.633 29.285)" opacity="0.2">
      <path id="Path_1344" data-name="Path 1344" d="M148.306,707.634a.991.991,0,0,1-.008.113q-.478-.189-.937-.406a.759.759,0,0,1-.433-.211c-.089-.045-.179-.092-.267-.138a1.132,1.132,0,0,1,.068-.122.777.777,0,0,1,1.414.043A1.409,1.409,0,0,1,148.306,707.634Z" transform="translate(-143.385 -685.169)" fill="#3f3d56"/>
      <path id="Path_1345" data-name="Path 1345" d="M147.288,690.514a1.409,1.409,0,0,1-.21.708.84.84,0,0,1-.721.433l-.059,0a.76.76,0,0,1-.433-.211,1.048,1.048,0,0,1-.2-.261,1.465,1.465,0,0,1,.045-1.429.777.777,0,0,1,1.414.043A1.409,1.409,0,0,1,147.288,690.514Z" transform="translate(-142.323 -669.479)" fill="#3f3d56"/>
      <ellipse id="Ellipse_95" data-name="Ellipse 95" cx="1.17" cy="0.893" rx="1.17" ry="0.893" transform="translate(3.188 20.722) rotate(-88.19)" fill="#3f3d56"/>
      <ellipse id="Ellipse_96" data-name="Ellipse 96" cx="1.17" cy="0.893" rx="1.17" ry="0.893" transform="translate(3.233 19.292) rotate(-88.19)" fill="#3f3d56"/>
      <ellipse id="Ellipse_97" data-name="Ellipse 97" cx="1.17" cy="0.893" rx="1.17" ry="0.893" transform="translate(3.286 17.771) rotate(-88.282)" fill="#3f3d56"/>
      <path id="Path_1346" data-name="Path 1346" d="M108.612,458.568a4.152,4.152,0,0,1-.317-.5l2.36-.312-2.54-.061a4.29,4.29,0,0,1,.026-3.393l3.35,1.874-3.068-2.409a4.282,4.282,0,1,1,6.917,5.01,4.268,4.268,0,0,1,.463.8l-3.1,1.487,3.284-.988a4.287,4.287,0,0,1-.82,4,4.282,4.282,0,1,1-6.726-.212,4.282,4.282,0,0,1,.167-5.292Z" transform="translate(-107.44 -451.737)" fill="#6c63ff"/>
      <path id="Path_1347" data-name="Path 1347" d="M116.171,567.365a16.951,16.951,0,0,0-1.644,8.392,4.282,4.282,0,0,1-6.085-5.987C107.894,569.024,116.186,566.884,116.171,567.365Z" transform="translate(-107.44 -557.647)" opacity="0.1"/>
    </g>
    <path id="Path_1348" data-name="Path 1348" d="M278.459,222.537v40.01a1.537,1.537,0,0,1-1.537,1.537H215.537a1.512,1.512,0,0,1-.424-.06A1.535,1.535,0,0,1,214,262.547V227.393a.764.764,0,0,1,.107.005,25.464,25.464,0,0,1,5.427-6.4h57.388A1.537,1.537,0,0,1,278.459,222.537Z" transform="translate(-198.47 -210.98)" fill="#fff"/>
    <rect id="Rectangle_686" data-name="Rectangle 686" width="11.508" height="3.003" rx="1.501" transform="translate(59.463 15.216)" fill="#3f3d56"/>
    <rect id="Rectangle_687" data-name="Rectangle 687" width="10.008" height="1.998" rx="0.999" transform="translate(60.213 15.717)" opacity="0.1"/>
    <rect id="Rectangle_688" data-name="Rectangle 688" width="3.614" height="1.779" rx="0.89" transform="translate(66.357 15.827)" fill="#6c63ff"/>
    <circle id="Ellipse_98" data-name="Ellipse 98" cx="0.556" cy="0.556" r="0.556" transform="translate(67.58 16.161)" fill="#fff"/>
    <rect id="Rectangle_689" data-name="Rectangle 689" width="11.508" height="3.003" rx="1.501" transform="translate(59.463 35.008)" fill="#3f3d56"/>
    <rect id="Rectangle_690" data-name="Rectangle 690" width="10.008" height="1.998" rx="0.999" transform="translate(60.213 35.51)" opacity="0.1"/>
    <rect id="Rectangle_691" data-name="Rectangle 691" width="3.614" height="1.779" rx="0.89" transform="translate(66.357 35.62)" fill="#6c63ff"/>
    <circle id="Ellipse_99" data-name="Ellipse 99" cx="0.556" cy="0.556" r="0.556" transform="translate(67.58 35.954)" fill="#fff"/>
    <rect id="Rectangle_692" data-name="Rectangle 692" width="11.508" height="3.003" rx="1.501" transform="translate(59.463 44.904)" fill="#3f3d56"/>
    <rect id="Rectangle_693" data-name="Rectangle 693" width="10.008" height="1.998" rx="0.999" transform="translate(60.213 45.407)" opacity="0.1"/>
    <rect id="Rectangle_694" data-name="Rectangle 694" width="3.614" height="1.779" rx="0.89" transform="translate(66.357 45.516)" fill="#6c63ff"/>
    <circle id="Ellipse_100" data-name="Ellipse 100" cx="0.556" cy="0.556" r="0.556" transform="translate(67.58 45.85)" fill="#fff"/>
    <rect id="Rectangle_695" data-name="Rectangle 695" width="6.727" height="1.779" rx="0.89" transform="translate(24.548 13.325)" fill="#6c63ff"/>
    <rect id="Rectangle_696" data-name="Rectangle 696" width="18.681" height="1.779" rx="0.89" transform="translate(24.548 15.827)" fill="#6c63ff"/>
    <rect id="Rectangle_697" data-name="Rectangle 697" width="18.681" height="1.779" rx="0.89" transform="translate(24.548 18.329)" fill="#6c63ff"/>
    <g id="Group_27" data-name="Group 27" transform="translate(24.548 23.221)" opacity="0.5">
      <rect id="Rectangle_698" data-name="Rectangle 698" width="6.727" height="1.779" rx="0.89" fill="#6c63ff"/>
      <rect id="Rectangle_699" data-name="Rectangle 699" width="13.944" height="1.779" rx="0.89" transform="translate(0 2.502)" fill="#6c63ff"/>
      <rect id="Rectangle_700" data-name="Rectangle 700" width="18.681" height="1.779" rx="0.89" transform="translate(0 5.004)" fill="#6c63ff"/>
    </g>
    <rect id="Rectangle_701" data-name="Rectangle 701" width="6.727" height="1.779" rx="0.89" transform="translate(24.548 33.118)" fill="#6c63ff"/>
    <rect id="Rectangle_702" data-name="Rectangle 702" width="18.681" height="1.779" rx="0.89" transform="translate(24.548 35.62)" fill="#6c63ff"/>
    <rect id="Rectangle_703" data-name="Rectangle 703" width="11.606" height="1.779" rx="0.89" transform="translate(24.548 38.122)" fill="#6c63ff"/>
    <rect id="Rectangle_704" data-name="Rectangle 704" width="6.727" height="1.779" rx="0.89" transform="translate(24.548 43.014)" fill="#6c63ff"/>
    <rect id="Rectangle_705" data-name="Rectangle 705" width="18.681" height="1.779" rx="0.89" transform="translate(24.548 45.516)" fill="#6c63ff"/>
    <rect id="Rectangle_706" data-name="Rectangle 706" width="15.029" height="1.779" rx="0.89" transform="translate(24.548 48.018)" fill="#6c63ff"/>
    <line id="Line_2" data-name="Line 2" x2="54.44" transform="translate(21.709 21.708)" fill="none" stroke="#3f3d56" stroke-linecap="round" stroke-miterlimit="10" stroke-width="1" opacity="0.7"/>
    <line id="Line_3" data-name="Line 3" x2="54.44" transform="translate(21.709 31.77)" fill="none" stroke="#3f3d56" stroke-linecap="round" stroke-miterlimit="10" stroke-width="1" opacity="0.7"/>
    <line id="Line_4" data-name="Line 4" x2="54.44" transform="translate(21.709 41.831)" fill="none" stroke="#3f3d56" stroke-linecap="round" stroke-miterlimit="10" stroke-width="1" opacity="0.7"/>
    <line id="Line_5" data-name="Line 5" x2="54.44" transform="translate(21.709 52.143)" fill="none" stroke="#3f3d56" stroke-linecap="round" stroke-miterlimit="10" stroke-width="1" opacity="0.7"/>
    <ellipse id="Ellipse_101" data-name="Ellipse 101" cx="12.331" cy="0.877" rx="12.331" ry="0.877" transform="translate(54.049 56.526)" fill="#6c63ff" opacity="0.1"/>
    <circle id="Ellipse_102" data-name="Ellipse 102" cx="1.806" cy="1.806" r="1.806" transform="translate(4.082 9.982)" fill="#6c63ff" opacity="0.1"/>
    <circle id="Ellipse_103" data-name="Ellipse 103" cx="1.806" cy="1.806" r="1.806" transform="translate(11.609 0)" fill="#6c63ff" opacity="0.1"/>
    <circle id="Ellipse_104" data-name="Ellipse 104" cx="3.027" cy="3.027" r="3.027" transform="translate(9.776 5.637)" fill="#6c63ff" opacity="0.1"/>
    <rect id="Rectangle_707" data-name="Rectangle 707" width="11.508" height="3.003" rx="1.501" transform="translate(59.463 25.112)" fill="#3f3d56"/>
    <rect id="Rectangle_708" data-name="Rectangle 708" width="10.008" height="1.998" rx="0.999" transform="translate(60.213 25.614)" opacity="0.1"/>
    <path id="Path_1349" data-name="Path 1349" d="M722.247,429.667c.131-.019.262-.046.391-.076a1.225,1.225,0,0,1-.11.371,1.617,1.617,0,0,1-.607.537.188.188,0,0,0-.237-.016c-.276.167-.5.4-.79.546-.1.05-.209.09-.31.146a1.669,1.669,0,0,0-.584.6.415.415,0,0,0-.07.428.371.371,0,0,0,.119.106.675.675,0,0,0,.407.121c.083-.008.167-.039.258-.053.114-.02.231-.01.346-.02a2.025,2.025,0,0,0,.488-.126l.574-.2a3.307,3.307,0,0,0,.472-.194c.091-.049.177-.107.27-.152a2.164,2.164,0,0,1,.322-.114l.326-.1a.316.316,0,0,1,.147-.019c.045.008.083.037.129.048a.391.391,0,0,0,.209-.02l.377-.107a.714.714,0,0,0,.225-.094.684.684,0,0,0,.2-.579,4.393,4.393,0,0,0-.109-.959.3.3,0,0,0-.123.093,1.8,1.8,0,0,0-.124-.156,1.862,1.862,0,0,1-.377-.7,1.225,1.225,0,0,0,.334-.377,8.239,8.239,0,0,0-.81-2.2c-.133-.219-.285-.424-.417-.64-.4-.626-.476-1.419-.928-2a.347.347,0,0,1,0-.407c.052-.068.135-.133.119-.218-.012-.061-.075-.117-.051-.174.012-.028.04-.043.062-.063.077-.072.067-.193.074-.3a1.45,1.45,0,0,1,.326-.715.439.439,0,0,1,.12-.13c.041-.025.089-.037.13-.062.144-.091.134-.3.2-.459.09-.207.317-.311.466-.479.19-.214.238-.511.438-.7a.5.5,0,0,1,.066-.053,3.355,3.355,0,0,0-.118.973c-.019,1.13.261,2.3.13,3.423a2.361,2.361,0,0,0,1.211,2.223,5.79,5.79,0,0,0,.943.4c.483.173.964.351,1.437.549q.5.21.989.452a12.311,12.311,0,0,1,1.169.652,4.527,4.527,0,0,1,1.259,1.045,1,1,0,0,0,.556-.2c.127.1.281.176.4.287a1.208,1.208,0,0,1,.317.623h-.05c.006.111.011.222.017.334a.142.142,0,0,1-.013.084.15.15,0,0,1-.045.041l-.257.175c-.187.126-.393.286-.4.512a.26.26,0,0,0,.056.183.394.394,0,0,0,.229.1,4.03,4.03,0,0,0,1.359.125.894.894,0,0,0,.579-.267,1.148,1.148,0,0,0,.2-.554c.056-.334.1-.675.139-1.014a2.245,2.245,0,0,1,.139-.674.084.084,0,0,1,.036-.045c.019-.008.042,0,.062-.008s.033-.039.04-.064a3.981,3.981,0,0,0,.119-1.009.681.681,0,0,0-.039-.26.525.525,0,0,0-.357-.276,2.856,2.856,0,0,0-.462-.055,2.3,2.3,0,0,1-.383-.07.349.349,0,0,0-.159-.021.112.112,0,0,0-.1.111.144.144,0,0,0,.02.054l-.13-.026c-.105-.019-.25-.065-.408-.1a.713.713,0,0,1,.005-.084.158.158,0,0,0-.088-.144L730.4,426.3l-.413-.22c-.9-.483-1.837-.93-2.743-1.414-.06.018-.11-.051-.128-.113s-.03-.135-.088-.163c-.028-.013-.066-.013-.083-.037a.1.1,0,0,1-.016-.074c.029-.44.344-.846.281-1.282a1.619,1.619,0,0,1-.083-.553,2.628,2.628,0,0,1,.167-.349c.109-.269,0-.592.119-.855a1.978,1.978,0,0,0,.16-.544,3.74,3.74,0,0,1,.334-1.08,1.95,1.95,0,0,1,.311-.473c.066-.072.14-.136.2-.21a1.76,1.76,0,0,0,.317-.835,4,4,0,0,0,.043-1.621,2.322,2.322,0,0,1-.1-.545c0-.222.089-.477-.018-.655a.576.576,0,0,0,.208-.357.466.466,0,0,1,.029-.148.43.43,0,0,1,.139-.125.577.577,0,0,0,.215-.574c.114.052.235-.064.289-.179s.1-.25.211-.3a1.738,1.738,0,0,1,.25-.035c.133-.034.214-.167.307-.265a2.369,2.369,0,0,1,.71-.437,8.045,8.045,0,0,0,1.933-1.558,6.547,6.547,0,0,0,.835-.94c.066-.1.126-.2.183-.3l.015-.008.005.018c.009.037.02.073.031.109.027.084.057.173.084.258a1.936,1.936,0,0,0,.372.707.87.87,0,0,0,.19.148,1.277,1.277,0,0,0,.49.147c.065.008.131.013.2.017l.2.008,1.351.036a3.872,3.872,0,0,1-.47-2.367c.078-2.1.488-4.227.107-6.3a1.614,1.614,0,0,0-.26-.7,1.442,1.442,0,0,0-.85-.464,5.1,5.1,0,0,1-.954-.245,4.021,4.021,0,0,0-.751-.358,1.655,1.655,0,0,0-.6.01q-.366.054-.727.129l-.058.013h0l-.04.009h-.011l-.036.008h-.013l-.034.009-.015,0-.031.01-.018.006-.028.009-.018.008-.027.01-.02.008-.024.011-.02.01-.023.011-.02.012-.021.012-.02.013-.019.012-.02.014-.017.013-.019.017-.016.014-.018.019-.014.014-.019.023s-.007.008-.011.013-.015.022-.023.034v.005a.511.511,0,0,0-.046.1c-.006.018-.012.035-.016.053a.788.788,0,0,0-.018.109.247.247,0,0,1,0,.056v.111a1.6,1.6,0,0,0,.021.187,2.035,2.035,0,0,0-.1,3.443.9.9,0,0,1,.007.1v.022a2.749,2.749,0,0,1-.037.352,4.893,4.893,0,0,0-1-.089c-.2,0-.4.018-.6.034a9.1,9.1,0,0,1-.6-.818l-.446-.654a6.225,6.225,0,0,1-.418-.668c-.109-.212-.194-.438-.316-.643-.25-.423-.66-.783-.711-1.273l-.118.024c-.064-.105-.145-.216-.175-.277a5.459,5.459,0,0,1-.371-1.085,1.671,1.671,0,0,0-.178-.563,1.27,1.27,0,0,0-.26-.276,1.717,1.717,0,0,0-.556-.351.719.719,0,0,0-.569.033.828.828,0,0,0-.083-.033.689.689,0,0,0-.631.073.849.849,0,0,0-.277.584,1.443,1.443,0,0,0,.149.887,3.509,3.509,0,0,0,.713.738,2.888,2.888,0,0,1,.448.558,6.111,6.111,0,0,1-.034,1.354c-.032.192-.084.381-.1.574-.061.7.3,1.4.173,2.087a.509.509,0,0,0,.236.54,2.6,2.6,0,0,0,.611.167c.4.1.751.362,1.159.458.188.045.383.053.57.1l.029.009a1.358,1.358,0,0,0-.3.569c-.084.351,0,.726-.089,1.076a2.4,2.4,0,0,1-.41.786l-.98,1.419a8.677,8.677,0,0,1-.722.949c-.45.492-1.226.882-1.455,1.473,0-.014-.012-.028-.017-.043-.324.238-.445.681-.7.989-.126.149-.281.271-.417.409a4.72,4.72,0,0,0-.462.574,10.182,10.182,0,0,0-1.045,1.665c-.144.311-.255.634-.369.955a36.591,36.591,0,0,0-1.487,3.778,7.111,7.111,0,0,0-.3.936,1.81,1.81,0,0,0,.292.993c.251.471.529.928.752,1.413.131.282.245.574.391.849.159.3.355.579.522.876A10.98,10.98,0,0,1,722.247,429.667Zm5.524-23.926-.04-.02a1.383,1.383,0,0,1-.405-.268,3.131,3.131,0,0,1-.627-1.48c-.013-.062-.025-.123-.036-.184a8.891,8.891,0,0,1,1.108,1.954Z" transform="translate(-661.698 -374.476)" fill="url(#linear-gradient)"/>
    <path id="Path_1350" data-name="Path 1350" d="M778.6,401.953a1.64,1.64,0,0,0-.177-.559,1.265,1.265,0,0,0-.261-.274,1.73,1.73,0,0,0-.558-.348.7.7,0,0,0-.631.073.842.842,0,0,0-.278.584,1.425,1.425,0,0,0,.149.881,3.623,3.623,0,0,0,.715.733,2.871,2.871,0,0,1,.466.584,1.685,1.685,0,0,0,.212.311.4.4,0,0,0,.334.134.586.586,0,0,0,.273-.161c.1-.089.376-.251.384-.39.007-.114-.207-.373-.26-.481A5.464,5.464,0,0,1,778.6,401.953Z" transform="translate(-714.163 -375.702)" fill="#fbbebe"/>
    <path id="Path_1351" data-name="Path 1351" d="M778.6,401.953a1.64,1.64,0,0,0-.177-.559,1.265,1.265,0,0,0-.261-.274,1.73,1.73,0,0,0-.558-.348.7.7,0,0,0-.631.073.842.842,0,0,0-.278.584,1.425,1.425,0,0,0,.149.881,3.623,3.623,0,0,0,.715.733,2.871,2.871,0,0,1,.466.584,1.685,1.685,0,0,0,.212.311.4.4,0,0,0,.334.134.586.586,0,0,0,.273-.161c.1-.089.376-.251.384-.39.007-.114-.207-.373-.26-.481A5.464,5.464,0,0,1,778.6,401.953Z" transform="translate(-714.163 -375.702)" opacity="0.1"/>
    <path id="Path_1352" data-name="Path 1352" d="M797.395,437.724a4.915,4.915,0,0,0-1.351-.167,7.042,7.042,0,0,1-2.269-.038,3.945,3.945,0,0,1-.543-.231,1.386,1.386,0,0,1-.406-.266,3.09,3.09,0,0,1-.628-1.47,9.809,9.809,0,0,1-.171-1.564,1.2,1.2,0,0,1-.593.156.436.436,0,0,1-.417-.383,6.338,6.338,0,0,1-.028,1.457c-.032.19-.083.378-.1.57-.062.7.3,1.39.173,2.076a.5.5,0,0,0,.236.536,2.653,2.653,0,0,0,.612.167c.4.1.751.359,1.161.455.188.044.384.053.571.1.266.071.509.224.782.271.2.037.417.012.62.029.179.015.355.062.535.067a1.542,1.542,0,0,0,1.149-.569A4.981,4.981,0,0,0,797.395,437.724Z" transform="translate(-727.187 -405.976)" fill="#f86d70"/>
    <path id="Path_1353" data-name="Path 1353" d="M797.395,437.724a4.915,4.915,0,0,0-1.351-.167,7.042,7.042,0,0,1-2.269-.038,3.945,3.945,0,0,1-.543-.231,1.386,1.386,0,0,1-.406-.266,3.09,3.09,0,0,1-.628-1.47,9.809,9.809,0,0,1-.171-1.564,1.2,1.2,0,0,1-.593.156.436.436,0,0,1-.417-.383,6.338,6.338,0,0,1-.028,1.457c-.032.19-.083.378-.1.57-.062.7.3,1.39.173,2.076a.5.5,0,0,0,.236.536,2.653,2.653,0,0,0,.612.167c.4.1.751.359,1.161.455.188.044.384.053.571.1.266.071.509.224.782.271.2.037.417.012.62.029.179.015.355.062.535.067a1.542,1.542,0,0,0,1.149-.569A4.981,4.981,0,0,0,797.395,437.724Z" transform="translate(-727.187 -405.976)" opacity="0.1"/>
    <path id="Path_1354" data-name="Path 1354" d="M866.138,736.878a1.143,1.143,0,0,1,.39.122.919.919,0,0,1,.339.458,3.973,3.973,0,0,1,.228,1.429,3.074,3.074,0,0,1-.147,1.158.736.736,0,0,1-.193.3.7.7,0,0,1-.266.129.711.711,0,0,1-.623-.077.993.993,0,0,1-.278-.65,1.506,1.506,0,0,0-.37-.883c-.177-.167-.431-.251-.559-.453a.966.966,0,0,1,.025-.831c.083-.235.21-.71.455-.83S865.883,736.832,866.138,736.878Z" transform="translate(-794.723 -683.635)" fill="#fbbebe"/>
    <path id="Path_1355" data-name="Path 1355" d="M745.383,747.419a1.851,1.851,0,0,0,.382.711c.109.125.245.277.188.432a.4.4,0,0,1-.1.138,5.28,5.28,0,0,1-3.054,1.313.106.106,0,0,1-.054,0c-.033-.014-.041-.056-.044-.092a1.136,1.136,0,0,1,0-.352,1.058,1.058,0,0,1,.529-.617,1.642,1.642,0,0,0,.621-.543c.163-.306.094-.7.288-.99a1.032,1.032,0,0,1,.727-.376c.1-.015.3-.12.382-.072S745.355,747.323,745.383,747.419Z" transform="translate(-683.012 -693.023)" fill="#fbbebe"/>
    <path id="Path_1356" data-name="Path 1356" d="M868.546,737.1a.111.111,0,0,1,.1-.11.364.364,0,0,1,.16.02,2.192,2.192,0,0,0,.383.071,2.841,2.841,0,0,1,.463.054.524.524,0,0,1,.358.273.677.677,0,0,1,.039.259,3.929,3.929,0,0,1-.119,1c-.007.025-.017.054-.041.064s-.042,0-.061.009a.075.075,0,0,0-.036.045,2.209,2.209,0,0,0-.139.668c-.037.334-.083.673-.139,1.007a1.109,1.109,0,0,1-.2.551.9.9,0,0,1-.58.265,4.083,4.083,0,0,1-1.361-.124.4.4,0,0,1-.23-.1.257.257,0,0,1-.056-.182c.01-.225.217-.383.4-.509l.258-.173a.133.133,0,0,0,.045-.041.14.14,0,0,0,.013-.083l-.017-.334a.946.946,0,0,1,.824.513c.035.071.069.154.143.181a.189.189,0,0,0,.225-.136.58.58,0,0,0-.008-.29c-.151-.807-.115-1.637-.207-2.453a.553.553,0,0,0-.084-.259C868.638,737.231,868.555,737.176,868.546,737.1Z" transform="translate(-797.02 -683.886)" fill="#f86d70"/>
    <rect id="Rectangle_709" data-name="Rectangle 709" width="3.614" height="1.779" rx="0.89" transform="translate(64.077 27.503) rotate(180)" fill="#6c63ff"/>
    <circle id="Ellipse_105" data-name="Ellipse 105" cx="0.556" cy="0.556" r="0.556" transform="translate(61.742 26.057)" fill="#fff"/>
    <path id="Path_1357" data-name="Path 1357" d="M727.075,762.906c-.038.063-.1.111-.132.175a.15.15,0,0,0,.028.2.193.193,0,0,0,.119.012,4.017,4.017,0,0,0,2.171-.984,1.526,1.526,0,0,0,.266-.291c.071-.108.131-.24.251-.285a4.335,4.335,0,0,1,.112.956.681.681,0,0,1-.2.576.717.717,0,0,1-.226.092l-.377.107a.4.4,0,0,1-.21.02c-.044-.012-.083-.04-.129-.048a.319.319,0,0,0-.147.019l-.326.1a2.07,2.07,0,0,0-.322.113c-.093.044-.179.1-.271.15a3.242,3.242,0,0,1-.473.192l-.574.2a2.085,2.085,0,0,1-.489.125c-.115.01-.233,0-.347.019a2.406,2.406,0,0,1-.259.053.677.677,0,0,1-.407-.12.379.379,0,0,1-.119-.105c-.084-.128-.011-.3.069-.426a1.687,1.687,0,0,1,.584-.6c.1-.055.208-.1.311-.145.293-.142.514-.379.791-.541S727.2,762.7,727.075,762.906Z" transform="translate(-666.781 -706.561)" fill="#f86d70"/>
    <path id="Path_1358" data-name="Path 1358" d="M846.69,468.973a2.385,2.385,0,0,0,1.015.395,4.144,4.144,0,0,0,.574.031,14.606,14.606,0,0,0,2.391-.2,2.96,2.96,0,0,1-.752-1.169,1.93,1.93,0,0,1-.037-.732,5.5,5.5,0,0,1,.224-.918,6.482,6.482,0,0,1-1.01-.026c-.191-.02-.66-.194-.827-.062s-.038.557-.036.756a.216.216,0,0,1,0,.022,2.415,2.415,0,0,1-.193.883A1.665,1.665,0,0,1,846.69,468.973Z" transform="translate(-778.333 -435.746)" fill="#fbbebe"/>
    <path id="Path_1359" data-name="Path 1359" d="M864.639,467.007a2.009,2.009,0,0,0,1.649.25,5.522,5.522,0,0,1,.224-.918,6.49,6.49,0,0,1-1.01-.026c-.191-.02-.66-.194-.827-.062S864.637,466.808,864.639,467.007Z" transform="translate(-794.738 -435.709)" opacity="0.1"/>
    <circle id="Ellipse_106" data-name="Ellipse 106" cx="2.013" cy="2.013" r="2.013" transform="translate(68.99 27.506)" fill="#fbbebe"/>
    <path id="Path_1360" data-name="Path 1360" d="M776.09,495.914a.937.937,0,0,0,.454.807,1.813,1.813,0,0,0,.493.174,9.673,9.673,0,0,0,2.81.347,1.545,1.545,0,0,0,.6-.125.64.64,0,0,0,.368-.46.263.263,0,0,1,.168-.271.571.571,0,0,0,.216-.569c.114.052.235-.064.289-.178s.1-.251.211-.3a1.753,1.753,0,0,1,.251-.035c.133-.034.214-.167.307-.263a2.409,2.409,0,0,1,.711-.435,8.043,8.043,0,0,0,1.937-1.547,6.5,6.5,0,0,0,.835-.934,3.444,3.444,0,0,0,.184-.3,8.517,8.517,0,0,0,.464-1.061,1.224,1.224,0,0,0,.12-.608.27.27,0,0,0-.011-.056,1.169,1.169,0,0,0-.183-.369,1.545,1.545,0,0,0-.825-.678,2.28,2.28,0,0,0-1.061.1,2.672,2.672,0,0,1-.36.055,3.381,3.381,0,0,1-1.121-.176l-.4-.11c-.2-.055-.3-.3-.5-.339a.678.678,0,0,0-.271.014,3.742,3.742,0,0,0-1.186.387,1.8,1.8,0,0,0-.231.157,1.459,1.459,0,0,0-.536.791c-.084.348,0,.721-.089,1.069a2.381,2.381,0,0,1-.41.78l-.984,1.409a8.7,8.7,0,0,1-.723.942C777.084,494.7,776.1,495.133,776.09,495.914Z" transform="translate(-713.628 -456.209)" fill="#f86d70"/>
    <path id="Path_1361" data-name="Path 1361" d="M786.445,401.953a1.64,1.64,0,0,0-.177-.559,1.265,1.265,0,0,0-.261-.274,1.732,1.732,0,0,0-.558-.348.7.7,0,0,0-.631.073.842.842,0,0,0-.278.584,1.425,1.425,0,0,0,.149.881,3.513,3.513,0,0,0,.715.733,2.865,2.865,0,0,1,.466.584,1.686,1.686,0,0,0,.212.311.4.4,0,0,0,.334.134.584.584,0,0,0,.273-.161c.1-.089.376-.251.384-.39.007-.114-.207-.373-.26-.481A5.465,5.465,0,0,1,786.445,401.953Z" transform="translate(-721.357 -375.702)" fill="#fbbebe"/>
    <path id="Path_1362" data-name="Path 1362" d="M719.56,582.4c.251.468.529.918.756,1.4.131.281.245.57.391.844.159.3.356.575.523.869a10.089,10.089,0,0,1,.87,2.407,4.8,4.8,0,0,0,1.713-.6,1.071,1.071,0,0,0,.1-.066,1.213,1.213,0,0,0,.346-.382,8.168,8.168,0,0,0-.811-2.189c-.133-.217-.285-.418-.418-.635-.395-.622-.477-1.406-.929-1.988a.341.341,0,0,1,0-.4c.052-.068.135-.132.119-.216-.012-.061-.075-.116-.051-.173.012-.028.04-.042.062-.063.077-.07.067-.191.074-.295a1.444,1.444,0,0,1,.327-.711.447.447,0,0,1,.12-.13c.041-.025.089-.037.13-.062.144-.089.134-.3.2-.456.09-.205.317-.31.467-.476.19-.212.237-.507.437-.692a.618.618,0,0,1,.066-.054,3.32,3.32,0,0,0-.118.97c-.019,1.122.261,2.283.13,3.4a2.343,2.343,0,0,0,1.212,2.208,5.867,5.867,0,0,0,.944.4c.483.171.965.347,1.439.545.334.139.668.289.99.448a12.179,12.179,0,0,1,1.169.648,4.5,4.5,0,0,1,1.261,1.038,1.132,1.132,0,0,0,.815-.448,3.146,3.146,0,0,0,.446-.844,2.342,2.342,0,0,0,.212-.8.158.158,0,0,0-.089-.143l-2.209-1.169-.417-.219c-.9-.48-1.837-.924-2.746-1.4-.061.018-.111-.052-.129-.112s-.03-.135-.088-.162c-.029-.013-.066-.013-.084-.037a.1.1,0,0,1-.015-.073c.029-.437.345-.84.281-1.273a1.6,1.6,0,0,1-.083-.549,2.557,2.557,0,0,1,.167-.347c.108-.267,0-.584.119-.849a1.951,1.951,0,0,0,.159-.541,3.664,3.664,0,0,1,.338-1.072,1.939,1.939,0,0,1,.31-.471c.067-.071.141-.135.2-.209a1.743,1.743,0,0,0,.318-.825,3.941,3.941,0,0,0,.044-1.611,2.283,2.283,0,0,1-.1-.542c0-.243.109-.528-.059-.7a.552.552,0,0,0-.25-.127,7.563,7.563,0,0,0-1.2-.221l-1.842-.24a1.693,1.693,0,0,1-.614-.159,1.224,1.224,0,0,1-.518-.661c-.324.236-.446.676-.7.982-.126.149-.281.27-.417.407a4.585,4.585,0,0,0-.463.57,10.127,10.127,0,0,0-1.048,1.653c-.143.308-.25.63-.369.949a36.144,36.144,0,0,0-1.489,3.752,6.906,6.906,0,0,0-.3.93A1.757,1.757,0,0,0,719.56,582.4Z" transform="translate(-661.546 -532.829)" fill="#434175"/>
    <path id="Path_1363" data-name="Path 1363" d="M835.529,566.037a.573.573,0,0,1,.068.272c-.041-.2-.321-.316-.339-.518-.008-.093.008-.089.066-.039C835.412,565.825,835.449,565.957,835.529,566.037Z" transform="translate(-767.853 -526.915)" opacity="0.1"/>
    <path id="Path_1364" data-name="Path 1364" d="M826.313,576.224a.43.43,0,0,1,.128.189.48.48,0,0,1,.025.328c-.041-.019-.055-.069-.068-.114a.785.785,0,0,0-.083-.195c-.033-.053-.186-.178-.185-.235C826.127,576.11,826.272,576.193,826.313,576.224Z" transform="translate(-759.489 -536.484)" opacity="0.1"/>
    <path id="Path_1365" data-name="Path 1365" d="M827.14,489.053a2.108,2.108,0,0,0,.424.282c.4.2.841.308,1.243.5a6.024,6.024,0,0,1,.576.334c.4.25.8.5,1.193.756a1.309,1.309,0,0,1,.263.2c.144.154.143.417.274.584a.785.785,0,0,0,.579.267,1.879,1.879,0,0,0,.645-.109,3.193,3.193,0,0,0,.369-.134,1.707,1.707,0,0,0,.354-.2,1.017,1.017,0,0,0,.418-.659,1.3,1.3,0,0,0-.071-.538,2.112,2.112,0,0,0-.127-.326,1.27,1.27,0,0,0-.1-.171,1.891,1.891,0,0,0-1.223-.662c-.246-.048-.5-.077-.744-.119a2.665,2.665,0,0,1-.36.055,3.38,3.38,0,0,1-1.12-.176l-.4-.11c-.2-.055-.3-.3-.5-.339a.678.678,0,0,0-.271.014,3.738,3.738,0,0,0-1.186.387A1.787,1.787,0,0,0,827.14,489.053Z" transform="translate(-760.415 -456.126)" opacity="0.1"/>
    <path id="Path_1366" data-name="Path 1366" d="M799.772,431.36c.051.487.462.844.712,1.264.122.2.207.428.317.64a6.251,6.251,0,0,0,.418.668l.447.649a6.713,6.713,0,0,0,.864,1.085,9.445,9.445,0,0,1,1.632.746,8.593,8.593,0,0,0,1.4.283,1.889,1.889,0,0,1,1.223.662,1.743,1.743,0,0,1,.229.5,1.3,1.3,0,0,1,.071.537,1.018,1.018,0,0,1-.417.66,2.315,2.315,0,0,1-.722.334,1.9,1.9,0,0,1-.646.109.788.788,0,0,1-.579-.267c-.13-.167-.13-.433-.273-.584a1.312,1.312,0,0,0-.263-.2l-1.193-.751a6.01,6.01,0,0,0-.576-.334c-.4-.2-.843-.3-1.242-.5a1.467,1.467,0,0,1-.849-.975,9.493,9.493,0,0,0-1.979-3.608c.026-.005.018-.065.028-.09a1.169,1.169,0,0,1,.584-.591A2.952,2.952,0,0,1,799.772,431.36Z" transform="translate(-734.02 -403.776)" fill="#f86d70"/>
    <path id="Path_1367" data-name="Path 1367" d="M865.958,421.23a.74.74,0,0,1,.083-.424.95.95,0,0,1,.662-.35c.252-.052.484-.092.728-.127a1.68,1.68,0,0,1,.6-.011,4.06,4.06,0,0,1,.751.356,5.336,5.336,0,0,0,.955.244,1.468,1.468,0,0,1,.852.461,1.6,1.6,0,0,1,.26.7c.382,2.057-.029,4.166-.107,6.256a3.82,3.82,0,0,0,.471,2.351l-1.354-.036a1.231,1.231,0,0,1-1.447-1.019,2.418,2.418,0,0,1-.174-.7c-.021-.491.258-.973.167-1.456a1.641,1.641,0,0,0-.611-.889,5.665,5.665,0,0,1-.821-.731,2.666,2.666,0,0,1-.432-1.866,7.069,7.069,0,0,0,.066-1.163,1.464,1.464,0,0,0-.306-.815A1.148,1.148,0,0,1,865.958,421.23Z" transform="translate(-795.988 -393.636)" fill="#434175"/>
    <path id="Path_1368" data-name="Path 1368" d="M866.035,422.6a.93.93,0,0,1,.649-.346.64.64,0,0,0-.321.251.751.751,0,0,0-.083.425,1.131,1.131,0,0,0,.346.781,1.454,1.454,0,0,1,.307.815,7.154,7.154,0,0,1-.066,1.163,2.659,2.659,0,0,0,.432,1.866,5.493,5.493,0,0,0,.821.731,1.627,1.627,0,0,1,.611.889c.09.483-.189.965-.167,1.456a2.38,2.38,0,0,0,.173.7,1.232,1.232,0,0,0,1.448,1.019l.958.025c.021.035.044.07.067.1l-1.354-.036a1.232,1.232,0,0,1-1.447-1.019,2.421,2.421,0,0,1-.174-.7c-.021-.491.258-.973.167-1.456a1.643,1.643,0,0,0-.611-.889,5.647,5.647,0,0,1-.821-.731,2.666,2.666,0,0,1-.433-1.866,7.042,7.042,0,0,0,.066-1.163,1.464,1.464,0,0,0-.306-.815,1.136,1.136,0,0,1-.347-.781A.741.741,0,0,1,866.035,422.6Z" transform="translate(-795.982 -395.427)" opacity="0.1"/>
    <path id="Path_1369" data-name="Path 1369" d="M745.22,636.045l2.487,6.058a1.212,1.212,0,0,0,.346-.382,8.168,8.168,0,0,0-.811-2.189c-.133-.217-.285-.417-.417-.635-.395-.622-.477-1.406-.929-1.988a.341.341,0,0,1,0-.4c.052-.068.135-.132.12-.216-.012-.061-.075-.116-.051-.173.012-.028.04-.043.062-.063.077-.07.067-.191.074-.295a1.444,1.444,0,0,1,.327-.711.445.445,0,0,1,.12-.129c.041-.025.089-.037.13-.062.144-.089.134-.3.2-.456.09-.205.317-.31.467-.476.189-.212.237-.507.438-.692l.017-.043-.188-1.169Z" transform="translate(-685.335 -587.682)" opacity="0.1"/>
    <ellipse id="Ellipse_107" data-name="Ellipse 107" cx="2.835" cy="0.545" rx="2.835" ry="0.545" transform="translate(78.745 54.508)" fill="#6c63ff"/>
    <ellipse id="Ellipse_108" data-name="Ellipse 108" cx="0.33" cy="0.432" rx="0.33" ry="0.432" transform="translate(81.298 54.39)" fill="#3f3d56"/>
    <ellipse id="Ellipse_109" data-name="Ellipse 109" cx="0.33" cy="0.432" rx="0.33" ry="0.432" transform="translate(81.298 53.862)" fill="#3f3d56"/>
    <ellipse id="Ellipse_110" data-name="Ellipse 110" cx="0.33" cy="0.432" rx="0.33" ry="0.432" transform="translate(81.298 53.333)" fill="#3f3d56"/>
    <ellipse id="Ellipse_111" data-name="Ellipse 111" cx="0.33" cy="0.432" rx="0.33" ry="0.432" transform="translate(81.298 52.806)" fill="#3f3d56"/>
    <ellipse id="Ellipse_112" data-name="Ellipse 112" cx="0.33" cy="0.432" rx="0.33" ry="0.432" transform="translate(81.298 52.277)" fill="#3f3d56"/>
    <ellipse id="Ellipse_113" data-name="Ellipse 113" cx="0.33" cy="0.432" rx="0.33" ry="0.432" transform="translate(81.298 51.749)" fill="#3f3d56"/>
    <ellipse id="Ellipse_114" data-name="Ellipse 114" cx="0.33" cy="0.432" rx="0.33" ry="0.432" transform="translate(81.298 51.222)" fill="#3f3d56"/>
    <path id="Path_1370" data-name="Path 1370" d="M987.108,648.2a1.582,1.582,0,0,1-.123-.181l.867-.143-.938.008a1.586,1.586,0,0,1-.03-1.252l1.258.652-1.161-.852a1.581,1.581,0,1,1,2.611,1.769,1.519,1.519,0,0,1,.18.288l-1.126.584,1.2-.4a1.592,1.592,0,0,1,.084.507,6.276,6.276,0,0,0-.509,3.116,3.2,3.2,0,0,1-2.315-4.093Z" transform="translate(-906.716 -600.164)" fill="#6c63ff"/>
    <path id="Path_1371" data-name="Path 1371" d="M989.932,687.8a6.274,6.274,0,0,0-.509,3.116,1.581,1.581,0,0,1-2.315-2.138C986.9,688.5,989.932,687.619,989.932,687.8Z" transform="translate(-906.716 -638.779)" opacity="0.1"/>
    <ellipse id="Ellipse_115" data-name="Ellipse 115" cx="1.906" cy="0.367" rx="1.906" ry="0.367" transform="translate(85.194 48.632)" fill="#6c63ff"/>
    <ellipse id="Ellipse_116" data-name="Ellipse 116" cx="0.222" cy="0.291" rx="0.222" ry="0.291" transform="translate(86.911 48.552)" fill="#3f3d56"/>
    <ellipse id="Ellipse_117" data-name="Ellipse 117" cx="0.222" cy="0.291" rx="0.222" ry="0.291" transform="translate(86.911 48.197)" fill="#3f3d56"/>
    <ellipse id="Ellipse_118" data-name="Ellipse 118" cx="0.222" cy="0.291" rx="0.222" ry="0.291" transform="translate(86.911 47.842)" fill="#3f3d56"/>
    <ellipse id="Ellipse_119" data-name="Ellipse 119" cx="0.222" cy="0.291" rx="0.222" ry="0.291" transform="translate(86.911 47.487)" fill="#3f3d56"/>
    <ellipse id="Ellipse_120" data-name="Ellipse 120" cx="0.222" cy="0.291" rx="0.222" ry="0.291" transform="translate(86.911 47.132)" fill="#3f3d56"/>
    <ellipse id="Ellipse_121" data-name="Ellipse 121" cx="0.222" cy="0.291" rx="0.222" ry="0.291" transform="translate(86.911 46.777)" fill="#3f3d56"/>
    <ellipse id="Ellipse_122" data-name="Ellipse 122" cx="0.222" cy="0.291" rx="0.222" ry="0.291" transform="translate(86.911 46.422)" fill="#3f3d56"/>
    <path id="Path_1372" data-name="Path 1372" d="M1059.089,612.39a.917.917,0,0,1-.083-.122l.584-.1-.63,0a1.055,1.055,0,0,1-.1-.444,1.066,1.066,0,0,1,.077-.4l.847.439-.781-.574a1.063,1.063,0,1,1,1.754,1.19,1.031,1.031,0,0,1,.121.194l-.756.393.807-.271a13.509,13.509,0,0,0-.284,2.442,2.155,2.155,0,0,1-1.557-2.754Z" transform="translate(-972.787 -568.107)" fill="#6c63ff"/>
    <path id="Path_1373" data-name="Path 1373" d="M1061.006,639.058a4.223,4.223,0,0,0-.34,2.1,1.064,1.064,0,0,1-1.557-1.44C1058.965,639.534,1061.006,638.938,1061.006,639.058Z" transform="translate(-972.806 -594.117)" opacity="0.1"/>
  </g>
</svg>
