<svg xmlns="http://www.w3.org/2000/svg" xmlns:xlink="http://www.w3.org/1999/xlink" width="60.919" height="101.683" viewBox="0 0 60.919 101.683">
  <defs>
    <linearGradient id="linear-gradient" x1="0.5" y1="1" x2="0.5" gradientUnits="objectBoundingBox">
      <stop offset="0" stop-color="gray" stop-opacity="0.251"/>
      <stop offset="0.54" stop-color="gray" stop-opacity="0.122"/>
      <stop offset="1" stop-color="gray" stop-opacity="0.102"/>
    </linearGradient>
    <linearGradient id="linear-gradient-2" x1="0.5" y1="1" x2="0.5" y2="0" xlink:href="#linear-gradient"/>
    <linearGradient id="linear-gradient-3" x1="0.146" y1="1.023" x2="0.933" y2="-0.011" xlink:href="#linear-gradient"/>
    <linearGradient id="linear-gradient-4" x1="0.5" y1="1" x2="0.5" gradientUnits="objectBoundingBox">
      <stop offset="0" stop-color="#fcfdff"/>
      <stop offset="1" stop-color="#b2ebf2"/>
    </linearGradient>
    <linearGradient id="linear-gradient-5" x1="0.5" y1="1" x2="0.5" y2="0" xlink:href="#linear-gradient"/>
    <linearGradient id="linear-gradient-6" x1="0.5" y1="1" x2="0.5" y2="-0.001" xlink:href="#linear-gradient"/>
    <linearGradient id="linear-gradient-7" x1="0.5" y1="1" x2="0.5" y2="0" xlink:href="#linear-gradient"/>
    <linearGradient id="linear-gradient-8" x1="0.5" y1="1" x2="0.5" y2="0" xlink:href="#linear-gradient"/>
  </defs>
  <g id="Group_18" data-name="Group 18" transform="translate(0.034 5.453)">
    <path id="Path_1112" data-name="Path 1112" d="M384.688,231.464h0a4.37,4.37,0,0,1-6.008,1.365l-12.723-8.385a4.37,4.37,0,0,1-1.365-6.008h0a4.37,4.37,0,0,1,6.008-1.365l12.723,8.385A4.37,4.37,0,0,1,384.688,231.464Z" transform="translate(-363.96 -198.863)" fill="url(#linear-gradient)"/>
    <path id="Path_1113" data-name="Path 1113" d="M389.11,235.024h0a4.062,4.062,0,0,1-5.585,1.27l-11.827-7.8a4.062,4.062,0,0,1-1.27-5.585h0a4.062,4.062,0,0,1,5.585-1.27l11.829,7.794A4.062,4.062,0,0,1,389.11,235.024Z" transform="translate(-369.085 -202.881)" fill="#be7c5e"/>
    <path id="Path_1114" data-name="Path 1114" d="M518.474,579.409a9.293,9.293,0,0,0-18.423-1.732L471.49,576.9l.324,4.906s-4.072,9.4,17.331,11.9v9.5h24.748V587.426A9.288,9.288,0,0,0,518.474,579.409Z" transform="translate(-457.66 -506.984)" fill="url(#linear-gradient-2)"/>
    <path id="Path_1115" data-name="Path 1115" d="M452.573,632.048c-.147,2.644,1.642,8.155,18.317,9.956v9.1h25.7V627l-44.035-1.1.014.213A47.527,47.527,0,0,1,452.573,632.048Z" transform="translate(-441.17 -555.575)" fill="#be7c5e"/>
    <g id="Group_17" data-name="Group 17" transform="translate(9.851 -0.925)" opacity="0.5">
      <path id="Path_1116" data-name="Path 1116" d="M480.228,73.13l-38.049.093a1.563,1.563,0,0,0-1.56,1.566l.178,71.165a1.564,1.564,0,0,0,1.567,1.56l38.049-.093a1.564,1.564,0,0,0,1.56-1.567L481.8,74.69A1.564,1.564,0,0,0,480.228,73.13Z" transform="translate(-440.62 -73.13)" fill="url(#linear-gradient-3)"/>
    </g>
    <rect id="Rectangle_621" data-name="Rectangle 621" width="45.308" height="80.805" rx="13.64" transform="translate(7.771 -5.343) rotate(-0.14)" fill="#fff"/>
    <path id="_Path_" data-name="&lt;Path&gt;" d="M481.859,94.768a3.248,3.248,0,0,1-3.194,2.77l-13.838.034a3.248,3.248,0,0,1-3.208-2.755l-7.33.018a1.522,1.522,0,0,0-1.518,1.525l.159,65.647a1.522,1.522,0,0,0,1.525,1.518l35.012-.085a1.522,1.522,0,0,0,1.518-1.525l-.16-65.647A1.522,1.522,0,0,0,489.3,94.75Z" transform="translate(-441.353 -92.888)" fill="#6c63ff"/>
    <rect id="Rectangle_622" data-name="Rectangle 622" width="8.927" height="0.558" rx="0.279" transform="translate(25.616 2.843) rotate(-0.86)" fill="#dbdbdb"/>
    <circle id="Ellipse_49" data-name="Ellipse 49" cx="0.335" cy="0.335" r="0.335" transform="translate(36.103 2.573) rotate(-0.86)" fill="#dbdbdb"/>
    <circle id="Ellipse_50" data-name="Ellipse 50" cx="3.204" cy="3.204" r="3.204" transform="translate(27.297 61.385)" fill="#eee" opacity="0.5"/>
    <circle id="Ellipse_51" data-name="Ellipse 51" cx="2.258" cy="2.258" r="2.258" transform="translate(28.244 62.331)" fill="none" stroke="#6c63ff" stroke-miterlimit="10" stroke-width="1" opacity="0.2"/>
    <rect id="Rectangle_623" data-name="Rectangle 623" width="3.89" height="3.89" transform="translate(15.855 62.644)" fill="#eee" opacity="0.5"/>
    <path id="Path_1117" data-name="Path 1117" d="M689.572,566.887v-.428a.129.129,0,0,0-.129-.129h-1.5a.129.129,0,0,0-.129.129v.428h-.583v-.258h-.345v.258h-.432v2.587h4.484v-2.587Z" transform="translate(-644.912 -503.683)" fill="#eee" opacity="0.5"/>
    <rect id="Rectangle_624" data-name="Rectangle 624" width="38.22" height="47.947" transform="translate(11.392 9.432)" fill="url(#linear-gradient-4)"/>
    <circle id="Ellipse_52" data-name="Ellipse 52" cx="1.03" cy="1.03" r="1.03" transform="translate(44.463 5.427)" fill="#eee" opacity="0.7"/>
    <circle id="Ellipse_53" data-name="Ellipse 53" cx="1.03" cy="1.03" r="1.03" transform="translate(45.15 6.457)" fill="#eee" opacity="0.7"/>
    <circle id="Ellipse_54" data-name="Ellipse 54" cx="1.03" cy="1.03" r="1.03" transform="translate(43.662 6.457)" fill="#eee" opacity="0.5"/>
    <path id="Path_1118" data-name="Path 1118" d="M104.387,49.28l1.6,1.03L103.7,51.34l1.145,1.03" transform="translate(-90.363 -43.853)" fill="#eee" opacity="0.7"/>
    <rect id="Rectangle_625" data-name="Rectangle 625" width="11.329" height="29.066" transform="translate(11.392 28.314)" fill="#6c63ff" opacity="0.3"/>
    <rect id="Rectangle_626" data-name="Rectangle 626" width="5.607" height="6.866" transform="translate(38.741 50.514)" fill="#6c63ff" opacity="0.3"/>
    <rect id="Rectangle_627" data-name="Rectangle 627" width="4.807" height="12.701" transform="translate(44.349 44.792)" fill="#6c63ff" opacity="0.3"/>
    <path id="Path_1119" data-name="Path 1119" d="M515.233,348.365H513.4s-.568-20.025,1.83-26.2h.458S514.092,344.817,515.233,348.365Z" transform="translate(-494.119 -290.986)" fill="#fff8e1"/>
    <path id="Path_1120" data-name="Path 1120" d="M478.016,246.1s-1.487,4.125-.8,5.951c0,0,1.031-3.777,2.231-4.349s2.461,4.349,2.461,4.349a9.554,9.554,0,0,0-.572-5.607,9.948,9.948,0,0,1,3.777,4s.229-1.717-2.747-5.264a11.616,11.616,0,0,1,4.349,2.289s.572-1.259-2.975-3.319c0,0,.458-1.487,3.2-.8,0,0,0-1.945-4.349-1.6,0,0,0-1.259,2.86-1.031,0,0,0-1.6-3.319-1.031a5.021,5.021,0,0,1,1.145-1.259,2.3,2.3,0,0,0-1.6.458,3.1,3.1,0,0,0-1.6-2.86l-.229,2.86s-1.923-2.267-1.487-1.83a5.011,5.011,0,0,1,.343,2.174,3.567,3.567,0,0,0-4.349.115s2.975.229,3.432,1.259c0,0-2.517-.458-3.094-.115,0,0,1.945.687,1.83,1.145,0,0-3.432,0-3.89,1.259,0,0,3.547.458,3.777.8,0,0-4.125,2.975-4.349,3.777,0,0,4.234-2.517,4.92-2.517s-3.094,3.662-2.86,4.577C474.125,249.534,477.215,245.874,478.016,246.1Z" transform="translate(-458.156 -215.958)" fill="#c8e6c9"/>
    <path id="Path_1121" data-name="Path 1121" d="M512.652,443.68s-5.082,1.664-3.795,10.542h2.4l2.867-9.067Z" transform="translate(-490.028 -396.842)" fill="#be7c5e"/>
    <path id="Path_1122" data-name="Path 1122" d="M652.416,443.68s4.912,1.892,3.623,10.771l-2.359-.018-2.74-9.281Z" transform="translate(-613.979 -396.842)" fill="#be7c5e"/>
    <path id="Path_1123" data-name="Path 1123" d="M517.125,330.82s-2.32,11.927-3.585,11.294c0,0,12.205,10.541,22.981,0,0,0-1.9-8.554-4.64-11.294Z" transform="translate(-494.29 -298.529)" fill="#333"/>
    <circle id="Ellipse_55" data-name="Ellipse 55" cx="9.065" cy="9.065" r="9.065" transform="translate(21.594 22.592)" fill="#333"/>
    <path id="Path_1124" data-name="Path 1124" d="M544.087,454.432a8.25,8.25,0,0,0,.211-5.271c-.843-2.95-.211-.211-.211-.211l-1.476-5.271H526.8L525.325,450s-.866,2.929.211,4.216" transform="translate(-504.269 -396.842)" opacity="0.1"/>
    <path id="Path_1125" data-name="Path 1125" d="M541.534,443.68H525.721L524.245,450s-1.468,4.2.211,4.216c18.641.229.1,0,18.553.211a8.25,8.25,0,0,0,.211-5.271c-.843-2.95-.211-.211-.211-.211Z" transform="translate(-503.097 -396.842)" fill="#f55f44"/>
    <path id="Path_1126" data-name="Path 1126" d="M213.371,329.84H219.7v7.355a.867.867,0,0,1-.867.867h-4.591a.867.867,0,0,1-.867-.867V329.84Z" transform="translate(-185.897 -288.25)" opacity="0.1"/>
    <path id="Path_1127" data-name="Path 1127" d="M213.371,328H219.7v7.356a.867.867,0,0,1-.867.867h-4.591a.867.867,0,0,1-.867-.867V328Z" transform="translate(-185.897 -286.647)" fill="#be7c5e"/>
    <path id="Path_1128" data-name="Path 1128" d="M577.42,403.115a9.1,9.1,0,0,0,6.325.018v-.773H577.42Z" transform="translate(-549.936 -360.848)" opacity="0.1"/>
    <circle id="Ellipse_56" data-name="Ellipse 56" cx="9.065" cy="9.065" r="9.065" transform="translate(21.594 24.561)" fill="#be7c5e"/>
    <path id="Path_1129" data-name="Path 1129" d="M534.81,270.149H552.1s-1.476-6.981-8.011-6.536S534.81,270.149,534.81,270.149Z" transform="translate(-512.818 -239.967)" fill="#333"/>
    <ellipse id="Ellipse_57" data-name="Ellipse 57" cx="0.843" cy="1.582" rx="0.843" ry="1.582" transform="translate(20.938 31.658)" fill="#be7c5e"/>
    <ellipse id="Ellipse_58" data-name="Ellipse 58" cx="0.843" cy="1.582" rx="0.843" ry="1.582" transform="translate(38.648 31.658)" fill="#be7c5e"/>
    <path id="Path_1130" data-name="Path 1130" d="M534.81,271.969H552.1s-1.476-6.981-8.011-6.536S534.81,271.969,534.81,271.969Z" transform="translate(-512.818 -241.552)" opacity="0.1"/>
    <circle id="Ellipse_59" data-name="Ellipse 59" cx="8.899" cy="8.899" r="8.899" transform="translate(42.028 63.833)" fill="#be7c5e"/>
    <path id="Path_1131" data-name="Path 1131" d="M729.556,443.1h0c-2.578.6-4.355-1.087-4.952-3.668l-5.929-22.041a4.834,4.834,0,0,1,3.609-5.781h0a4.834,4.834,0,0,1,5.781,3.609l4.844,22.606A4.174,4.174,0,0,1,729.556,443.1Z" transform="translate(-672.877 -368.795)" fill="url(#linear-gradient-5)"/>
    <rect id="Rectangle_628" data-name="Rectangle 628" width="8.1" height="32.34" rx="4.05" transform="translate(45.713 44.846) rotate(-13.01)" fill="#be7c5e"/>
    <path id="Path_1132" data-name="Path 1132" d="M400.428,451.816h0a4.317,4.317,0,0,1-5.929,1.35l-8.533-5.521a4.317,4.317,0,0,1-1.35-5.929h0a4.317,4.317,0,0,1,5.929-1.35l8.533,5.521A4.317,4.317,0,0,1,400.428,451.816Z" transform="translate(-381.413 -393.385)" fill="url(#linear-gradient-6)"/>
    <path id="Path_1133" data-name="Path 1133" d="M405.231,553.28h0a4.355,4.355,0,0,1-5.988,1.361l-5.285-3.855A4.355,4.355,0,0,1,392.6,544.8h0a4.355,4.355,0,0,1,5.988-1.361l5.285,3.855A4.355,4.355,0,0,1,405.231,553.28Z" transform="translate(-388.357 -483.163)" fill="url(#linear-gradient-7)"/>
    <path id="Path_1134" data-name="Path 1134" d="M407.981,555.822h0a4.061,4.061,0,0,1-5.585,1.27l-4.929-3.6a4.062,4.062,0,0,1-1.27-5.585h0a4.061,4.061,0,0,1,5.585-1.27l4.929,3.595A4.061,4.061,0,0,1,407.981,555.822Z" transform="translate(-391.533 -485.99)" fill="#be7c5e"/>
    <path id="Path_1135" data-name="Path 1135" d="M403.321,454.248h0a4.061,4.061,0,0,1-5.585,1.27l-8.029-5.195a4.061,4.061,0,0,1-1.27-5.585h0a4.062,4.062,0,0,1,5.592-1.27l8.022,5.2A4.061,4.061,0,0,1,403.321,454.248Z" transform="translate(-384.773 -396.116)" fill="#be7c5e"/>
    <path id="Path_1136" data-name="Path 1136" d="M401.827,351.03h0a4.336,4.336,0,0,1-5.963,1.355l-10.814-7.042a4.336,4.336,0,0,1-1.355-5.965h0a4.336,4.336,0,0,1,5.963-1.355l10.814,7.042A4.336,4.336,0,0,1,401.827,351.03Z" transform="translate(-380.605 -304.229)" fill="url(#linear-gradient-8)"/>
    <path id="Path_1137" data-name="Path 1137" d="M405.421,354h0a4.062,4.062,0,0,1-5.585,1.27l-10.129-6.594a4.061,4.061,0,0,1-1.27-5.585h0a4.062,4.062,0,0,1,5.592-1.276l10.129,6.594A4.062,4.062,0,0,1,405.421,354Z" transform="translate(-384.773 -307.563)" fill="#be7c5e"/>
  </g>
</svg>
