<svg xmlns="http://www.w3.org/2000/svg" width="39.783" height="59.484" viewBox="0 0 39.783 59.484">
  <g id="woman_red" transform="translate(-0.227)">
    <path id="Path_483" data-name="Path 483" d="M59.6,40.906a28.187,28.187,0,0,1-6.65,16.9c-1.919,2.261-4.383,4.313-7.356,4.744a11.409,11.409,0,0,0,4.121-5.028,7.518,7.518,0,0,1-5.356,2.721,14,14,0,0,0,6.529-7,17.409,17.409,0,0,1-7.436,3.205l8.3-5-7.868,2.342,7.334-4.119a22.789,22.789,0,0,1-6.292,2.268l5.454-3.847a12.4,12.4,0,0,1-6.025,1.083c2.458-.943,3.171-1.523,4.836-2.191a8.155,8.155,0,0,0,5.043-7.033,7.821,7.821,0,0,0-4.432-7.416c-10.177-4.358-14.2-13.162-15.244-14.057a4.46,4.46,0,0,0-2.1-1.206,3.71,3.71,0,0,0-3.228,1.647c-2.019,2.494-2.564,5.835-2.6,9.015a35.117,35.117,0,0,0,6.19,20.177c-1.444-1-2.981-1.754-4.425-2.754A22.021,22.021,0,0,0,32.949,52.9l-2.61-1.724a6.029,6.029,0,0,1,2.854,3.743,4.9,4.9,0,0,0-3.6-2.654l3.784,7.739L29.74,57.136l1.392,4.445-3.094-2.37,1.654,5.273c-2.731-2.552-5.554-5.239-6.809-8.723a23.166,23.166,0,0,1-1.007-5.026l-1.082-8.694a53.126,53.126,0,0,1,.185-10.8c.2-2.332.573-4.647.947-6.959.6-3.7,1.249-7.53,3.4-10.628,1.815-2.616,3.135-5.313,6.023-6.735A21.41,21.41,0,0,1,40.757,5c3.059-.007,6.272.463,8.7,2.277,1.976,1.474,3.224,3.671,4.416,5.8a77.1,77.1,0,0,1,3.972,7.781,38.261,38.261,0,0,1,2.137,6.849c.96,4.541-.183,8.562-.381,13.2Z" transform="translate(-20.354 -5)" fill="#9a0000"/>
    <g id="Group_11" data-name="Group 11" transform="translate(2.375 0)">
      <path id="Path_484" data-name="Path 484" d="M41.248,14.572c4.169,3.69,8.416,7.434,13.826,10.11,2.155,1.066,4.476,1.953,6.52,3.132,5.737,3.31,8.817,8.954,7.789,14.269a7.71,7.71,0,0,1-6,6.258l4.261-.419A5.4,5.4,0,0,0,64.9,51.966l2.11-1.13a6.989,6.989,0,0,0-1.736,5.809,31.759,31.759,0,0,0-.331-38.811,23.178,23.178,0,0,0-7-6.4,22.752,22.752,0,0,0-9.25-2.752c7.181,2.971,12.845,7.884,15.664,13.586C60.511,16.553,53.726,11.948,45.683,9.6c-.7-.206-1.751-.288-1.988.242-.173.386.281.758.694,1.028l6.829,4.464-6.48-3.5L56.78,21.108a50.505,50.505,0,0,0-17.6-8.119l3.625,3.4" transform="translate(-35.046 -6.516)" fill="#fff" opacity="0.21"/>
      <path id="Path_485" data-name="Path 485" d="M29.339,17.144a5.154,5.154,0,0,0-2.712,2.235,8.995,8.995,0,0,0-1.036,3.076,25.931,25.931,0,0,0-.195,8.172,4.445,4.445,0,0,0,1.086,2.639c.337.334.756.794.436,1.139a.859.859,0,0,1-.8.164,2.293,2.293,0,0,1-.736-.373l2.051,5.063a2.394,2.394,0,0,1-1.6-1.071L27.449,42.2l-2.385-2.238.166,2.923a20.781,20.781,0,0,0-1.13-7.642c-.417-1.008-.992-1.973-1.346-3-.948-2.733-.268-5.641.416-8.425l.317,4.831A18.408,18.408,0,0,1,25.065,19.3l-.5,2.5a5.178,5.178,0,0,1,1.391-3.222,6.79,6.79,0,0,1,3.421-2.027.568.568,0,0,1,.445.025.233.233,0,0,1-.015.362,1.454,1.454,0,0,1-.473.205Z" transform="translate(-22.286 -3.75)" fill="#f26e6e" opacity="0.15"/>
      <path id="Path_486" data-name="Path 486" d="M34.216,7.128l2.03-.088-2.854.566,1.066.065-1.778.371.844.03-1.816.393a9.184,9.184,0,0,0-1.1.284,1.533,1.533,0,0,0-.772.5c.047-.49.725-.966,1.791-1.259l-.608.1L32.9,7.43l-.4.157a11.6,11.6,0,0,1,2.1-.5" transform="translate(-14.976 -6.301)" fill="#f26e6e" opacity="0.15"/>
    </g>
  </g>
</svg>
