<svg xmlns="http://www.w3.org/2000/svg" width="32" height="48.948" viewBox="0 0 32 48.948">
  <g id="woman" transform="translate(-20.581 -5)">
    <path id="Path_483" data-name="Path 483" d="M51.97,34.546a23.5,23.5,0,0,1-5.349,13.908C45.077,50.315,43.1,52,40.7,52.358a9.346,9.346,0,0,0,3.315-4.138,6,6,0,0,1-4.308,2.239A11.42,11.42,0,0,0,44.962,44.7a13.844,13.844,0,0,1-5.981,2.637l6.679-4.113L39.331,45.15l5.9-3.389a18.066,18.066,0,0,1-5.061,1.866l4.387-3.166a9.781,9.781,0,0,1-4.846.891c1.977-.776,2.551-1.253,3.89-1.8a6.7,6.7,0,0,0,4.056-5.787,6.457,6.457,0,0,0-3.565-6.1c-8.186-3.586-11.424-10.831-12.262-11.568a3.569,3.569,0,0,0-1.686-.992,2.964,2.964,0,0,0-2.6,1.355c-1.624,2.052-2.062,4.8-2.09,7.418a29.367,29.367,0,0,0,4.979,16.6c-1.162-.823-2.4-1.443-3.559-2.266a18.206,18.206,0,0,0,3.653,6.21L28.43,43a4.949,4.949,0,0,1,2.3,3.08A3.952,3.952,0,0,0,27.832,43.9l3.044,6.368L27.948,47.9l1.12,3.658-2.489-1.95,1.33,4.339c-2.2-2.1-4.467-4.311-5.477-7.178a19.449,19.449,0,0,1-.81-4.136l-.87-7.154a44.716,44.716,0,0,1,.149-8.885c.16-1.919.461-3.824.762-5.726.481-3.043,1-6.2,2.734-8.746,1.46-2.153,2.522-4.372,4.845-5.542A16.89,16.89,0,0,1,36.81,5a11.39,11.39,0,0,1,7,1.874,14.392,14.392,0,0,1,3.552,4.776,64.007,64.007,0,0,1,3.195,6.4,32.015,32.015,0,0,1,1.719,5.636c.772,3.737-.147,7.046-.306,10.858Z" transform="translate(0 0)" fill="#293b44"/>
    <g id="Group_11" data-name="Group 11" transform="translate(21.928 6.612)">
      <path id="Path_484" data-name="Path 484" d="M41.019,13.063c3.706,2.745,7.482,5.53,12.291,7.521,1.916.793,3.979,1.453,5.8,2.33,5.1,2.462,7.839,6.661,6.924,10.615A6.294,6.294,0,0,1,60.7,38.185l3.788-.311a4.065,4.065,0,0,0-2.444,3.009l1.875-.841a4.649,4.649,0,0,0-1.543,4.322c7.756-8.83,7.641-20.1-.294-28.872a19.721,19.721,0,0,0-6.225-4.763A23.211,23.211,0,0,0,47.631,8.68c6.384,2.211,11.419,5.865,13.925,10.107-3.413-4.25-9.445-7.676-16.594-9.424-.626-.153-1.557-.214-1.768.18-.154.287.25.564.617.764l6.071,3.321-5.761-2.606,10.7,6.9a49.34,49.34,0,0,0-15.645-6.04L42.4,14.416" transform="translate(-39.755 -7.384)" fill="#467082" opacity="0.15"/>
      <path id="Path_485" data-name="Path 485" d="M33.643,17.237A8.248,8.248,0,0,0,29.276,19.8a8.51,8.51,0,0,0-1.668,3.531,21.36,21.36,0,0,0-.313,9.379,4.474,4.474,0,0,0,1.749,3.029c.542.384,1.217.911.7,1.307a1.826,1.826,0,0,1-1.282.188,4.4,4.4,0,0,1-1.185-.429l3.3,5.811A4.139,4.139,0,0,1,28,41.389L30.6,46l-3.841-2.569.267,3.355c-.088-2.957-.192-5.968-1.82-8.771-.672-1.157-1.6-2.264-2.168-3.439-1.526-3.136-.431-6.475.67-9.67l.511,5.545a15.888,15.888,0,0,1,2.543-10.737l-.8,2.869a5.289,5.289,0,0,1,2.24-3.7,12.362,12.362,0,0,1,5.508-2.327,1.253,1.253,0,0,1,.717.029c.2.1.152.3-.024.416a2.9,2.9,0,0,1-.761.236Z" transform="translate(-22.286 -9.027)" fill="#467082" opacity="0.15"/>
      <path id="Path_486" data-name="Path 486" d="M37.338,7.449l3.476-.409L35.926,9.672l1.825.3L34.706,11.7l1.445.14-3.109,1.827a9.617,9.617,0,0,0-1.886,1.322,4.832,4.832,0,0,0-1.322,2.328A7.749,7.749,0,0,1,32.9,11.466l-1.041.478,3.226-3.091-.678.731a11.442,11.442,0,0,1,3.6-2.318" transform="translate(-23.868 -7.04)" fill="#467082" opacity="0.15"/>
    </g>
  </g>
</svg>
