<svg xmlns="http://www.w3.org/2000/svg" width="24" height="24.182" viewBox="0 0 24 24.182">
  <g id="open-menu" transform="translate(0 -93.327)">
    <g id="Group_53" data-name="Group 53" transform="translate(0 102.214)">
      <g id="Group_52" data-name="Group 52">
        <path id="Path_513" data-name="Path 513" d="M23.063,236H.938C.42,236,0,237.343,0,239s.42,3,.938,3H23.063c.518,0,.938-1.343.938-3S23.58,236,23.063,236Z" transform="translate(0 -236)" fill="#fff"/>
      </g>
    </g>
    <g id="Group_55" data-name="Group 55" transform="translate(0 93.327)">
      <g id="Group_54" data-name="Group 54">
        <path id="Path_514" data-name="Path 514" d="M23.063,76H.938C.42,76,0,77.343,0,79s.42,3,.938,3H23.063c.518,0,.938-1.343.938-3S23.58,76,23.063,76Z" transform="translate(0 -76)" fill="#fff"/>
      </g>
    </g>
    <g id="Group_57" data-name="Group 57" transform="translate(0 111.509)">
      <g id="Group_56" data-name="Group 56">
        <path id="Path_515" data-name="Path 515" d="M23.063,396H.938C.42,396,0,397.343,0,399s.42,3,.938,3H23.063c.518,0,.938-1.343.938-3S23.58,396,23.063,396Z" transform="translate(0 -396)" fill="#fff"/>
      </g>
    </g>
  </g>
</svg>
