<svg xmlns="http://www.w3.org/2000/svg" width="32" height="27.445" viewBox="0 0 32 27.445">
  <g id="photo" transform="translate(-0.001 -0.5)">
    <path id="Path_476" data-name="Path 476" d="M183.895,102.606a3.145,3.145,0,1,0-3.145-3.145A3.149,3.149,0,0,0,183.895,102.606Zm0-4.446a1.3,1.3,0,1,1-1.3,1.3A1.3,1.3,0,0,1,183.895,98.161Zm0,0" transform="translate(-169.406 -89.798)" fill="#f5feff"/>
    <path id="Path_477" data-name="Path 477" d="M30.832.5H1.169A1.17,1.17,0,0,0,0,1.668V26.776a1.17,1.17,0,0,0,1.168,1.168H30.832A1.17,1.17,0,0,0,32,26.776V1.668A1.17,1.17,0,0,0,30.832.5Zm-.707,1.875V17.213l-5.9-5.9a.987.987,0,0,0-1.394,0l-8.34,8.34L9.167,14.329a.986.986,0,0,0-1.4,0l-5.9,5.9V2.375ZM1.876,26.07V22.877l6.594-6.594L13.8,21.61a.985.985,0,0,0,1.4,0l8.34-8.34,6.594,6.594V26.07Zm0,0" transform="translate(0 0)" fill="#f5feff"/>
  </g>
</svg>
