<svg xmlns="http://www.w3.org/2000/svg" width="32" height="31.926" viewBox="0 0 32 31.926">
  <g id="marketing" transform="translate(0 -0.399)">
    <path id="Path_473" data-name="Path 473" d="M30.377,29.079H3.246V2.022A1.623,1.623,0,1,0,0,2.022V30.7a1.623,1.623,0,0,0,1.623,1.623H30.377a1.623,1.623,0,1,0,0-3.246Z" transform="translate(0 0)" fill="#fafafa"/>
    <path id="Path_474" data-name="Path 474" d="M59.658,87.977a1.6,1.6,0,0,0,1.181-.52l4.46-4.87,7.978,3.5a1.6,1.6,0,0,0,1.934-.518l4.895-6.658.411,2.866a1.6,1.6,0,1,0,3.17-.455l-.972-6.779A1.6,1.6,0,0,0,80.9,73.19l-6.779.972a1.6,1.6,0,1,0,.455,3.17l3.037-.436-4.224,5.747-7.854-3.45a1.6,1.6,0,0,0-1.825.385l-5.235,5.716a1.6,1.6,0,0,0,1.18,2.683Z" transform="translate(-52.314 -65.944)" fill="#fafafa"/>
  </g>
</svg>
