<svg id="marketing" xmlns="http://www.w3.org/2000/svg" width="24.824" height="23.944" viewBox="0 0 24.824 23.944">
  <path id="Path_473" data-name="Path 473" d="M22.783,21.909H2.435V1.616A1.217,1.217,0,1,0,0,1.616v21.51a1.217,1.217,0,0,0,1.217,1.217H22.783a1.217,1.217,0,1,0,0-2.435Z" transform="translate(0 -0.399)" fill="#0c1853"/>
  <path id="Path_474" data-name="Path 474" d="M59.606,87.5A1.546,1.546,0,0,0,60.75,87l4.317-4.714,7.722,3.392a1.55,1.55,0,0,0,1.872-.5L79.4,78.731l.4,2.774a1.55,1.55,0,1,0,3.068-.44L81.924,74.5a1.55,1.55,0,0,0-1.754-1.314l-6.562.941a1.55,1.55,0,1,0,.44,3.068l2.94-.422L72.9,82.339,65.3,79a1.55,1.55,0,0,0-1.766.372L58.464,84.9a1.55,1.55,0,0,0,1.143,2.6Z" transform="translate(-58.057 -69.527)" fill="#0c1853"/>
</svg>
