<svg id="Logo" xmlns="http://www.w3.org/2000/svg" width="264" height="70" viewBox="0 0 264 70">
  <path id="Path_487" data-name="Path 487" d="M0,0H264V70H0Z" fill="#fafeff"/>
  <g id="woman" transform="translate(71.122 22.484)">
    <path id="Path_483" data-name="Path 483" d="M36.275,19.563A11.486,11.486,0,0,1,33.6,26.418a5.023,5.023,0,0,1-2.959,1.924A4.619,4.619,0,0,0,32.3,26.3a3.015,3.015,0,0,1-2.154,1.1,5.659,5.659,0,0,0,2.626-2.839,6.972,6.972,0,0,1-2.991,1.3l3.34-2.027-3.164.95,2.949-1.671a9.116,9.116,0,0,1-2.53.92l2.194-1.56a4.952,4.952,0,0,1-2.423.439c.989-.383,1.275-.618,1.945-.889a3.306,3.306,0,0,0,2.028-2.853,3.176,3.176,0,0,0-1.782-3.008c-4.093-1.767-5.712-5.338-6.131-5.7a1.79,1.79,0,0,0-.843-.489,1.488,1.488,0,0,0-1.3.668A5.868,5.868,0,0,0,23.019,14.3a14.327,14.327,0,0,0,2.489,8.183c-.581-.406-1.2-.711-1.78-1.117a8.946,8.946,0,0,0,1.826,3.061l-1.05-.7a2.443,2.443,0,0,1,1.148,1.518,1.973,1.973,0,0,0-1.447-1.076l1.522,3.139-1.464-1.165.56,1.8-1.244-.961.665,2.139a9.649,9.649,0,0,1-2.738-3.538,9.465,9.465,0,0,1-.405-2.038l-.435-3.526a21.728,21.728,0,0,1,.074-4.379c.08-.946.23-1.885.381-2.822a10.329,10.329,0,0,1,1.367-4.311c.73-1.061,1.261-2.155,2.422-2.732A8.549,8.549,0,0,1,28.7,5a5.757,5.757,0,0,1,3.5.923,7.1,7.1,0,0,1,1.776,2.354,31.37,31.37,0,0,1,1.6,3.156,15.613,15.613,0,0,1,.859,2.778c.386,1.842-.074,3.473-.153,5.352Z" transform="translate(-20.354 -5)" fill="#293b44"/>
    <g id="Group_11" data-name="Group 11" transform="translate(0 0.677)">
      <path id="Path_484" data-name="Path 484" d="M39.919,11.367a23.871,23.871,0,0,0,4.938,4.611c.77.486,1.6.891,2.328,1.428a6.951,6.951,0,0,1,2.782,6.507,3.288,3.288,0,0,1-2.143,2.854l1.522-.191a2.564,2.564,0,0,0-.982,1.844l.753-.515a3.815,3.815,0,0,0-.62,2.649,17.749,17.749,0,0,0-.118-17.7,9.472,9.472,0,0,0-2.5-2.92,6.9,6.9,0,0,0-3.3-1.255,12.039,12.039,0,0,1,5.594,6.2A12.509,12.509,0,0,0,41.5,9.1c-.251-.094-.625-.131-.71.11-.062.176.1.346.248.469l2.439,2.036-2.314-1.6,4.3,4.232a16.6,16.6,0,0,0-6.285-3.7L40.475,12.2" transform="translate(-35.046 -8.68)" fill="#467082" opacity="0.15"/>
      <path id="Path_485" data-name="Path 485" d="M33.666,17.05a9.163,9.163,0,0,0-4.376,1.9,5.762,5.762,0,0,0-1.672,2.612A11.8,11.8,0,0,0,27.3,28.5a3.25,3.25,0,0,0,1.753,2.241c.543.284,1.22.674.7.967a2.4,2.4,0,0,1-1.285.139,5.492,5.492,0,0,1-1.188-.317l3.309,4.3a4.833,4.833,0,0,1-2.583-.909l2.6,3.409-3.849-1.9.267,2.482c-.088-2.187-.192-4.415-1.824-6.489-.673-.856-1.6-1.675-2.173-2.544-1.529-2.32-.432-4.79.671-7.154l.512,4.1c-.5-2.685.38-5.414,2.548-7.943L25.971,21a3.9,3.9,0,0,1,2.245-2.736,14.946,14.946,0,0,1,5.52-1.721,1.683,1.683,0,0,1,.718.021c.2.076.152.222-.024.308a3.686,3.686,0,0,1-.763.174Z" transform="translate(-22.286 -15.519)" fill="#467082" opacity="0.15"/>
      <path id="Path_486" data-name="Path 486" d="M37.338,7.151l3.476-.111-4.888.713,1.825.082L34.706,8.3l1.445.038-3.109.495c-.664.106-1.334.213-1.886.358a2.814,2.814,0,0,0-1.322.631c.081-.616,1.242-1.216,3.068-1.584l-1.041.129,3.226-.837-.678.2a25.992,25.992,0,0,1,3.6-.628" transform="translate(-27.123 -7.04)" fill="#467082" opacity="0.15"/>
    </g>
  </g>
  <text id="Hairdressing_Project" data-name="Hairdressing
Project" transform="translate(147.014 26.276)" fill="#0c1853" font-size="14" font-family="ForteMT, Forte" letter-spacing="0.1em"><tspan x="-45.544" y="0">Hairdressing</tspan><tspan x="-24.557" y="26">Project</tspan></text>
</svg>
