<svg id="Group_6" data-name="Group 6" xmlns="http://www.w3.org/2000/svg" width="24" height="24" viewBox="0 0 24 24">
  <g id="Group_5" data-name="Group 5">
    <path id="Path_470" data-name="Path 470" d="M12,0C6.221,0,0,1.408,0,4.5V9.75C0,13.6,7.176,15,12,15s12-1.4,12-5.25V4.5C24,1.408,17.779,0,12,0Zm0,7.5c-6.353,0-9.818-1.982-9.818-3s3.466-3,9.818-3,9.818,1.982,9.818,3S18.353,7.5,12,7.5Z" transform="translate(0 0)" fill="#0c1853"/>
    <path id="Path_471" data-name="Path 471" d="M23.176,320.253C19.788,323.028,13,323.133,12,323.133s-7.788-.106-11.176-2.88c-.367-.3-.824.046-.824.633v4.5c0,3.447,6.037,5.25,12,5.25s12-1.8,12-5.25v-4.5C24,320.3,23.542,319.953,23.176,320.253Z" transform="translate(0 -306.633)" fill="#0c1853"/>
    <path id="Path_472" data-name="Path 472" d="M23.176,192.253C19.788,195.028,13,195.133,12,195.133s-7.788-.106-11.176-2.88c-.367-.3-.824.046-.824.633v4.5c0,3.852,7.176,5.25,12,5.25s12-1.4,12-5.25v-4.5C24,192.3,23.542,191.953,23.176,192.253Z" transform="translate(0 -184.035)" fill="#0c1853"/>
  </g>
</svg>
