<svg xmlns="http://www.w3.org/2000/svg" width="20.886" height="12.184" viewBox="0 0 20.886 12.184">
  <g id="eye" transform="translate(0 -106.662)">
    <g id="Group_36" data-name="Group 36" transform="translate(0 106.662)">
      <g id="Group_35" data-name="Group 35">
        <path id="Path_505" data-name="Path 505" d="M20.809,112.507c-.164-.239-4.117-5.845-10.366-5.845C5.082,106.662.3,112.235.1,112.473a.437.437,0,0,0,0,.562c.2.238,4.979,5.811,10.341,5.811s10.14-5.573,10.341-5.811A.435.435,0,0,0,20.809,112.507Zm-10.366,5.469c-4.3,0-8.385-4.1-9.423-5.222,1.037-1.124,5.119-5.222,9.423-5.222,5.029,0,8.579,4.093,9.446,5.2C18.889,113.817,14.778,117.976,10.443,117.976Z" transform="translate(0 -106.662)" fill="#4f4f4f"/>
      </g>
    </g>
    <g id="Group_38" data-name="Group 38" transform="translate(6.962 109.273)">
      <g id="Group_37" data-name="Group 37" transform="translate(0 0)">
        <path id="Path_506" data-name="Path 506" d="M174.143,170.662a3.481,3.481,0,1,0,3.481,3.481A3.485,3.485,0,0,0,174.143,170.662Zm0,6.092a2.611,2.611,0,1,1,2.611-2.611A2.614,2.614,0,0,1,174.143,176.754Z" transform="translate(-170.662 -170.662)" fill="#4f4f4f"/>
      </g>
    </g>
  </g>
</svg>
