<svg xmlns="http://www.w3.org/2000/svg" width="24" height="30.331" viewBox="0 0 24 30.331">
  <path id="notification" d="M76.939,24.138a4.712,4.712,0,0,1-1.432-1.95c-1.234-2.611-1.493-6.29-1.493-8.916,0-.011,0-.023,0-.034a8.606,8.606,0,0,0-5.066-7.805V3.379A3.38,3.38,0,0,0,65.574,0h-.28a3.38,3.38,0,0,0-3.373,3.379V5.432a8.606,8.606,0,0,0-5.067,7.839c0,2.626-.259,6.3-1.493,8.916a4.712,4.712,0,0,1-1.432,1.95.864.864,0,0,0-.475.983.9.9,0,0,0,.891.694h6.513a4.575,4.575,0,0,0,9.149,0h6.513a.9.9,0,0,0,.891-.694A.864.864,0,0,0,76.939,24.138ZM63.7,3.379a1.6,1.6,0,0,1,1.6-1.6h.28a1.6,1.6,0,0,1,1.6,1.6V4.855a8.606,8.606,0,0,0-3.472,0V3.379Zm1.736,25.172a2.8,2.8,0,0,1-2.8-2.736h5.595A2.8,2.8,0,0,1,65.434,28.551Zm3.578-4.516H56.371a9.314,9.314,0,0,0,.466-.817c1.191-2.348,1.795-5.695,1.795-9.946a6.8,6.8,0,1,1,13.6,0c0,.011,0,.022,0,.033,0,4.234.607,7.568,1.795,9.91a9.321,9.321,0,0,0,.466.817Z" transform="translate(-53.434 0)" fill="#0c1853"/>
</svg>
