<svg xmlns="http://www.w3.org/2000/svg" width="32" height="42.667" viewBox="0 0 32 42.667">
  <g id="lock" transform="translate(-64)">
    <g id="Group_7" data-name="Group 7" transform="translate(64)">
      <path id="Path_475" data-name="Path 475" d="M95.111,16H92.444V12.444a12.444,12.444,0,1,0-24.889,0V16H64.889a.888.888,0,0,0-.889.889V39.111a3.559,3.559,0,0,0,3.556,3.556H92.445A3.559,3.559,0,0,0,96,39.111V16.889A.888.888,0,0,0,95.111,16ZM82.662,34.569a.889.889,0,0,1-.884.987H78.222a.889.889,0,0,1-.884-.987l.561-5.043a3.517,3.517,0,0,1-1.455-2.859,3.556,3.556,0,0,1,7.111,0A3.517,3.517,0,0,1,82.1,29.526ZM87.111,16H72.889V12.444a7.111,7.111,0,0,1,14.222,0Z" transform="translate(-64)" fill="#fcfcfc"/>
    </g>
  </g>
</svg>
