<svg id="photo" xmlns="http://www.w3.org/2000/svg" width="24" height="20.584" viewBox="0 0 24 20.584">
  <path id="Path_476" data-name="Path 476" d="M183.895,102.606a3.145,3.145,0,1,0-3.145-3.145A3.149,3.149,0,0,0,183.895,102.606Zm0-4.446a1.3,1.3,0,1,1-1.3,1.3A1.3,1.3,0,0,1,183.895,98.161Zm0,0" transform="translate(-172.936 -92.25)" fill="#0c1853"/>
  <path id="Path_477" data-name="Path 477" d="M23.124.5H.877A.877.877,0,0,0,0,1.376V20.207a.877.877,0,0,0,.876.876H23.124A.877.877,0,0,0,24,20.207V1.376A.877.877,0,0,0,23.124.5Zm-.53,1.406V13.035L18.172,8.612a.741.741,0,0,0-1.046,0l-6.255,6.255-4-4a.74.74,0,0,0-1.046,0L1.407,15.294V1.906ZM1.407,19.677V17.283l4.945-4.945,4,4a.739.739,0,0,0,1.046,0l6.255-6.255,4.946,4.946v4.654Zm0,0" transform="translate(-0.001 -0.5)" fill="#0c1853"/>
</svg>
